<?xml version="1.0" encoding="UTF-8" standalone="no"?>
<svg
   viewBox="0 0 793.7007874015749 1122.5196850393702"
   width="793.7007874015749"
   height="1122.5196850393702"
   version="1.1"
   id="svg257"
   sodipodi:docname="Runeterra.svg"
   inkscape:version="1.1.2 (b8e25be833, 2022-02-05)"
   xmlns:inkscape="http://www.inkscape.org/namespaces/inkscape"
   xmlns:sodipodi="http://sodipodi.sourceforge.net/DTD/sodipodi-0.dtd"
   xmlns="http://www.w3.org/2000/svg"
   xmlns:svg="http://www.w3.org/2000/svg">
  <sodipodi:namedview
     id="namedview259"
     pagecolor="#ffffff"
     bordercolor="#666666"
     borderopacity="1.0"
     inkscape:pageshadow="2"
     inkscape:pageopacity="0.0"
     inkscape:pagecheckerboard="0"
     showgrid="false"
     inkscape:zoom="0.64"
     inkscape:cx="259.375"
     inkscape:cy="316.40625"
     inkscape:window-width="1440"
     inkscape:window-height="838"
     inkscape:window-x="-8"
     inkscape:window-y="-8"
     inkscape:window-maximized="1"
     inkscape:current-layer="g255" />
  <desc
     id="desc9">Runeterra.dxf - scale = 1.0, origin = (0.0, 0.0), method = file</desc>
  <defs
     id="defs23">
    <marker
       id="DistanceX"
       orient="auto"
       refX="0.0"
       refY="0.0"
       style="overflow:visible">
      <path
         d="M 3,-3 L -3,3 M 0,-5 L  0,5"
         style="stroke:#000000; stroke-width:0.5"
         id="path11" />
    </marker>
    <pattern
       id="Hatch"
       patternUnits="userSpaceOnUse"
       width="8"
       height="8"
       x="0"
       y="0">
      <path
         d="M8 4 l-4,4"
         stroke="#000000"
         stroke-width="0.25"
         linecap="square"
         id="path14" />
      <path
         d="M6 2 l-4,4"
         stroke="#000000"
         stroke-width="0.25"
         linecap="square"
         id="path16" />
      <path
         d="M4 0 l-4,4"
         stroke="#000000"
         stroke-width="0.25"
         linecap="square"
         id="path18" />
    </pattern>
    <symbol
       id="*MODEL_SPACE" />
    <symbol
       id="*PAPER_SPACE" />
  </defs>
  <g
     inkscape:groupmode="layer"
     inkscape:label="0"
     id="g255">
    <path
       d="M 83.839155,896.29676 C 82.660906,891.03285 76.504993,830.26804 70.159386,761.2638"
       style="fill:none;stroke:#000000"
       id="path25" />
    <path
       d="M 243.30426,969.19634 85.981463,905.86745 83.839155,896.29676"
       style="fill:none;stroke:#000000"
       id="path27" />
    <path
       d="M 70.557597,622.3662 C 86.645878,604.25645 92.9302,589.68085 93.005829,570.30063"
       style="fill:none;stroke:#000000"
       id="path29" />
    <path
       d="m 93.005829,570.30063 c 0.09978,-25.58859 -9.747013,-43.48569 -32.562021,-59.18284"
       style="fill:none;stroke:#000000"
       id="path31" />
    <path
       d="M 60.443808,511.11779 C 53.65027,506.44374 47.424484,500.38993 46.608673,497.66493"
       style="fill:none;stroke:#000000"
       id="path33" />
    <path
       d="m 46.608673,497.66493 c -0.815784,-2.725 -9.272632,-88.37972 -18.79296,-190.34385"
       style="fill:none;stroke:#000000"
       id="path35" />
    <path
       d="M 27.815713,307.32108 C 13.527969,154.29751 11.155798,121.28554 14.227987,118.23019"
       style="fill:none;stroke:#000000"
       id="path37" />
    <path
       d="M 14.227987,118.23019 C 16.275081,116.19435 60.039504,95.340039 111.48221,71.887292"
       style="fill:none;stroke:#000000"
       id="path39" />
    <path
       d="M 70.159386,761.2638 58.621924,635.80157 70.557597,622.3662"
       style="fill:none;stroke:#000000"
       id="path41" />
    <path
       d="m 789.71737,128.78596 c 0.40919,6.83557 -6.81474,92.5276 -16.05318,190.42673"
       style="fill:none;stroke:#000000"
       id="path43" />
    <path
       d="m 111.48221,71.887292 93.53226,-42.641336 197.01884,0.06973 197.01888,0.06973 94.9606,43.486118 94.9606,43.486126 0.74398,12.4283"
       style="fill:none;stroke:#000000"
       id="path45" />
    <path
       d="m 735.75172,517.63784 c -18.38474,17.78518 -21.57517,22.37697 -24.671,35.50761"
       style="fill:none;stroke:#000000"
       id="path47" />
    <path
       d="m 711.08072,553.14545 c -6.08249,25.79824 1.13338,49.35199 20.95138,68.38855"
       style="fill:none;stroke:#000000"
       id="path49" />
    <path
       d="m 732.0321,621.534 c 8.38468,8.05408 10.17147,11.78558 10.17997,21.25984"
       style="fill:none;stroke:#000000"
       id="path51" />
    <path
       d="m 742.21207,642.79384 c 0.0255,27.30395 -23.34576,258.3228 -26.45339,261.49576"
       style="fill:none;stroke:#000000"
       id="path53" />
    <path
       d="m 715.75868,904.2896 c -2.52824,2.58135 -311.81538,128.7625 -314.54943,128.328"
       style="fill:none;stroke:#000000"
       id="path55" />
    <path
       d="m 401.20925,1032.6176 c -0.32023,-0.051 -71.37746,-28.5904 -157.90499,-63.42126"
       style="fill:none;stroke:#000000"
       id="path57" />
    <path
       d="m 773.66419,319.21269 -16.79715,177.99838 -21.11532,20.42677"
       style="fill:none;stroke:#000000"
       id="path59" />
    <path
       d="m 547.54916,947.26996 c 78.21641,-31.40162 143.63749,-58.50791 145.3802,-60.2362"
       style="fill:none;stroke:#000000"
       id="path61" />
    <path
       d="m 692.92936,887.03376 c 4.42653,-4.38998 25.77764,-238.96311 22.21707,-244.08699"
       style="fill:none;stroke:#000000"
       id="path63" />
    <path
       d="m 715.14643,642.94677 c -1.48964,-2.1437 -7.45662,-10.67425 -13.25993,-18.9568"
       style="fill:none;stroke:#000000"
       id="path65" />
    <path
       d="M 701.8865,623.98997 C 670.66359,579.4285 681.37855,523.19779 727.221,491.03753"
       style="fill:none;stroke:#000000"
       id="path67" />
    <path
       d="m 727.221,491.03753 c 5.26949,-3.69675 6.89995,-16.85661 21.74283,-175.49244"
       style="fill:none;stroke:#000000"
       id="path69" />
    <path
       d="m 748.96383,315.54509 c 8.82538,-94.32281 16.01665,-174.07177 15.98062,-177.2199"
       style="fill:none;stroke:#000000"
       id="path71" />
    <path
       d="m 764.94445,138.32519 c -0.0541,-4.73584 -14.78154,-12.44256 -85.31652,-44.645656"
       style="fill:none;stroke:#000000"
       id="path73" />
    <path
       d="M 124.56405,93.171339 C 78.39876,114.2988 39.729045,132.48112 38.631387,133.57654"
       style="fill:none;stroke:#000000"
       id="path75" />
    <path
       d="m 38.631387,133.57654 c -1.097662,1.09539 5.397222,80.63448 14.433105,176.75354"
       style="fill:none;stroke:#000000"
       id="path77" />
    <path
       d="M 679.62793,93.679534 594.37692,54.757763 H 401.43895 208.50094 l -83.93689,38.413576"
       style="fill:none;stroke:#000000"
       id="path79" />
    <path
       d="m 86.588191,500.91876 c 23.358179,21.62559 30.450349,37.84883 30.489439,69.74437"
       style="fill:none;stroke:#000000"
       id="path81" />
    <path
       d="m 117.07763,570.66313 c 0.0343,27.85169 -5.47704,43.04445 -22.415718,61.79353"
       style="fill:none;stroke:#000000"
       id="path83" />
    <path
       d="m 53.064492,310.33008 16.428865,174.76189 17.094834,15.82679"
       style="fill:none;stroke:#000000"
       id="path85" />
    <path
       d="m 95.690181,765.03212 c 6.276499,66.59519 11.862339,121.53268 12.412969,122.08334"
       style="fill:none;stroke:#000000"
       id="path87" />
    <path
       d="m 108.10315,887.11546 c 2.66729,2.66725 287.54076,116.80524 292.04447,117.01114"
       style="fill:none;stroke:#000000"
       id="path89" />
    <path
       d="m 400.14762,1004.1266 c 2.85446,0.1304 69.18515,-25.45504 147.40154,-56.85664"
       style="fill:none;stroke:#000000"
       id="path91" />
    <path
       d="m 94.661912,632.45666 -10.3835,11.49332 11.411769,121.08214"
       style="fill:none;stroke:#000000"
       id="path93" />
    <path
       d="M 285.85398,892.22556 C 222.72879,866.88723 169.43491,845.07943 167.42319,843.76378"
       style="fill:none;stroke:#000000"
       id="path95" />
    <path
       d="m 167.42319,843.76378 c -2.53607,-1.65852 -6.18661,-29.33899 -11.90443,-90.26606"
       style="fill:none;stroke:#000000"
       id="path97" />
    <path
       d="m 155.38823,652.86783 c 16.17601,-25.42316 23.04356,-50.67591 22.98973,-84.53571"
       style="fill:none;stroke:#000000"
       id="path99" />
    <path
       d="m 178.37796,568.33212 c -0.0621,-39.04404 -13.0649,-72.90668 -39.47195,-102.79469"
       style="fill:none;stroke:#000000"
       id="path101" />
    <path
       d="m 155.51876,753.49772 -8.24675,-87.87399 8.11622,-12.7559"
       style="fill:none;stroke:#000000"
       id="path103" />
    <path
       d="M 114.263,312.93597 C 107.02649,236.15502 101.52952,172.93334 102.04752,172.44334"
       style="fill:none;stroke:#000000"
       id="path105" />
    <path
       d="m 102.04752,172.44334 c 0.51801,-0.49002 27.65021,-13.13824 60.29378,-28.10717"
       style="fill:none;stroke:#000000"
       id="path107" />
    <path
       d="M 138.90601,465.53743 127.42032,452.53769 114.263,312.93597"
       style="fill:none;stroke:#000000"
       id="path109" />
    <path
       d="m 699.548,184.78816 c -0.0737,7.21554 -5.53269,69.94266 -12.13103,139.39361"
       style="fill:none;stroke:#000000"
       id="path111" />
    <path
       d="m 162.3413,144.33617 59.35199,-27.21622 h 179.63766 179.63762 l 59.35676,27.27453 59.35675,27.27449 -0.13408,13.11919"
       style="fill:none;stroke:#000000"
       id="path113" />
    <path
       d="m 661.58905,467.33134 c -16.68294,20.35482 -30.99489,50.16536 -35.75006,74.46416"
       style="fill:none;stroke:#000000"
       id="path115" />
    <path
       d="m 625.83899,541.7955 c -6.87456,35.12888 1.26102,78.84973 20.40456,109.65501"
       style="fill:none;stroke:#000000"
       id="path117" />
    <path
       d="m 687.41697,324.18177 -11.99695,126.27442 -13.83097,16.87515"
       style="fill:none;stroke:#000000"
       id="path119" />
    <path
       d="m 647.23837,752.0804 c -4.41657,48.87336 -9.19655,87.95478 -10.99587,89.90289"
       style="fill:none;stroke:#000000"
       id="path121" />
    <path
       d="m 636.2425,841.98329 c -2.65371,2.87325 -194.02484,81.55299 -225.69422,92.79128"
       style="fill:none;stroke:#000000"
       id="path123" />
    <path
       d="m 410.54828,934.77457 c -9.58714,3.40211 -13.78647,1.96917 -124.69433,-42.54901"
       style="fill:none;stroke:#000000"
       id="path125" />
    <path
       d="m 646.24355,651.45051 8.80776,14.17322 -7.81294,86.45667"
       style="fill:none;stroke:#000000"
       id="path127" />
    <path
       d="m 631.55873,648.61586 c -15.91826,-32.05195 -20.6329,-53.31213 -19.13944,-86.30745"
       style="fill:none;stroke:#000000"
       id="path129" />
    <path
       d="m 612.41929,562.30841 c 1.83082,-40.44868 14.56223,-71.68324 43.77466,-107.39424"
       style="fill:none;stroke:#000000"
       id="path131" />
    <path
       d="m 656.19395,454.91417 c 7.68662,-9.39659 7.79876,-10.17852 19.92192,-138.89759"
       style="fill:none;stroke:#000000"
       id="path133" />
    <path
       d="m 676.11587,316.01658 c 6.70546,-71.1963 11.88092,-131.16109 11.50103,-133.25504"
       style="fill:none;stroke:#000000"
       id="path135" />
    <path
       d="m 687.6169,182.76154 c -0.3799,-2.09398 -24.01219,-14.53099 -52.51622,-27.63779"
       style="fill:none;stroke:#000000"
       id="path137" />
    <path
       d="m 515.43017,879.81718 111.96847,-45.12995 7.71122,-81.69711 7.71123,-81.6971 -11.26236,-22.67716"
       style="fill:none;stroke:#000000"
       id="path139" />
    <path
       d="m 166.50145,155.7317 c -51.29803,23.51553 -53.26465,24.71994 -52.07095,31.88975"
       style="fill:none;stroke:#000000"
       id="path141" />
    <path
       d="m 114.4305,187.62145 c 0.68233,4.09819 6.46968,64.04923 12.86078,133.22457"
       style="fill:none;stroke:#000000"
       id="path143" />
    <path
       d="m 635.10068,155.12375 -51.8255,-23.83058 H 401.54405 219.81293 l -53.31148,24.43853"
       style="fill:none;stroke:#000000"
       id="path145" />
    <path
       d="m 151.46196,462.02794 c 44.31678,54.409 51.88511,122.48679 20.54041,184.76264"
       style="fill:none;stroke:#000000"
       id="path147" />
    <path
       d="m 127.29128,320.84602 11.6202,125.7733 12.55048,15.40862"
       style="fill:none;stroke:#000000"
       id="path149" />
    <path
       d="m 166.57501,743.1685 c 3.57199,39.98026 7.35315,77.0929 8.40257,82.47252"
       style="fill:none;stroke:#000000"
       id="path151" />
    <path
       d="m 172.00237,646.79058 -11.9219,23.68649 6.49454,72.69143"
       style="fill:none;stroke:#000000"
       id="path153" />
    <path
       d="m 287.33902,879.99644 c 60.74936,24.51585 111.72897,44.65898 113.28803,44.7625"
       style="fill:none;stroke:#000000"
       id="path155" />
    <path
       d="m 400.62705,924.75894 c 1.55905,0.10347 53.22045,-20.1203 114.80312,-44.94176"
       style="fill:none;stroke:#000000"
       id="path157" />
    <path
       d="m 174.97758,825.64102 1.90806,9.78114 110.45338,44.57428"
       style="fill:none;stroke:#000000"
       id="path159" />
    <path
       d="m 229.13103,819.28016 c 0,-2.01651 5.74016,-17.94684 12.7559,-35.40074"
       style="fill:none;stroke:#000000"
       id="path161" />
    <path
       d="M 234.72395,230.15187 C 223.559,207.55595 215.87975,188.76492 217.25038,187.39428"
       style="fill:none;stroke:#000000"
       id="path163" />
    <path
       d="m 217.25038,187.39428 c 1.34493,-1.34492 55.34234,-2.08086 119.99423,-1.63542"
       style="fill:none;stroke:#000000"
       id="path165" />
    <path
       d="m 241.88693,783.87942 12.75591,-31.73439 V 511.30459 270.46415 l -19.91889,-40.31228"
       style="fill:none;stroke:#000000"
       id="path167" />
    <path
       d="m 476.64717,197.37291 c 35.66639,17.63302 60.04728,46.70497 71.76556,85.57377"
       style="fill:none;stroke:#000000"
       id="path169" />
    <path
       d="m 548.41273,282.94668 c 7.49327,24.85467 6.84408,76.80223 -1.38158,110.55114"
       style="fill:none;stroke:#000000"
       id="path171" />
    <path
       d="M 547.03115,393.49782 C 539.4637,424.54623 515.3068,475.1617 495.6808,501.09128"
       style="fill:none;stroke:#000000"
       id="path173" />
    <path
       d="m 495.6808,501.09128 c -7.8465,10.36666 -14.26637,19.99028 -14.26637,21.38586"
       style="fill:none;stroke:#000000"
       id="path175" />
    <path
       d="m 481.41443,522.47714 c 0,4.65058 78.57292,227.68707 91.82763,260.6613"
       style="fill:none;stroke:#000000"
       id="path177" />
    <path
       d="m 573.24206,783.13844 c 7.17982,17.86144 13.05422,34.12521 13.05422,36.14172"
       style="fill:none;stroke:#000000"
       id="path179" />
    <path
       d="m 586.29628,819.28016 c 0,2.89897 -14.53639,3.66636 -69.4488,3.66636"
       style="fill:none;stroke:#000000"
       id="path181" />
    <path
       d="m 516.84748,822.94652 c -65.82671,0 -69.44879,-0.27524 -69.44879,-5.27459"
       style="fill:none;stroke:#000000"
       id="path183" />
    <path
       d="m 447.39869,817.67193 c 0,-2.901 2.6645,-18.33899 5.92112,-34.30658"
       style="fill:none;stroke:#000000"
       id="path185" />
    <path
       d="m 337.24461,185.75886 117.5489,0.80989 21.85366,10.80416"
       style="fill:none;stroke:#000000"
       id="path187" />
    <path
       d="m 433.08549,680.21478 c -14.38548,-40.76522 -27.23164,-77.01103 -28.547,-80.54623"
       style="fill:none;stroke:#000000"
       id="path189" />
    <path
       d="m 404.53849,599.66855 c -2.35259,-6.32285 -2.76112,-6.1842 -25.05617,8.50393"
       style="fill:none;stroke:#000000"
       id="path191" />
    <path
       d="m 453.31981,783.36535 5.92114,-29.03197 -26.15546,-74.1186"
       style="fill:none;stroke:#000000"
       id="path193" />
    <path
       d="m 369.36936,786.52324 c 6.97357,17.34896 12.00064,32.6415 11.17128,33.98342"
       style="fill:none;stroke:#000000"
       id="path195" />
    <path
       d="m 380.54064,820.50666 c -0.82945,1.34192 -35.23588,2.43986 -76.45882,2.43986"
       style="fill:none;stroke:#000000"
       id="path197" />
    <path
       d="m 304.08182,822.94652 c -59.41248,0 -74.95079,-0.76008 -74.95079,-3.66636"
       style="fill:none;stroke:#000000"
       id="path199" />
    <path
       d="m 379.48232,608.17248 -22.6646,14.93158 -0.0638,65.93781 -0.0638,65.93781 12.6792,31.54356"
       style="fill:none;stroke:#000000"
       id="path201" />
    <path
       d="m 365.19399,809.32415 c 0,-1.25611 -4.46457,-13.35573 -9.92126,-26.8881"
       style="fill:none;stroke:#000000"
       id="path203" />
    <path
       d="m 375.7737,596.52246 c 24.69914,-16.5878 30.96493,-19.681 33.30708,-16.44247"
       style="fill:none;stroke:#000000"
       id="path205" />
    <path
       d="m 409.08078,580.07999 c 1.58666,2.1939 16.19773,41.91728 32.46901,88.27419"
       style="fill:none;stroke:#000000"
       id="path207" />
    <path
       d="m 355.27273,782.43605 -9.92126,-24.60433 v -70.43893 -70.43895 l 30.42223,-20.43138"
       style="fill:none;stroke:#000000"
       id="path209" />
    <path
       d="m 467.56727,772.9111 c -1.96169,11.1494 -4.28006,24.41732 -5.15191,29.48425"
       style="fill:none;stroke:#000000"
       id="path211" />
    <path
       d="m 441.54979,668.35418 29.58417,84.28524 -3.56669,20.27168"
       style="fill:none;stroke:#000000"
       id="path213" />
    <path
       d="m 559.51363,781.13551 c -6.67627,-16.75984 -30.294,-82.41276 -52.48382,-145.89537"
       style="fill:none;stroke:#000000"
       id="path215" />
    <path
       d="m 462.41536,802.39535 -1.58522,9.21259 h 55.41107 55.41107 l -12.13865,-30.47243"
       style="fill:none;stroke:#000000"
       id="path217" />
    <path
       d="m 483.29479,497.75986 c 32.71775,-43.44734 52.97735,-93.24411 57.53498,-141.41726"
       style="fill:none;stroke:#000000"
       id="path219" />
    <path
       d="M 540.82977,356.3426 C 547.81003,282.563 521.98653,230.3351 465.69467,204.38222"
       style="fill:none;stroke:#000000"
       id="path221" />
    <path
       d="m 465.69467,204.38222 c -13.74459,-6.33684 -16.38796,-6.49326 -123.98529,-7.33705"
       style="fill:none;stroke:#000000"
       id="path223" />
    <path
       d="M 507.02981,635.24014 466.68465,519.81717 483.29479,497.75986"
       style="fill:none;stroke:#000000"
       id="path225" />
    <path
       d="m 304.43987,811.60794 c 33.41476,0 60.75412,-1.0277 60.75412,-2.28379"
       style="fill:none;stroke:#000000"
       id="path227" />
    <path
       d="m 341.70938,197.04517 -109.94131,-0.86216 17.10669,34.12564 17.10665,34.12567 v 246.1889 246.18891 l -11.14783,27.39789 -11.14784,27.39792 h 60.75413"
       style="fill:none;stroke:#000000"
       id="path229" />
    <path
       d="m 450.55447,271.63403 c 7.29312,5.13068 14.98509,14.08762 19.30206,22.4763"
       style="fill:none;stroke:#000000"
       id="path231" />
    <path
       d="m 469.85653,294.11033 c 6.17493,11.99908 7.15688,17.53672 7.03244,39.65909"
       style="fill:none;stroke:#000000"
       id="path233" />
    <path
       d="m 476.88897,333.76942 c -0.31986,56.85705 -26.27951,111.71344 -75.37199,159.27152"
       style="fill:none;stroke:#000000"
       id="path235" />
    <path
       d="m 401.51698,493.04094 c -22.16683,21.47403 -46.8586,40.77181 -52.16809,40.77181"
       style="fill:none;stroke:#000000"
       id="path237" />
    <path
       d="m 349.34889,533.81275 c -3.38468,0 -3.99742,-20.88519 -3.99742,-136.25373"
       style="fill:none;stroke:#000000"
       id="path239" />
    <path
       d="M 345.35147,397.55902 V 261.30529 l 46.539,0.89944 46.53903,0.89943 12.12497,8.52987"
       style="fill:none;stroke:#000000"
       id="path241" />
    <path
       d="m 383.26079,492.73554 c 35.718,-30.45959 67.79394,-79.81053 76.85593,-118.24781"
       style="fill:none;stroke:#000000"
       id="path243" />
    <path
       d="m 460.11672,374.48773 c 6.55545,-27.80557 5.65211,-60.70916 -2.08811,-76.05854"
       style="fill:none;stroke:#000000"
       id="path245" />
    <path
       d="M 458.02861,298.42919 C 447.75234,278.0507 434.5963,273.02542 391.52248,273.02542"
       style="fill:none;stroke:#000000"
       id="path247" />
    <path
       d="m 356.69005,393.8449 c 0,114.64891 0.25342,120.6221 4.96063,116.95427"
       style="fill:none;stroke:#000000"
       id="path249" />
    <path
       d="m 361.65068,510.79917 c 2.72835,-2.1259 12.45291,-10.25453 21.61011,-18.06363"
       style="fill:none;stroke:#000000"
       id="path251" />
    <path
       d="M 391.52248,273.02542 H 356.69005 V 393.8449"
       style="fill:none;stroke:#000000"
       id="path253" />
  </g>
</svg>
