999
"DXF R12 Output" (www.mydxf.blogspot.com)
 0 
SECTION
 2 
HEADER
 9 
$ACADVER
 1 
AC1009
 9 
$EXTMIN
 10 
 0 
 20 
 0 
 9 
$EXTMAX
 10 
 8.5 
 20 
 11 
 0 
ENDSEC
 0 
SECTION
 2 
ENTITIES
0
LINE
8
Layer 1
10
0.846666
20
317.647000
11
-0.846666
21
315.953000
0
LINE
8
Layer 1
10
0.000000
20
318.211000
11
0.000000
21
315.389000
0
LINE
8
Layer 1
10
2.257780
20
315.671000
11
1.128890
21
314.542110
0
LINE
8
Layer 1
10
1.693330
20
316.236000
11
0.564440
21
315.107110
0
LINE
8
Layer 1
10
1.128890
20
316.800000
11
0.000000
21
315.671110
0
LINE
8
0
10
23.661300
20
63.845300
11
22.277763
21
76.154162
0
LINE
8
0
10
22.277763
20
76.154162
11
19.800500
21
101.955000
0
LINE
8
0
10
68.665800
20
43.271500
11
24.265900
21
61.144300
0
LINE
8
0
10
24.265900
20
61.144300
11
23.661300
21
63.845300
0
LINE
8
0
10
19.912900
20
141.155000
11
21.487867
21
143.029443
0
LINE
8
0
10
21.487867
20
143.029443
11
22.815320
21
144.837922
0
LINE
8
0
10
22.815320
20
144.837922
11
23.907154
21
146.608033
0
LINE
8
0
10
23.907154
20
146.608033
11
24.775263
21
148.367375
0
LINE
8
0
10
24.775263
20
148.367375
11
25.431538
21
150.143545
0
LINE
8
0
10
25.431538
20
150.143545
11
25.887873
21
151.964141
0
LINE
8
0
10
25.887873
20
151.964141
11
26.156163
21
153.856760
0
LINE
8
0
10
26.156163
20
153.856760
11
26.248300
21
155.849000
0
LINE
8
0
10
26.248300
20
155.849000
11
26.125610
21
158.458397
0
LINE
8
0
10
26.125610
20
158.458397
11
25.729757
21
160.882452
0
LINE
8
0
10
25.729757
20
160.882452
11
25.050747
21
163.139327
0
LINE
8
0
10
25.050747
20
163.139327
11
24.078588
21
165.247185
0
LINE
8
0
10
24.078588
20
165.247185
11
22.803285
21
167.224189
0
LINE
8
0
10
22.803285
20
167.224189
11
21.214845
21
169.088501
0
LINE
8
0
10
21.214845
20
169.088501
11
19.303274
21
170.858284
0
LINE
8
0
10
19.303274
20
170.858284
11
17.058580
21
172.551700
0
LINE
8
0
10
17.058600
20
172.551000
11
14.473637
21
174.655750
0
LINE
8
0
10
14.473637
20
174.655750
11
13.591589
21
175.615781
0
LINE
8
0
10
13.591589
20
175.615781
11
13.154000
21
176.348000
0
LINE
8
0
10
13.154000
20
176.348000
11
11.423337
21
192.704808
0
LINE
8
0
10
11.423337
20
192.704808
11
7.850210
21
230.067200
0
LINE
8
0
10
7.850210
20
230.067000
11
5.427966
21
256.503734
0
LINE
8
0
10
5.427966
20
256.503734
11
4.095570
21
272.621875
0
LINE
8
0
10
4.095570
20
272.621875
11
3.681804
21
280.804078
0
LINE
8
0
10
3.681804
20
280.804078
11
3.765901
21
282.663783
0
LINE
8
0
10
3.765901
20
282.663783
11
4.015450
21
283.433000
0
LINE
8
0
10
4.015450
20
283.433000
11
6.506195
21
284.787953
0
LINE
8
0
10
6.506195
20
284.787953
11
12.511402
21
287.705625
0
LINE
8
0
10
12.511402
20
287.705625
11
31.462700
21
296.512000
0
LINE
8
0
10
19.800500
20
101.955000
11
16.544400
21
137.363000
0
LINE
8
0
10
16.544400
20
137.363000
11
19.912900
21
141.155000
0
LINE
8
0
10
222.876000
20
280.454000
11
222.583469
21
275.128229
0
LINE
8
0
10
222.583469
20
275.128229
11
221.631759
21
263.220256
0
LINE
8
0
10
221.631759
20
263.220256
11
218.345440
21
226.711400
0
LINE
8
0
10
31.462700
20
296.512000
11
57.859600
21
308.546300
0
LINE
8
0
10
57.859600
20
308.546300
11
113.462700
21
308.526621
0
LINE
8
0
10
113.462700
20
308.526621
11
169.065800
21
308.506941
0
LINE
8
0
10
169.065800
20
308.506941
11
195.865800
21
296.234241
0
LINE
8
0
10
195.865800
20
296.234241
11
222.665800
21
283.961541
0
LINE
8
0
10
222.665800
20
283.961541
11
222.875768
21
280.454001
0
LINE
8
0
10
207.645000
20
170.711000
11
204.491011
21
167.548790
0
LINE
8
0
10
204.491011
20
167.548790
11
202.545574
21
165.207885
0
LINE
8
0
10
202.545574
20
165.207885
11
201.409174
21
163.113287
0
LINE
8
0
10
201.409174
20
163.113287
11
200.682300
21
160.690000
0
LINE
8
0
10
200.683000
20
160.690000
11
200.214813
21
157.990635
0
LINE
8
0
10
200.214813
20
157.990635
11
200.096176
21
155.358172
0
LINE
8
0
10
200.096176
20
155.358172
11
200.324785
21
152.800126
0
LINE
8
0
10
200.324785
20
152.800126
11
200.898338
21
150.324014
0
LINE
8
0
10
200.898338
20
150.324014
11
201.814533
21
147.937350
0
LINE
8
0
10
201.814533
20
147.937350
11
203.071066
21
145.647649
0
LINE
8
0
10
203.071066
20
145.647649
11
204.665636
21
143.462427
0
LINE
8
0
10
204.665636
20
143.462427
11
206.595940
21
141.389200
0
LINE
8
0
10
206.596000
20
141.389000
11
208.042870
21
139.868572
0
LINE
8
0
10
208.042870
20
139.868572
11
208.918982
21
138.539305
0
LINE
8
0
10
208.918982
20
138.539305
11
209.351856
21
137.134888
0
LINE
8
0
10
209.351856
20
137.134888
11
209.469010
21
135.389010
0
LINE
8
0
10
209.469000
20
135.389000
11
209.186245
21
130.042238
0
LINE
8
0
10
209.186245
20
130.042238
11
208.428850
21
120.732819
0
LINE
8
0
10
208.428850
20
120.732819
11
206.067724
21
95.935195
0
LINE
8
0
10
206.067724
20
95.935195
11
203.540804
21
72.414498
0
LINE
8
0
10
203.540804
20
72.414498
11
202.576165
21
64.701239
0
LINE
8
0
10
202.576165
20
64.701239
11
202.003270
21
61.589100
0
LINE
8
0
10
202.003000
20
61.589600
11
187.939738
21
55.606111
0
LINE
8
0
10
187.939738
20
55.606111
11
157.638378
21
43.161932
0
LINE
8
0
10
157.638378
20
43.161932
11
127.326129
21
30.877337
0
LINE
8
0
10
127.326129
20
30.877337
11
113.230200
21
25.372600
0
LINE
8
0
10
113.230000
20
25.372600
11
68.665700
21
43.271500
0
LINE
8
0
10
218.345000
20
226.711000
11
213.604470
21
176.475900
0
LINE
8
0
10
213.604470
20
176.475900
11
207.645260
21
170.711020
0
LINE
8
0
10
154.530000
20
49.459600
11
183.138225
21
61.100011
0
LINE
8
0
10
183.138225
20
61.100011
11
192.045375
21
64.843810
0
LINE
8
0
10
192.045375
20
64.843810
11
195.559500
21
66.459600
0
LINE
8
0
10
195.560000
20
66.459600
11
195.847328
21
67.421515
0
LINE
8
0
10
195.847328
20
67.421515
11
196.229310
21
69.715977
0
LINE
8
0
10
196.229310
20
69.715977
11
197.208052
21
77.542471
0
LINE
8
0
10
197.208052
20
77.542471
11
199.540374
21
100.825269
0
LINE
8
0
10
199.540374
20
100.825269
11
201.450046
21
124.146907
0
LINE
8
0
10
201.450046
20
124.146907
11
201.900476
21
132.021952
0
LINE
8
0
10
201.900476
20
132.021952
11
201.939056
21
134.347972
0
LINE
8
0
10
201.939056
20
134.347972
11
201.830150
21
135.346300
0
LINE
8
0
10
201.830000
20
135.346000
11
198.087760
21
140.696030
0
LINE
8
0
10
198.088000
20
140.696000
11
196.573984
21
143.090303
0
LINE
8
0
10
196.573984
20
143.090303
11
195.334559
21
145.546990
0
LINE
8
0
10
195.334559
20
145.546990
11
194.366909
21
148.051287
0
LINE
8
0
10
194.366909
20
148.051287
11
193.668219
21
150.588422
0
LINE
8
0
10
193.668219
20
150.588422
11
193.235673
21
153.143621
0
LINE
8
0
10
193.235673
20
153.143621
11
193.066457
21
155.702111
0
LINE
8
0
10
193.066457
20
155.702111
11
193.157754
21
158.249120
0
LINE
8
0
10
193.157754
20
158.249120
11
193.506750
21
160.769875
0
LINE
8
0
10
193.506750
20
160.769875
11
194.110628
21
163.249602
0
LINE
8
0
10
194.110628
20
163.249602
11
194.966574
21
165.673529
0
LINE
8
0
10
194.966574
20
165.673529
11
196.071772
21
168.026883
0
LINE
8
0
10
196.071772
20
168.026883
11
197.423406
21
170.294891
0
LINE
8
0
10
197.423406
20
170.294891
11
199.018662
21
172.462779
0
LINE
8
0
10
199.018662
20
172.462779
11
200.854723
21
174.515775
0
LINE
8
0
10
200.854723
20
174.515775
11
202.928774
21
176.439107
0
LINE
8
0
10
202.928774
20
176.439107
11
205.238000
21
178.218000
0
LINE
8
0
10
205.238000
20
178.218000
11
205.756836
21
178.809399
0
LINE
8
0
10
205.756836
20
178.809399
11
206.235121
21
180.101011
0
LINE
8
0
10
206.235121
20
180.101011
11
206.728589
21
182.542668
0
LINE
8
0
10
206.728589
20
182.542668
11
207.292971
21
186.584204
0
LINE
8
0
10
207.292971
20
186.584204
11
208.857410
21
201.266245
0
LINE
8
0
10
208.857410
20
201.266245
11
211.374300
21
227.745800
0
LINE
8
0
10
211.374000
20
227.746000
11
215.884080
21
277.761400
0
LINE
8
0
10
215.884000
20
277.762000
11
215.661485
21
278.314377
0
LINE
8
0
10
215.661485
20
278.314377
11
214.914694
21
279.016549
0
LINE
8
0
10
214.914694
20
279.016549
11
213.507587
21
279.939708
0
LINE
8
0
10
213.507587
20
279.939708
11
211.304119
21
281.155045
0
LINE
8
0
10
211.304119
20
281.155045
11
203.963935
21
284.747018
0
LINE
8
0
10
203.963935
20
284.747018
11
191.805800
21
290.362000
0
LINE
8
0
10
35.154700
20
290.505000
11
18.259025
21
282.683250
0
LINE
8
0
10
18.259025
20
282.683250
11
10.902600
21
279.102000
0
LINE
8
0
10
10.902600
20
279.102000
11
11.049757
21
274.991972
0
LINE
8
0
10
11.049757
20
274.991972
11
11.866802
21
264.216809
0
LINE
8
0
10
11.866802
20
264.216809
11
14.975940
21
229.218300
0
LINE
8
0
10
191.806000
20
290.362000
11
167.746000
21
301.346000
0
LINE
8
0
10
167.746000
20
301.346000
11
113.295000
21
301.346000
0
LINE
8
0
10
113.295000
20
301.346000
11
58.843600
21
301.346000
0
LINE
8
0
10
58.843600
20
301.346000
11
35.154800
21
290.504800
0
LINE
8
0
10
24.437100
20
175.430000
11
26.699064
21
173.201143
0
LINE
8
0
10
26.699064
20
173.201143
11
28.561128
21
171.045523
0
LINE
8
0
10
28.561128
20
171.045523
11
30.053760
21
168.893439
0
LINE
8
0
10
30.053760
20
168.893439
11
31.207430
21
166.675193
0
LINE
8
0
10
31.207430
20
166.675193
11
32.052609
21
164.321085
0
LINE
8
0
10
32.052609
20
164.321085
11
32.619765
21
161.761416
0
LINE
8
0
10
32.619765
20
161.761416
11
32.939369
21
158.926487
0
LINE
8
0
10
32.939369
20
158.926487
11
33.041890
21
155.746600
0
LINE
8
0
10
33.041900
20
155.746000
11
32.968924
21
152.956894
0
LINE
8
0
10
32.968924
20
152.956894
11
32.729767
21
150.449092
0
LINE
8
0
10
32.729767
20
150.449092
11
32.304977
21
148.168967
0
LINE
8
0
10
32.304977
20
148.168967
11
31.675101
21
146.062890
0
LINE
8
0
10
31.675101
20
146.062890
11
30.820687
21
144.077233
0
LINE
8
0
10
30.820687
20
144.077233
11
29.722282
21
142.158368
0
LINE
8
0
10
29.722282
20
142.158368
11
28.360434
21
140.252666
0
LINE
8
0
10
28.360434
20
140.252666
11
26.715690
21
138.306500
0
LINE
8
0
10
14.976000
20
229.218000
11
19.612590
21
179.896300
0
LINE
8
0
10
19.612590
20
179.896300
11
24.437130
21
175.429630
0
LINE
8
0
10
27.005900
20
100.891000
11
29.363494
21
76.674000
0
LINE
8
0
10
29.363494
20
76.674000
11
30.509110
21
66.436400
0
LINE
8
0
10
30.509100
20
66.436500
11
34.214636
21
64.803798
0
LINE
8
0
10
34.214636
20
64.803798
11
43.526269
21
60.967242
0
LINE
8
0
10
43.526269
20
60.967242
11
71.525425
21
49.664454
0
LINE
8
0
10
71.525425
20
49.664454
11
99.621769
21
38.491914
0
LINE
8
0
10
99.621769
20
38.491914
11
112.930500
21
33.413400
0
LINE
8
0
10
112.930000
20
33.413400
11
116.665646
21
34.658842
0
LINE
8
0
10
116.665646
20
34.658842
11
125.754197
21
38.099363
0
LINE
8
0
10
125.754197
20
38.099363
11
154.530000
21
49.459600
0
LINE
8
0
10
26.715700
20
138.307000
11
23.785250
21
135.063330
0
LINE
8
0
10
23.785250
20
135.063330
11
27.005900
21
100.891330
0
LINE
8
0
10
80.674300
20
64.994300
11
57.494588
21
74.375225
0
LINE
8
0
10
57.494588
20
74.375225
11
47.250500
21
78.671300
0
LINE
8
0
10
47.250500
20
78.671300
11
46.966831
21
79.195058
0
LINE
8
0
10
46.966831
20
79.195058
11
46.650523
21
80.431206
0
LINE
8
0
10
46.650523
20
80.431206
11
45.907388
21
85.136255
0
LINE
8
0
10
45.907388
20
85.136255
11
44.995887
21
92.977602
0
LINE
8
0
10
44.995887
20
92.977602
11
43.890810
21
104.146400
0
LINE
8
0
10
43.854000
20
132.546000
11
45.444134
21
135.239203
0
LINE
8
0
10
45.444134
20
135.239203
11
46.795875
21
137.956927
0
LINE
8
0
10
46.795875
20
137.956927
11
47.917120
21
140.728202
0
LINE
8
0
10
47.917120
20
140.728202
11
48.815763
21
143.582055
0
LINE
8
0
10
48.815763
20
143.582055
11
49.499698
21
146.547513
0
LINE
8
0
10
49.499698
20
146.547513
11
49.976821
21
149.653605
0
LINE
8
0
10
49.976821
20
149.653605
11
50.255027
21
152.929358
0
LINE
8
0
10
50.255027
20
152.929358
11
50.342210
21
156.403800
0
LINE
8
0
10
50.342200
20
156.404000
11
50.164178
21
160.468282
0
LINE
8
0
10
50.164178
20
160.468282
11
49.642233
21
164.399464
0
LINE
8
0
10
49.642233
20
164.399464
11
48.774832
21
168.201536
0
LINE
8
0
10
48.774832
20
168.201536
11
47.560440
21
171.878488
0
LINE
8
0
10
47.560440
20
171.878488
11
45.997525
21
175.434310
0
LINE
8
0
10
45.997525
20
175.434310
11
44.084553
21
178.872992
0
LINE
8
0
10
44.084553
20
178.872992
11
41.819989
21
182.198526
0
LINE
8
0
10
41.819989
20
182.198526
11
39.202300
21
185.414900
0
LINE
8
0
10
43.890800
20
104.146000
11
41.563390
21
128.946000
0
LINE
8
0
10
41.563390
20
128.946000
11
43.853970
21
132.546000
0
LINE
8
0
10
32.247500
20
228.483000
11
29.703112
21
256.381750
0
LINE
8
0
10
29.703112
20
256.381750
11
28.800100
21
268.133000
0
LINE
8
0
10
28.800100
20
268.133000
11
45.816300
21
276.065460
0
LINE
8
0
10
39.202300
20
185.415000
11
35.960800
21
189.084000
0
LINE
8
0
10
35.960800
20
189.084000
11
32.247500
21
228.483000
0
LINE
8
0
10
197.428000
20
264.649000
11
196.406701
21
251.565595
0
LINE
8
0
10
196.406701
20
251.565595
11
194.004360
21
225.309100
0
LINE
8
0
10
45.816300
20
276.065000
11
62.566700
21
283.746020
0
LINE
8
0
10
62.566700
20
283.746020
11
113.264000
21
283.746000
0
LINE
8
0
10
113.264000
20
283.746000
11
163.962000
21
283.746000
0
LINE
8
0
10
163.962000
20
283.746000
11
180.713800
21
276.048530
0
LINE
8
0
10
180.713800
20
276.048530
11
197.465600
21
268.351070
0
LINE
8
0
10
197.465600
20
268.351070
11
197.427760
21
264.648550
0
LINE
8
0
10
186.715000
20
184.909000
11
184.984718
21
182.637941
0
LINE
8
0
10
184.984718
20
182.637941
11
183.340933
21
180.166199
0
LINE
8
0
10
183.340933
20
180.166199
11
181.807410
21
177.543279
0
LINE
8
0
10
181.807410
20
177.543279
11
180.407914
21
174.818682
0
LINE
8
0
10
180.407914
20
174.818682
11
179.166210
21
172.041913
0
LINE
8
0
10
179.166210
20
172.041913
11
178.106063
21
169.262475
0
LINE
8
0
10
178.106063
20
169.262475
11
177.251238
21
166.529869
0
LINE
8
0
10
177.251238
20
166.529869
11
176.625500
21
163.893600
0
LINE
8
0
10
176.626000
20
163.893000
11
176.094809
21
160.073389
0
LINE
8
0
10
176.094809
20
160.073389
11
175.947524
21
156.097582
0
LINE
8
0
10
175.947524
20
156.097582
11
176.170910
21
152.036708
0
LINE
8
0
10
176.170910
20
152.036708
11
176.751729
21
147.961898
0
LINE
8
0
10
176.751729
20
147.961898
11
177.676746
21
143.944281
0
LINE
8
0
10
177.676746
20
143.944281
11
178.932724
21
140.054990
0
LINE
8
0
10
178.932724
20
140.054990
11
180.506428
21
136.365152
0
LINE
8
0
10
180.506428
20
136.365152
11
182.384620
21
132.945900
0
LINE
8
0
10
194.004000
20
225.309000
11
190.618200
21
189.671600
0
LINE
8
0
10
190.618200
20
189.671600
11
186.714800
21
184.909060
0
LINE
8
0
10
182.665000
20
104.546000
11
180.836370
21
86.893463
0
LINE
8
0
10
180.836370
20
86.893463
11
180.085558
21
81.430161
0
LINE
8
0
10
180.085558
20
81.430161
11
179.561720
21
79.173400
0
LINE
8
0
10
179.562000
20
79.173800
11
176.976630
21
77.945821
0
LINE
8
0
10
176.976630
20
77.945821
11
170.550437
21
75.185896
0
LINE
8
0
10
170.550437
20
75.185896
11
150.784874
21
66.965252
0
LINE
8
0
10
150.784874
20
66.965252
11
129.483900
21
58.301957
0
LINE
8
0
10
129.483900
20
58.301957
11
115.866100
21
52.986100
0
LINE
8
0
10
115.866000
20
52.986100
11
114.860849
21
52.711091
0
LINE
8
0
10
114.860849
20
52.711091
11
113.627515
21
52.690515
0
LINE
8
0
10
113.627515
20
52.690515
11
111.795262
21
53.050875
0
LINE
8
0
10
111.795262
20
53.050875
11
108.993356
21
53.918678
0
LINE
8
0
10
108.993356
20
53.918678
11
98.997645
21
57.682626
0
LINE
8
0
10
98.997645
20
57.682626
11
80.674500
21
64.994400
0
LINE
8
0
10
182.384000
20
132.946000
11
184.869740
21
128.946010
0
LINE
8
0
10
184.869740
20
128.946010
11
182.664760
21
104.546010
0
LINE
8
0
10
178.240000
20
133.746000
11
176.700780
21
137.007816
0
LINE
8
0
10
176.700780
20
137.007816
11
175.441468
21
140.058606
0
LINE
8
0
10
175.441468
20
140.058606
11
174.445540
21
142.972871
0
LINE
8
0
10
174.445540
20
142.972871
11
173.696476
21
145.825114
0
LINE
8
0
10
173.696476
20
145.825114
11
173.177755
21
148.689836
0
LINE
8
0
10
173.177755
20
148.689836
11
172.872854
21
151.641540
0
LINE
8
0
10
172.872854
20
151.641540
11
172.765253
21
154.754727
0
LINE
8
0
10
172.765253
20
154.754727
11
172.838430
21
158.103900
0
LINE
8
0
10
172.838000
20
158.104000
11
173.179043
21
162.270465
0
LINE
8
0
10
173.179043
20
162.270465
11
173.826954
21
166.238420
0
LINE
8
0
10
173.826954
20
166.238420
11
174.800189
21
170.053144
0
LINE
8
0
10
174.800189
20
170.053144
11
176.117204
21
173.759913
0
LINE
8
0
10
176.117204
20
173.759913
11
177.796457
21
177.404005
0
LINE
8
0
10
177.796457
20
177.404005
11
179.856402
21
181.030698
0
LINE
8
0
10
179.856402
20
181.030698
11
182.315498
21
184.685271
0
LINE
8
0
10
182.315498
20
184.685271
11
185.192200
21
188.413000
0
LINE
8
0
10
185.192000
20
188.413000
11
185.916091
21
189.368775
0
LINE
8
0
10
185.916091
20
189.368775
11
186.504549
21
190.548238
0
LINE
8
0
10
186.504549
20
190.548238
11
187.022149
21
192.403006
0
LINE
8
0
10
187.022149
20
192.403006
11
187.533666
21
195.384695
0
LINE
8
0
10
187.533666
20
195.384695
11
188.797550
21
206.535304
0
LINE
8
0
10
188.797550
20
206.535304
11
190.814400
21
227.613000
0
LINE
8
0
10
190.815000
20
227.613000
11
193.187789
21
253.730075
0
LINE
8
0
10
193.187789
20
253.730075
11
194.060840
21
265.220500
0
LINE
8
0
10
194.061000
20
265.221000
11
193.723316
21
265.574110
0
LINE
8
0
10
193.723316
20
265.574110
11
192.831204
21
266.168888
0
LINE
8
0
10
192.831204
20
266.168888
11
189.626855
21
267.955475
0
LINE
8
0
10
189.626855
20
267.955475
11
184.934279
21
270.324822
0
LINE
8
0
10
184.934279
20
270.324822
11
179.239800
21
273.020990
0
LINE
8
0
10
145.466000
20
68.496200
11
177.066000
21
81.232900
0
LINE
8
0
10
177.066000
20
81.232900
11
179.242280
21
104.289600
0
LINE
8
0
10
179.242280
20
104.289600
11
181.418560
21
127.346300
0
LINE
8
0
10
181.418560
20
127.346300
11
178.240070
21
133.746290
0
LINE
8
0
10
46.990400
20
272.849000
11
38.539183
21
268.927488
0
LINE
8
0
10
38.539183
20
268.927488
11
34.087238
21
266.619085
0
LINE
8
0
10
34.087238
20
266.619085
11
32.979245
21
265.836003
0
LINE
8
0
10
32.979245
20
265.836003
11
32.412973
21
265.175642
0
LINE
8
0
10
32.412973
20
265.175642
11
32.235725
21
264.544484
0
LINE
8
0
10
32.235725
20
264.544484
11
32.294800
21
263.849010
0
LINE
8
0
10
32.294800
20
263.849000
11
35.924400
21
226.250100
0
LINE
8
0
10
179.239000
20
273.021000
11
164.612700
21
279.746510
0
LINE
8
0
10
164.612700
20
279.746510
11
113.325000
21
279.746000
0
LINE
8
0
10
113.325000
20
279.746000
11
62.036000
21
279.746000
0
LINE
8
0
10
62.036000
20
279.746000
11
46.990300
21
272.848910
0
LINE
8
0
10
42.745900
20
186.406000
11
44.969312
21
183.482997
0
LINE
8
0
10
44.969312
20
183.482997
11
46.948752
21
180.477628
0
LINE
8
0
10
46.948752
20
180.477628
11
48.683326
21
177.397944
0
LINE
8
0
10
48.683326
20
177.397944
11
50.172138
21
174.251994
0
LINE
8
0
10
50.172138
20
174.251994
11
51.414295
21
171.047827
0
LINE
8
0
10
51.414295
20
171.047827
11
52.408901
21
167.793494
0
LINE
8
0
10
52.408901
20
167.793494
11
53.155062
21
164.497043
0
LINE
8
0
10
53.155062
20
164.497043
11
53.651882
21
161.166525
0
LINE
8
0
10
53.651882
20
161.166525
11
53.898469
21
157.809989
0
LINE
8
0
10
53.898469
20
157.809989
11
53.893926
21
154.435484
0
LINE
8
0
10
53.893926
20
154.435484
11
53.637360
21
151.051061
0
LINE
8
0
10
53.637360
20
151.051061
11
53.127875
21
147.664769
0
LINE
8
0
10
53.127875
20
147.664769
11
52.364578
21
144.284657
0
LINE
8
0
10
52.364578
20
144.284657
11
51.346572
21
140.918775
0
LINE
8
0
10
51.346572
20
140.918775
11
50.072965
21
137.575173
0
LINE
8
0
10
50.072965
20
137.575173
11
48.542860
21
134.261900
0
LINE
8
0
10
35.924400
20
226.250000
11
39.203880
21
190.754000
0
LINE
8
0
10
39.203880
20
190.754000
11
42.745900
21
186.405350
0
LINE
8
0
10
47.011100
20
107.061000
11
48.463765
21
91.761325
0
LINE
8
0
10
48.463765
20
91.761325
11
49.382490
21
83.785400
0
LINE
8
0
10
48.542900
20
134.261000
11
45.178280
21
127.576150
0
LINE
8
0
10
45.178280
20
127.576150
11
47.011180
21
107.061050
0
LINE
8
0
10
81.093400
20
68.445600
11
103.343900
21
59.545496
0
LINE
8
0
10
103.343900
20
59.545496
11
113.065800
21
55.812600
0
LINE
8
0
10
113.066000
20
55.812700
11
122.913499
21
59.516596
0
LINE
8
0
10
122.913499
20
59.516596
11
145.466000
21
68.496300
0
LINE
8
0
10
49.382500
20
83.785900
11
49.920997
21
81.025450
0
LINE
8
0
10
49.920997
20
81.025450
11
81.093397
21
68.445650
0
LINE
8
0
10
64.665800
20
85.581100
11
65.723300
21
88.942744
0
LINE
8
0
10
65.723300
20
88.942744
11
68.265800
21
95.571970
0
LINE
8
0
10
66.244300
20
251.846000
11
64.090031
21
256.367344
0
LINE
8
0
10
64.090031
20
256.367344
11
62.451875
21
260.125750
0
LINE
8
0
10
62.451875
20
260.125750
11
61.477056
21
262.761031
0
LINE
8
0
10
61.477056
20
262.761031
11
61.284406
21
263.544941
0
LINE
8
0
10
61.284406
20
263.544941
11
61.312800
21
263.913000
0
LINE
8
0
10
61.312800
20
263.913000
11
64.198465
21
264.162925
0
LINE
8
0
10
64.198465
20
264.162925
11
71.545313
21
264.333255
0
LINE
8
0
10
71.545313
20
264.333255
11
95.177800
21
264.374552
0
LINE
8
0
10
68.265800
20
95.572000
11
71.865800
21
104.528140
0
LINE
8
0
10
71.865800
20
104.528140
11
71.865800
21
172.499000
0
LINE
8
0
10
71.865800
20
172.499000
11
71.865800
21
240.469000
0
LINE
8
0
10
71.865800
20
240.469000
11
66.244250
21
251.846000
0
LINE
8
0
10
134.520000
20
261.097000
11
138.144623
21
259.080416
0
LINE
8
0
10
138.144623
20
259.080416
11
141.466105
21
256.766606
0
LINE
8
0
10
141.466105
20
256.766606
11
144.479887
21
254.161003
0
LINE
8
0
10
144.479887
20
254.161003
11
147.181413
21
251.269039
0
LINE
8
0
10
147.181413
20
251.269039
11
149.566124
21
248.096144
0
LINE
8
0
10
149.566124
20
248.096144
11
151.629464
21
244.647752
0
LINE
8
0
10
151.629464
20
244.647752
11
153.366875
21
240.929293
0
LINE
8
0
10
153.366875
20
240.929293
11
154.773800
21
236.946200
0
LINE
8
0
10
154.774000
20
236.946000
11
155.459632
21
233.982099
0
LINE
8
0
10
155.459632
20
233.982099
11
155.931700
21
230.451156
0
LINE
8
0
10
155.931700
20
230.451156
11
156.192076
21
226.502963
0
LINE
8
0
10
156.192076
20
226.502963
11
156.242631
21
222.287314
0
LINE
8
0
10
156.242631
20
222.287314
11
156.085238
21
217.954000
0
LINE
8
0
10
156.085238
20
217.954000
11
155.721768
21
213.652815
0
LINE
8
0
10
155.721768
20
213.652815
11
155.154094
21
209.533550
0
LINE
8
0
10
155.154094
20
209.533550
11
154.384088
21
205.746000
0
LINE
8
0
10
154.384000
20
205.746000
11
153.375504
21
202.225754
0
LINE
8
0
10
153.375504
20
202.225754
11
151.997844
21
198.334094
0
LINE
8
0
10
151.997844
20
198.334094
11
150.320887
21
194.217387
0
LINE
8
0
10
150.320887
20
194.217387
11
148.414500
21
190.022000
0
LINE
8
0
10
148.414500
20
190.022000
11
146.348551
21
185.894301
0
LINE
8
0
10
146.348551
20
185.894301
11
144.192906
21
181.980656
0
LINE
8
0
10
144.192906
20
181.980656
11
142.017434
21
178.427434
0
LINE
8
0
10
142.017434
20
178.427434
11
139.892000
21
175.381000
0
LINE
8
0
10
139.892000
20
175.381000
11
137.048441
21
171.413780
0
LINE
8
0
10
137.048441
20
171.413780
11
135.865720
21
169.345440
0
LINE
8
0
10
135.866000
20
169.345000
11
136.826138
21
166.188894
0
LINE
8
0
10
136.826138
20
166.188894
11
139.389294
21
158.605522
0
LINE
8
0
10
139.389294
20
158.605522
11
147.421100
21
135.560400
0
LINE
8
0
10
147.421100
20
135.560400
11
156.154306
21
111.016478
0
LINE
8
0
10
156.154306
20
111.016478
11
161.781800
21
95.780600
0
LINE
8
0
10
161.782000
20
95.781100
11
164.383958
21
89.004182
0
LINE
8
0
10
164.383958
20
89.004182
11
165.466190
21
85.581100
0
LINE
8
0
10
165.466000
20
85.581100
11
165.259453
21
85.301740
0
LINE
8
0
10
165.259453
20
85.301740
11
164.582837
21
85.074265
0
LINE
8
0
10
164.582837
20
85.074265
11
161.477566
21
84.756928
0
LINE
8
0
10
161.477566
20
84.756928
11
155.466512
21
84.592994
0
LINE
8
0
10
155.466512
20
84.592994
11
145.866000
21
84.546370
0
LINE
8
0
10
145.866000
20
84.546400
11
134.966033
21
84.580583
0
LINE
8
0
10
134.966033
20
84.580583
11
129.099363
21
84.761606
0
LINE
8
0
10
129.099363
20
84.761606
11
127.569146
21
84.943966
0
LINE
8
0
10
127.569146
20
84.943966
11
126.716011
21
85.207178
0
LINE
8
0
10
126.716011
20
85.207178
11
126.346212
21
85.565955
0
LINE
8
0
10
126.346212
20
85.565955
11
126.266000
21
86.035010
0
LINE
8
0
10
126.266000
20
86.035000
11
126.756877
21
89.493157
0
LINE
8
0
10
126.756877
20
89.493157
11
127.937070
21
95.717070
0
LINE
8
0
10
95.177800
20
264.375000
11
128.352700
21
264.146431
0
LINE
8
0
10
128.352700
20
264.146431
11
134.520280
21
261.097261
0
LINE
8
0
10
122.226000
20
124.828000
11
114.169410
21
147.559900
0
LINE
8
0
10
114.170000
20
147.560000
11
113.669822
21
148.520750
0
LINE
8
0
10
113.669822
20
148.520750
11
113.299852
21
148.677811
0
LINE
8
0
10
113.299852
20
148.677811
11
112.744874
21
148.583664
0
LINE
8
0
10
112.744874
20
148.583664
11
110.764639
21
147.534745
0
LINE
8
0
10
110.764639
20
147.534745
11
107.098600
21
145.160000
0
LINE
8
0
10
127.937000
20
95.717100
11
129.608080
21
103.910560
0
LINE
8
0
10
129.608080
20
103.910560
11
122.226430
21
124.828460
0
LINE
8
0
10
104.244000
20
94.825800
11
106.646196
21
88.336288
0
LINE
8
0
10
106.646196
20
88.336288
11
107.279665
21
86.204739
0
LINE
8
0
10
107.279665
20
86.204739
11
107.396780
21
85.234930
0
LINE
8
0
10
107.397000
20
85.235000
11
105.562658
21
84.967637
0
LINE
8
0
10
105.562658
20
84.967637
11
100.882789
21
84.748689
0
LINE
8
0
10
100.882789
20
84.748689
11
85.818600
21
84.546418
0
LINE
8
0
10
85.818600
20
84.546400
11
75.439686
21
84.592733
0
LINE
8
0
10
75.439686
20
84.592733
11
68.954387
21
84.756183
0
LINE
8
0
10
68.954387
20
84.756183
11
65.612995
21
85.073424
0
LINE
8
0
10
65.612995
20
85.073424
11
64.886980
21
85.301176
0
LINE
8
0
10
64.886980
20
85.301176
11
64.665800
21
85.581130
0
LINE
8
0
10
107.098000
20
145.160000
11
100.701550
21
140.945980
0
LINE
8
0
10
100.701550
20
140.945980
11
100.683544
21
122.336880
0
LINE
8
0
10
100.683544
20
122.336880
11
100.665538
21
103.727780
0
LINE
8
0
10
100.665538
20
103.727780
11
104.243888
21
94.825490
0
LINE
8
0
10
103.066000
20
88.390900
11
102.243500
21
90.885869
0
LINE
8
0
10
102.243500
20
90.885869
11
100.266000
21
95.979310
0
LINE
8
0
10
106.052000
20
148.448000
11
110.368533
21
151.276578
0
LINE
8
0
10
110.368533
20
151.276578
11
113.118106
21
152.866498
0
LINE
8
0
10
113.118106
20
152.866498
11
114.684624
21
153.407276
0
LINE
8
0
10
114.684624
20
153.407276
11
115.144207
21
153.343461
0
LINE
8
0
10
115.144207
20
153.343461
11
115.451990
21
153.088430
0
LINE
8
0
10
115.452000
20
153.089000
11
118.479615
21
145.306450
0
LINE
8
0
10
118.479615
20
145.306450
11
124.615470
21
128.176100
0
LINE
8
0
10
100.266000
20
95.979300
11
97.466000
21
102.923180
0
LINE
8
0
10
97.466000
20
102.923180
11
97.465800
21
122.803000
0
LINE
8
0
10
97.465800
20
122.803000
11
97.465800
21
142.682000
0
LINE
8
0
10
97.465800
20
142.682000
11
106.051620
21
148.448180
0
LINE
8
0
10
131.958000
20
98.667500
11
130.504020
21
90.346400
0
LINE
8
0
10
124.615000
20
128.176000
11
132.964300
21
104.388900
0
LINE
8
0
10
132.964300
20
104.388900
11
131.957700
21
98.667790
0
LINE
8
0
10
157.907000
20
96.346400
11
152.142805
21
111.989025
0
LINE
8
0
10
152.142805
20
111.989025
11
143.094900
21
137.521300
0
LINE
8
0
10
130.504000
20
90.346400
11
130.056616
21
87.746400
0
LINE
8
0
10
130.056616
20
87.746400
11
145.695000
21
87.746400
0
LINE
8
0
10
145.695000
20
87.746400
11
161.333000
21
87.746400
0
LINE
8
0
10
161.333000
20
87.746400
11
157.907210
21
96.346390
0
LINE
8
0
10
136.396000
20
176.321000
11
139.692028
21
180.998776
0
LINE
8
0
10
139.692028
20
180.998776
11
142.647708
21
185.818175
0
LINE
8
0
10
142.647708
20
185.818175
11
145.252308
21
190.752830
0
LINE
8
0
10
145.252308
20
190.752830
11
147.495101
21
195.776375
0
LINE
8
0
10
147.495101
20
195.776375
11
149.365356
21
200.862441
0
LINE
8
0
10
149.365356
20
200.862441
11
150.852344
21
205.984663
0
LINE
8
0
10
150.852344
20
205.984663
11
151.945335
21
211.116671
0
LINE
8
0
10
151.945335
20
211.116671
11
152.633600
21
216.232100
0
LINE
8
0
10
152.634000
20
216.232000
11
152.895044
21
220.064691
0
LINE
8
0
10
152.895044
20
220.064691
11
152.940068
21
223.752840
0
LINE
8
0
10
152.940068
20
223.752840
11
152.770039
21
227.294499
0
LINE
8
0
10
152.770039
20
227.294499
11
152.385922
21
230.687719
0
LINE
8
0
10
152.385922
20
230.687719
11
151.788681
21
233.930552
0
LINE
8
0
10
151.788681
20
233.930552
11
150.979283
21
237.021051
0
LINE
8
0
10
150.979283
20
237.021051
11
149.958693
21
239.957266
0
LINE
8
0
10
149.958693
20
239.957266
11
148.727875
21
242.737250
0
LINE
8
0
10
148.727875
20
242.737250
11
147.287796
21
245.359054
0
LINE
8
0
10
147.287796
20
245.359054
11
145.639420
21
247.820730
0
LINE
8
0
10
145.639420
20
247.820730
11
143.783713
21
250.120331
0
LINE
8
0
10
143.783713
20
250.120331
11
141.721641
21
252.255906
0
LINE
8
0
10
141.721641
20
252.255906
11
139.454168
21
254.225509
0
LINE
8
0
10
139.454168
20
254.225509
11
136.982260
21
256.027191
0
LINE
8
0
10
136.982260
20
256.027191
11
134.306882
21
257.659004
0
LINE
8
0
10
134.306882
20
257.659004
11
131.429000
21
259.119000
0
LINE
8
0
10
131.429000
20
259.119000
11
130.057253
21
259.711673
0
LINE
8
0
10
130.057253
20
259.711673
11
128.595397
21
260.163537
0
LINE
8
0
10
128.595397
20
260.163537
11
126.659606
21
260.497303
0
LINE
8
0
10
126.659606
20
260.497303
11
123.866049
21
260.735688
0
LINE
8
0
10
123.866049
20
260.735688
11
114.170326
21
261.017165
0
LINE
8
0
10
114.170326
20
261.017165
11
96.437600
21
261.189680
0
LINE
8
0
10
143.095000
20
137.521000
11
131.709000
21
170.096000
0
LINE
8
0
10
131.709000
20
170.096000
11
136.396000
21
176.321000
0
LINE
8
0
10
85.919600
20
87.746400
11
98.029043
21
87.935732
0
LINE
8
0
10
98.029043
20
87.935732
11
101.712769
21
88.140674
0
LINE
8
0
10
101.712769
20
88.140674
11
103.065700
21
88.390936
0
LINE
8
0
10
96.437900
20
261.190000
11
65.410000
21
261.433321
0
LINE
8
0
10
65.410000
20
261.433321
11
70.237880
21
251.802311
0
LINE
8
0
10
70.237880
20
251.802311
11
75.065750
21
242.171301
0
LINE
8
0
10
75.065750
20
242.171301
11
75.065800
21
172.691000
0
LINE
8
0
10
75.065800
20
172.691000
11
75.065800
21
103.211000
0
LINE
8
0
10
75.065800
20
103.211000
11
71.919640
21
95.478710
0
LINE
8
0
10
71.919640
20
95.478710
11
68.773470
21
87.746410
0
LINE
8
0
10
68.773470
20
87.746410
11
85.919600
21
87.746400
0
LINE
8
0
10
127.156000
20
240.139000
11
128.704174
21
238.869912
0
LINE
8
0
10
128.704174
20
238.869912
11
130.194709
21
237.312150
0
LINE
8
0
10
130.194709
20
237.312150
11
131.527757
21
235.581985
0
LINE
8
0
10
131.527757
20
235.581985
11
132.603470
21
233.795690
0
LINE
8
0
10
132.604000
20
233.796000
11
133.654251
21
231.496488
0
LINE
8
0
10
133.654251
20
231.496488
11
134.263038
21
229.271044
0
LINE
8
0
10
134.263038
20
229.271044
11
134.538482
21
226.509902
0
LINE
8
0
10
134.538482
20
226.509902
11
134.588710
21
222.603300
0
LINE
8
0
10
134.589000
20
222.603000
11
134.487449
21
219.601300
0
LINE
8
0
10
134.487449
20
219.601300
11
134.217337
21
216.615023
0
LINE
8
0
10
134.217337
20
216.615023
11
133.779702
21
213.646360
0
LINE
8
0
10
133.779702
20
213.646360
11
133.175580
21
210.697500
0
LINE
8
0
10
133.175580
20
210.697500
11
132.406008
21
207.770634
0
LINE
8
0
10
132.406008
20
207.770634
11
131.472021
21
204.867952
0
LINE
8
0
10
131.472021
20
204.867952
11
130.374656
21
201.991644
0
LINE
8
0
10
130.374656
20
201.991644
11
129.114951
21
199.143900
0
LINE
8
0
10
129.114951
20
199.143900
11
127.693940
21
196.326911
0
LINE
8
0
10
127.693940
20
196.326911
11
126.112662
21
193.542867
0
LINE
8
0
10
126.112662
20
193.542867
11
124.372151
21
190.793958
0
LINE
8
0
10
124.372151
20
190.793958
11
122.473446
21
188.082375
0
LINE
8
0
10
122.473446
20
188.082375
11
118.205595
21
182.779945
0
LINE
8
0
10
118.205595
20
182.779945
11
113.317400
21
177.653100
0
LINE
8
0
10
113.317000
20
177.653000
11
108.588020
21
173.298330
0
LINE
8
0
10
108.588020
20
173.298330
11
104.171449
21
169.626985
0
LINE
8
0
10
104.171449
20
169.626985
11
100.646903
21
167.091972
0
LINE
8
0
10
100.646903
20
167.091972
11
99.400270
21
166.392156
0
LINE
8
0
10
99.400270
20
166.392156
11
98.594000
21
166.146300
0
LINE
8
0
10
98.593900
20
166.146000
11
98.271169
21
166.462862
0
LINE
8
0
10
98.271169
20
166.462862
11
98.014637
21
167.575721
0
LINE
8
0
10
98.014637
20
167.575721
11
97.671608
21
173.163072
0
LINE
8
0
10
97.671608
20
173.163072
11
97.507686
21
184.855338
0
LINE
8
0
10
97.507686
20
184.855338
11
97.465740
21
204.599800
0
LINE
8
0
10
97.465800
20
204.600000
11
97.465800
21
243.054000
0
LINE
8
0
10
97.465800
20
243.054000
11
110.600100
21
242.800158
0
LINE
8
0
10
110.600100
20
242.800158
11
123.734400
21
242.546319
0
LINE
8
0
10
123.734400
20
242.546319
11
127.156330
21
240.138999
0
LINE
8
0
10
108.165000
20
177.739000
11
111.886289
21
181.196127
0
LINE
8
0
10
111.886289
20
181.196127
11
115.447145
21
185.054512
0
LINE
8
0
10
115.447145
20
185.054512
11
118.783501
21
189.215583
0
LINE
8
0
10
118.783501
20
189.215583
11
121.831288
21
193.580764
0
LINE
8
0
10
121.831288
20
193.580764
11
124.526438
21
198.051480
0
LINE
8
0
10
124.526438
20
198.051480
11
126.804886
21
202.529158
0
LINE
8
0
10
126.804886
20
202.529158
11
128.602562
21
206.915223
0
LINE
8
0
10
128.602562
20
206.915223
11
129.855400
21
211.111100
0
LINE
8
0
10
129.855000
20
211.111000
11
130.450453
21
214.108711
0
LINE
8
0
10
130.450453
20
214.108711
11
130.850617
21
217.166392
0
LINE
8
0
10
130.850617
20
217.166392
11
131.057547
21
220.209125
0
LINE
8
0
10
131.057547
20
220.209125
11
131.073301
21
223.161990
0
LINE
8
0
10
131.073301
20
223.161990
11
130.899936
21
225.950069
0
LINE
8
0
10
130.899936
20
225.950069
11
130.539507
21
228.498443
0
LINE
8
0
10
130.539507
20
228.498443
11
129.994073
21
230.732193
0
LINE
8
0
10
129.994073
20
230.732193
11
129.265689
21
232.576400
0
LINE
8
0
10
129.266000
20
232.577000
11
128.125486
21
234.536209
0
LINE
8
0
10
128.125486
20
234.536209
11
126.819328
21
236.123359
0
LINE
8
0
10
126.819328
20
236.123359
11
125.258100
21
237.372611
0
LINE
8
0
10
125.258100
20
237.372611
11
123.352375
21
238.318125
0
LINE
8
0
10
123.352375
20
238.318125
11
121.012729
21
238.994061
0
LINE
8
0
10
121.012729
20
238.994061
11
118.149734
21
239.434578
0
LINE
8
0
10
118.149734
20
239.434578
11
114.673967
21
239.673838
0
LINE
8
0
10
114.673967
20
239.673838
11
110.496000
21
239.746000
0
LINE
8
0
10
100.666000
20
205.648000
11
100.697933
21
186.694723
0
LINE
8
0
10
100.697933
20
186.694723
11
100.867820
21
176.622637
0
LINE
8
0
10
100.867820
20
176.622637
11
101.039227
21
174.098202
0
LINE
8
0
10
101.039227
20
174.098202
11
101.286798
21
172.811458
0
LINE
8
0
10
101.286798
20
172.811458
11
101.443486
21
172.529865
0
LINE
8
0
10
101.443486
20
172.529865
11
101.624425
21
172.434869
0
LINE
8
0
10
101.624425
20
172.434869
11
102.066000
21
172.640900
0
LINE
8
0
10
102.066000
20
172.641000
11
108.164850
21
177.738950
0
LINE
8
0
10
110.496000
20
239.746000
11
100.666000
21
239.746000
0
LINE
8
0
10
100.666000
20
239.746000
11
100.666000
21
205.648000
 0 
ENDSEC
 0 
EOF