  0
SECTION
  2
HEADER
  9
$ACADVER
  1
AC1014
  9
$HANDSEED
  5
FFFF
  9
$MEASUREMENT
 70
     1
  0
ENDSEC
  0
SECTION
  2
TABLES
  0
TABLE
  2
VPORT
  5
8
330
0
100
AcDbSymbolTable
 70
     4
  0
VPORT
  5
2E
330
8
100
AcDbSymbolTableRecord
100
AcDbViewportTableRecord
  2
*ACTIVE
 70
     0
 10
0.0
 20
0.0
 11
1.0
 21
1.0
 12
210.0
 22
148.5
 13
0.0
 23
0.0
 14
10.0
 24
10.0
 15
10.0
 25
10.0
 16
0.0
 26
0.0
 36
1.0
 17
0.0
 27
0.0
 37
0.0
 40
341.0
 41
1.24
 42
50.0
 43
0.0
 44
0.0
 50
0.0
 51
0.0
 71
     0
 72
   100
 73
     1
 74
     3
 75
     0
 76
     0
 77
     0
 78
     0
  0
ENDTAB
  0
TABLE
  2
LTYPE
  5
5
330
0
100
AcDbSymbolTable
 70
     1
  0
LTYPE
  5
14
330
5
100
AcDbSymbolTableRecord
100
AcDbLinetypeTableRecord
  2
BYBLOCK
 70
     0
  3

 72
    65
 73
     0
 40
0.0
  0
LTYPE
  5
15
330
5
100
AcDbSymbolTableRecord
100
AcDbLinetypeTableRecord
  2
BYLAYER
 70
     0
  3

 72
    65
 73
     0
 40
0.0
  0
LTYPE
  5
16
330
5
100
AcDbSymbolTableRecord
100
AcDbLinetypeTableRecord
  2
CONTINUOUS
 70
     0
  3
Solid line
 72
    65
 73
     0
 40
0.0
  0
ENDTAB
  0
TABLE
  2
LAYER
  5
2
100
AcDbSymbolTable
 70
2
  0
LAYER
  5
50
100
AcDbSymbolTableRecord
100
AcDbLayerTableRecord
  2
0
 70
0
  6
CONTINUOUS
  0
LAYER
  5
51
100
AcDbSymbolTableRecord
100
AcDbLayerTableRecord
  2
Layer_1
 70
0
  6
CONTINUOUS
  0
ENDTAB
  0
TABLE
  2
STYLE
  5
3
330
0
100
AcDbSymbolTable
 70
     1
  0
STYLE
  5
11
330
3
100
AcDbSymbolTableRecord
100
AcDbTextStyleTableRecord
  2
STANDARD
 70
     0
 40
0.0
 41
1.0
 50
0.0
 71
     0
 42
2.5
  3
txt
  4

  0
ENDTAB
  0
TABLE
  2
VIEW
  5
6
330
0
100
AcDbSymbolTable
 70
     0
  0
ENDTAB
  0
TABLE
  2
UCS
  5
7
330
0
100
AcDbSymbolTable
 70
     0
  0
ENDTAB
  0
TABLE
  2
APPID
  5
9
330
0
100
AcDbSymbolTable
 70
     2
  0
APPID
  5
12
330
9
100
AcDbSymbolTableRecord
100
AcDbRegAppTableRecord
  2
ACAD
 70
     0
  0
ENDTAB
  0
TABLE
  2
DIMSTYLE
  5
A
330
0
100
AcDbSymbolTable
 70
     1
  0
DIMSTYLE
105
27
330
A
100
AcDbSymbolTableRecord
100
AcDbDimStyleTableRecord
  2
ISO-25
 70
     0
  3

  4

  5

  6

  7

 40
1.0
 41
2.5
 42
0.625
 43
3.75
 44
1.25
 45
0.0
 46
0.0
 47
0.0
 48
0.0
140
2.5
141
2.5
142
0.0
143
0.03937007874016
144
1.0
145
0.0
146
1.0
147
0.625
 71
     0
 72
     0
 73
     0
 74
     0
 75
     0
 76
     0
 77
     1
 78
     8
170
     0
171
     3
172
     1
173
     0
174
     0
175
     0
176
     0
177
     0
178
     0
270
     2
271
     2
272
     2
273
     2
274
     3
340
11
275
     0
280
     0
281
     0
282
     0
283
     0
284
     8
285
     0
286
     0
287
     3
288
     0
  0
ENDTAB
  0
TABLE
  2
BLOCK_RECORD
  5
1
330
0
100
AcDbSymbolTable
 70
     1
  0
BLOCK_RECORD
  5
1F
330
1
100
AcDbSymbolTableRecord
100
AcDbBlockTableRecord
  2
*MODEL_SPACE
  0
BLOCK_RECORD
  5
1B
330
1
100
AcDbSymbolTableRecord
100
AcDbBlockTableRecord
  2
*PAPER_SPACE
  0
ENDTAB
  0
ENDSEC
  0
SECTION
  2
BLOCKS
  0
BLOCK
  5
20
330
1F
100
AcDbEntity
  8
0
100
AcDbBlockBegin
  2
*MODEL_SPACE
 70
     0
 10
0.0
 20
0.0
 30
0.0
  3
*MODEL_SPACE
  1

  0
ENDBLK
  5
21
330
1F
100
AcDbEntity
  8
0
100
AcDbBlockEnd
  0
BLOCK
  5
1C
330
1B
100
AcDbEntity
 67
     1
  8
0
100
AcDbBlockBegin
  2
*PAPER_SPACE
  1

  0
ENDBLK
  5
1D
330
1B
100
AcDbEntity
 67
     1
  8
0
100
AcDbBlockEnd
  0
ENDSEC
  0
SECTION
  2
ENTITIES
  0
LWPOLYLINE
  5
100
100
AcDbEntity
  8
Layer_1
 62
7
100
AcDbPolyline
 90
8
 70
1
 10
14.751989
 20
296.622956
 30
0.0
 10
14.751989
 20
337.096684
 30
0.0
 10
55.225697
 20
337.096684
 30
0.0
 10
95.699408
 20
337.096684
 30
0.0
 10
95.699408
 20
296.622956
 30
0.0
 10
95.699408
 20
256.149266
 30
0.0
 10
55.225697
 20
256.149266
 30
0.0
 10
14.751989
 20
256.149266
 30
0.0
  0
LWPOLYLINE
  5
101
100
AcDbEntity
  8
Layer_1
 62
7
100
AcDbPolyline
 90
8
 70
1
 10
84.610733
 20
296.622956
 30
0.0
 10
84.610733
 20
326.008016
 30
0.0
 10
55.225697
 20
326.008016
 30
0.0
 10
25.840664
 20
326.008016
 30
0.0
 10
25.840664
 20
296.622956
 30
0.0
 10
25.840664
 20
267.237934
 30
0.0
 10
55.225697
 20
267.237934
 30
0.0
 10
84.610733
 20
267.237934
 30
0.0
  0
LWPOLYLINE
  5
102
100
AcDbEntity
  8
Layer_1
 62
7
100
AcDbPolyline
 90
8
 70
1
 10
38.038238
 20
296.622956
 30
0.0
 10
38.038238
 20
313.810421
 30
0.0
 10
55.225697
 20
313.810421
 30
0.0
 10
72.413156
 20
313.810421
 30
0.0
 10
72.413156
 20
296.622956
 30
0.0
 10
72.413156
 20
279.435491
 30
0.0
 10
55.225697
 20
279.435491
 30
0.0
 10
38.038238
 20
279.435491
 30
0.0
  0
LWPOLYLINE
  5
103
100
AcDbEntity
  8
Layer_1
 62
7
100
AcDbPolyline
 90
1616
 70
1
 10
107.896980
 20
273.336731
 30
0.0
 10
107.896980
 20
290.524196
 30
0.0
 10
113.441295
 20
290.524196
 30
0.0
 10
118.985655
 20
290.524196
 30
0.0
 10
118.985655
 20
296.622956
 30
0.0
 10
118.985655
 20
302.721754
 30
0.0
 10
113.441295
 20
302.721754
 30
0.0
 10
107.896980
 20
302.721754
 30
0.0
 10
107.896980
 20
331.552354
 30
0.0
 10
107.896980
 20
360.382916
 30
0.0
 10
101.798190
 20
360.382916
 30
0.0
 10
95.699408
 20
360.382916
 30
0.0
 10
95.699408
 20
354.838616
 30
0.0
 10
95.699408
 20
349.294249
 30
0.0
 10
90.155047
 20
349.294249
 30
0.0
 10
84.610732
 20
349.294249
 30
0.0
 10
84.610732
 20
354.838616
 30
0.0
 10
84.610732
 20
360.382916
 30
0.0
 10
90.155047
 20
360.382916
 30
0.0
 10
95.699408
 20
360.382916
 30
0.0
 10
95.699408
 20
366.481714
 30
0.0
 10
95.699408
 20
372.580511
 30
0.0
 10
84.056303
 20
372.580511
 30
0.0
 10
72.413155
 20
372.580511
 30
0.0
 10
72.413155
 20
378.124841
 30
0.0
 10
72.413155
 20
383.669179
 30
0.0
 10
84.056303
 20
383.669179
 30
0.0
 10
95.699408
 20
383.669179
 30
0.0
 10
95.699408
 20
389.767976
 30
0.0
 10
95.699408
 20
395.866736
 30
0.0
 10
84.056303
 20
395.866736
 30
0.0
 10
72.413155
 20
395.866736
 30
0.0
 10
72.413155
 20
401.411111
 30
0.0
 10
72.413155
 20
406.955441
 30
0.0
 10
107.342550
 20
406.955441
 30
0.0
 10
142.271903
 20
406.955441
 30
0.0
 10
142.271903
 20
418.598576
 30
0.0
 10
142.271903
 20
430.241666
 30
0.0
 10
160.013798
 20
430.241666
 30
0.0
 10
177.755715
 20
430.241666
 30
0.0
 10
177.755715
 20
441.884839
 30
0.0
 10
177.755715
 20
453.527929
 30
0.0
 10
166.112580
 20
453.527929
 30
0.0
 10
154.469475
 20
453.527929
 30
0.0
 10
154.469475
 20
447.983606
 30
0.0
 10
154.469475
 20
442.439269
 30
0.0
 10
142.826333
 20
442.439269
 30
0.0
 10
131.183228
 20
442.439269
 30
0.0
 10
131.183228
 20
447.983606
 30
0.0
 10
131.183228
 20
453.527929
 30
0.0
 10
142.826333
 20
453.527929
 30
0.0
 10
154.469475
 20
453.527929
 30
0.0
 10
154.469475
 20
459.626711
 30
0.0
 10
154.469475
 20
465.725501
 30
0.0
 10
148.370693
 20
465.725501
 30
0.0
 10
142.271903
 20
465.725501
 30
0.0
 10
142.271903
 20
471.269854
 30
0.0
 10
142.271903
 20
476.814176
 30
0.0
 10
148.370693
 20
476.814176
 30
0.0
 10
154.469475
 20
476.814176
 30
0.0
 10
154.469475
 20
471.269854
 30
0.0
 10
154.469475
 20
465.725501
 30
0.0
 10
166.112580
 20
465.725501
 30
0.0
 10
177.755715
 20
465.725501
 30
0.0
 10
177.755715
 20
471.269854
 30
0.0
 10
177.755715
 20
476.814176
 30
0.0
 10
183.261270
 20
476.814176
 30
0.0
 10
188.766818
 20
476.814176
 30
0.0
 10
189.082815
 20
465.448309
 30
0.0
 10
189.398813
 20
454.082396
 30
0.0
 10
195.220380
 20
453.747116
 30
0.0
 10
201.041940
 20
453.411836
 30
0.0
 10
201.041940
 20
459.568579
 30
0.0
 10
201.041940
 20
465.725291
 30
0.0
 10
206.586285
 20
465.725291
 30
0.0
 10
212.130630
 20
465.725291
 30
0.0
 10
212.130630
 20
459.626501
 30
0.0
 10
212.130630
 20
453.527711
 30
0.0
 10
206.547495
 20
453.527711
 30
0.0
 10
200.964353
 20
453.527711
 30
0.0
 10
201.280358
 20
442.161836
 30
0.0
 10
201.596355
 20
430.795939
 30
0.0
 10
212.962268
 20
430.479941
 30
0.0
 10
224.328173
 20
430.163944
 30
0.0
 10
224.328173
 20
453.488989
 30
0.0
 10
224.328173
 20
476.814004
 30
0.0
 10
229.833728
 20
476.814004
 30
0.0
 10
235.339275
 20
476.814004
 30
0.0
 10
235.655280
 20
465.448136
 30
0.0
 10
235.971278
 20
454.082224
 30
0.0
 10
241.792838
 20
453.746944
 30
0.0
 10
247.614405
 20
453.411664
 30
0.0
 10
247.614405
 20
459.568414
 30
0.0
 10
247.614405
 20
465.725119
 30
0.0
 10
253.158743
 20
465.725119
 30
0.0
 10
258.703095
 20
465.725119
 30
0.0
 10
258.703095
 20
471.269479
 30
0.0
 10
258.703095
 20
476.813794
 30
0.0
 10
253.158743
 20
476.813794
 30
0.0
 10
247.614405
 20
476.813794
 30
0.0
 10
247.614405
 20
488.456936
 30
0.0
 10
247.614405
 20
500.100086
 30
0.0
 10
241.515623
 20
500.100086
 30
0.0
 10
235.416840
 20
500.100086
 30
0.0
 10
235.416840
 20
494.555726
 30
0.0
 10
235.416840
 20
489.011366
 30
0.0
 10
229.872495
 20
489.011366
 30
0.0
 10
224.328158
 20
489.011366
 30
0.0
 10
224.328158
 20
494.555726
 30
0.0
 10
224.328158
 20
500.100086
 30
0.0
 10
229.872495
 20
500.100086
 30
0.0
 10
235.416840
 20
500.100086
 30
0.0
 10
235.416840
 20
506.198831
 30
0.0
 10
235.416840
 20
512.297621
 30
0.0
 10
229.872495
 20
512.297621
 30
0.0
 10
224.328158
 20
512.297621
 30
0.0
 10
224.328158
 20
529.485079
 30
0.0
 10
224.328158
 20
546.672589
 30
0.0
 10
218.229375
 20
546.672589
 30
0.0
 10
212.130593
 20
546.672589
 30
0.0
 10
212.130593
 20
552.771334
 30
0.0
 10
212.130593
 20
558.870116
 30
0.0
 10
207.259320
 20
558.870116
 30
0.0
 10
202.388048
 20
558.870116
 30
0.0
 10
201.714975
 20
557.116144
 30
0.0
 10
201.041903
 20
555.362119
 30
0.0
 10
201.041903
 20
539.374211
 30
0.0
 10
201.041903
 20
523.386334
 30
0.0
 10
206.586248
 20
523.386334
 30
0.0
 10
212.130593
 20
523.386334
 30
0.0
 10
212.130593
 20
500.100086
 30
0.0
 10
212.130593
 20
476.813794
 30
0.0
 10
206.586248
 20
476.813794
 30
0.0
 10
201.041903
 20
476.813794
 30
0.0
 10
201.041903
 20
488.456936
 30
0.0
 10
201.041903
 20
500.100086
 30
0.0
 10
194.943120
 20
500.100086
 30
0.0
 10
188.844345
 20
500.100086
 30
0.0
 10
188.844345
 20
494.555726
 30
0.0
 10
188.844345
 20
489.011366
 30
0.0
 10
183.300000
 20
489.011366
 30
0.0
 10
177.755655
 20
489.011366
 30
0.0
 10
177.755655
 20
494.555726
 30
0.0
 10
177.755655
 20
500.100086
 30
0.0
 10
183.300000
 20
500.100086
 30
0.0
 10
188.844345
 20
500.100086
 30
0.0
 10
188.844345
 20
506.198831
 30
0.0
 10
188.844345
 20
512.297621
 30
0.0
 10
183.300000
 20
512.297621
 30
0.0
 10
177.755655
 20
512.297621
 30
0.0
 10
177.755655
 20
529.485079
 30
0.0
 10
177.755655
 20
546.672589
 30
0.0
 10
183.300000
 20
546.672589
 30
0.0
 10
188.844345
 20
546.672589
 30
0.0
 10
188.844345
 20
570.019564
 30
0.0
 10
188.844345
 20
593.366576
 30
0.0
 10
183.577215
 20
593.028784
 30
0.0
 10
178.310085
 20
592.690991
 30
0.0
 10
177.994087
 20
581.325124
 30
0.0
 10
177.678083
 20
569.959211
 30
0.0
 10
171.618105
 20
569.959211
 30
0.0
 10
165.558112
 20
569.959211
 30
0.0
 10
165.558112
 20
581.602316
 30
0.0
 10
165.558112
 20
593.245459
 30
0.0
 10
160.013752
 20
593.245459
 30
0.0
 10
154.469437
 20
593.245459
 30
0.0
 10
154.469437
 20
587.701099
 30
0.0
 10
154.469437
 20
582.156739
 30
0.0
 10
148.312687
 20
582.156739
 30
0.0
 10
142.155982
 20
582.156739
 30
0.0
 10
142.491262
 20
576.335194
 30
0.0
 10
142.826542
 20
570.513641
 30
0.0
 10
148.648095
 20
570.178354
 30
0.0
 10
154.469685
 20
569.843081
 30
0.0
 10
154.469685
 20
564.356681
 30
0.0
 10
154.469685
 20
558.870289
 30
0.0
 10
160.014000
 20
558.870289
 30
0.0
 10
165.558367
 20
558.870289
 30
0.0
 10
165.558367
 20
552.771499
 30
0.0
 10
165.558367
 20
546.672754
 30
0.0
 10
160.014000
 20
546.672754
 30
0.0
 10
154.469685
 20
546.672754
 30
0.0
 10
154.469685
 20
541.128394
 30
0.0
 10
154.469685
 20
535.584034
 30
0.0
 10
160.014000
 20
535.584034
 30
0.0
 10
165.558367
 20
535.584034
 30
0.0
 10
165.558367
 20
523.940929
 30
0.0
 10
165.558367
 20
512.297786
 30
0.0
 10
149.043975
 20
512.297786
 30
0.0
 10
132.529590
 20
512.297786
 30
0.0
 10
131.856517
 20
510.543806
 30
0.0
 10
131.183438
 20
508.789796
 30
0.0
 10
131.183438
 20
504.445024
 30
0.0
 10
131.183438
 20
500.100259
 30
0.0
 10
136.727760
 20
500.100259
 30
0.0
 10
142.272113
 20
500.100259
 30
0.0
 10
142.272113
 20
494.555891
 30
0.0
 10
142.272113
 20
489.011539
 30
0.0
 10
137.400833
 20
489.011539
 30
0.0
 10
132.529590
 20
489.011539
 30
0.0
 10
131.856517
 20
487.257559
 30
0.0
 10
131.183438
 20
485.503541
 30
0.0
 10
131.183438
 20
475.614416
 30
0.0
 10
131.183438
 20
465.725291
 30
0.0
 10
126.668723
 20
465.725291
 30
0.0
 10
122.154053
 20
465.725291
 30
0.0
 10
120.569985
 20
464.141216
 30
0.0
 10
118.985865
 20
462.557104
 30
0.0
 10
118.985865
 20
458.042426
 30
0.0
 10
118.985865
 20
453.527711
 30
0.0
 10
113.441505
 20
453.527711
 30
0.0
 10
107.897190
 20
453.527711
 30
0.0
 10
107.897190
 20
447.983396
 30
0.0
 10
107.897190
 20
442.439029
 30
0.0
 10
113.441505
 20
442.439029
 30
0.0
 10
118.985865
 20
442.439029
 30
0.0
 10
118.985865
 20
430.795939
 30
0.0
 10
118.985865
 20
419.152804
 30
0.0
 10
101.798400
 20
419.152804
 30
0.0
 10
84.610942
 20
419.152804
 30
0.0
 10
84.610942
 20
424.697141
 30
0.0
 10
84.610942
 20
430.241471
 30
0.0
 10
78.512152
 20
430.241471
 30
0.0
 10
72.413367
 20
430.241471
 30
0.0
 10
72.413367
 20
424.697141
 30
0.0
 10
72.413367
 20
419.152804
 30
0.0
 10
62.354336
 20
419.152804
 30
0.0
 10
52.295308
 20
419.152804
 30
0.0
 10
50.643591
 20
417.501071
 30
0.0
 10
48.991873
 20
415.849369
 30
0.0
 10
49.336796
 20
411.679541
 30
0.0
 10
49.681715
 20
407.509676
 30
0.0
 10
55.503266
 20
407.174389
 30
0.0
 10
61.324859
 20
406.839146
 30
0.0
 10
61.324859
 20
401.352746
 30
0.0
 10
61.324859
 20
395.866346
 30
0.0
 10
50.354787
 20
395.866346
 30
0.0
 10
39.384764
 20
395.866346
 30
0.0
 10
38.711689
 20
394.112351
 30
0.0
 10
38.038615
 20
392.358319
 30
0.0
 10
38.038615
 20
382.469216
 30
0.0
 10
38.038615
 20
372.580076
 30
0.0
 10
49.681715
 20
372.580076
 30
0.0
 10
61.324859
 20
372.580076
 30
0.0
 10
61.324859
 20
366.481279
 30
0.0
 10
61.324859
 20
360.382519
 30
0.0
 10
56.980049
 20
360.382519
 30
0.0
 10
52.635278
 20
360.382519
 30
0.0
 10
50.881262
 20
359.709446
 30
0.0
 10
49.127286
 20
359.036381
 30
0.0
 10
49.127286
 20
354.165116
 30
0.0
 10
49.127286
 20
349.293814
 30
0.0
 10
31.939828
 20
349.293814
 30
0.0
 10
14.752366
 20
349.293814
 30
0.0
 10
14.752366
 20
354.838189
 30
0.0
 10
14.752366
 20
360.382519
 30
0.0
 10
20.296683
 20
360.382519
 30
0.0
 10
25.841041
 20
360.382519
 30
0.0
 10
25.841041
 20
383.668744
 30
0.0
 10
25.841041
 20
406.955014
 30
0.0
 10
20.296683
 20
406.955014
 30
0.0
 10
14.752366
 20
406.955014
 30
0.0
 10
14.752366
 20
418.598141
 30
0.0
 10
14.752366
 20
430.241239
 30
0.0
 10
20.296683
 20
430.241239
 30
0.0
 10
25.841041
 20
430.241239
 30
0.0
 10
25.841041
 20
436.340036
 30
0.0
 10
25.841041
 20
442.438834
 30
0.0
 10
20.296683
 20
442.438834
 30
0.0
 10
14.752366
 20
442.438834
 30
0.0
 10
14.752366
 20
459.626291
 30
0.0
 10
14.752366
 20
476.813756
 30
0.0
 10
20.296683
 20
476.813756
 30
0.0
 10
25.841041
 20
476.813756
 30
0.0
 10
25.841041
 20
482.912546
 30
0.0
 10
25.841041
 20
489.011329
 30
0.0
 10
20.296683
 20
489.011329
 30
0.0
 10
14.752366
 20
489.011329
 30
0.0
 10
14.752366
 20
494.555689
 30
0.0
 10
14.752366
 20
500.100041
 30
0.0
 10
20.296683
 20
500.100041
 30
0.0
 10
25.841041
 20
500.100041
 30
0.0
 10
25.841041
 20
506.198794
 30
0.0
 10
25.841041
 20
512.297576
 30
0.0
 10
31.939828
 20
512.297576
 30
0.0
 10
38.038615
 20
512.297576
 30
0.0
 10
38.038615
 20
517.841936
 30
0.0
 10
38.038615
 20
523.386296
 30
0.0
 10
31.939828
 20
523.386296
 30
0.0
 10
25.841042
 20
523.386296
 30
0.0
 10
25.841042
 20
529.485041
 30
0.0
 10
25.841042
 20
535.583824
 30
0.0
 10
43.621741
 20
535.583824
 30
0.0
 10
61.402436
 20
535.583824
 30
0.0
 10
61.086433
 20
546.949736
 30
0.0
 10
60.770434
 20
558.315649
 30
0.0
 10
54.948840
 20
558.650929
 30
0.0
 10
49.127286
 20
558.986201
 30
0.0
 10
49.127286
 20
564.472601
 30
0.0
 10
49.127286
 20
569.959001
 30
0.0
 10
43.582931
 20
569.959001
 30
0.0
 10
38.038615
 20
569.959001
 30
0.0
 10
38.038615
 20
576.057746
 30
0.0
 10
38.038615
 20
582.156536
 30
0.0
 10
26.395470
 20
582.156536
 30
0.0
 10
14.752366
 20
582.156536
 30
0.0
 10
14.752366
 20
587.700889
 30
0.0
 10
14.752366
 20
593.245249
 30
0.0
 10
26.395470
 20
593.245249
 30
0.0
 10
38.038615
 20
593.245249
 30
0.0
 10
38.038615
 20
587.700889
 30
0.0
 10
38.038615
 20
582.156536
 30
0.0
 10
49.681715
 20
582.156536
 30
0.0
 10
61.324859
 20
582.156536
 30
0.0
 10
61.324859
 20
576.057746
 30
0.0
 10
61.324859
 20
569.959001
 30
0.0
 10
66.869178
 20
569.959001
 30
0.0
 10
72.413535
 20
569.959001
 30
0.0
 10
72.413535
 20
587.700889
 30
0.0
 10
72.413535
 20
605.442776
 30
0.0
 10
66.869178
 20
605.442776
 30
0.0
 10
61.324859
 20
605.442776
 30
0.0
 10
61.324859
 20
599.343994
 30
0.0
 10
61.324859
 20
593.245249
 30
0.0
 10
55.226073
 20
593.245249
 30
0.0
 10
49.127286
 20
593.245249
 30
0.0
 10
49.127286
 20
599.343994
 30
0.0
 10
49.127286
 20
605.442776
 30
0.0
 10
55.226073
 20
605.442776
 30
0.0
 10
61.324859
 20
605.442776
 30
0.0
 10
61.324859
 20
610.987144
 30
0.0
 10
61.324859
 20
616.531496
 30
0.0
 10
55.226073
 20
616.531496
 30
0.0
 10
49.127286
 20
616.531496
 30
0.0
 10
49.127286
 20
622.630241
 30
0.0
 10
49.127286
 20
628.729031
 30
0.0
 10
43.621741
 20
628.729031
 30
0.0
 10
38.116190
 20
628.729031
 30
0.0
 10
37.800189
 20
640.094944
 30
0.0
 10
37.484188
 20
651.460856
 30
0.0
 10
33.314309
 20
651.805774
 30
0.0
 10
29.144473
 20
652.150691
 30
0.0
 10
27.492758
 20
650.498936
 30
0.0
 10
25.841042
 20
648.847219
 30
0.0
 10
25.841042
 20
638.788189
 30
0.0
 10
25.841042
 20
628.729151
 30
0.0
 10
20.296683
 20
628.729151
 30
0.0
 10
14.752366
 20
628.729151
 30
0.0
 10
14.752366
 20
652.015406
 30
0.0
 10
14.752366
 20
675.301654
 30
0.0
 10
26.395470
 20
675.301654
 30
0.0
 10
38.038615
 20
675.301654
 30
0.0
 10
38.038615
 20
680.846014
 30
0.0
 10
38.038615
 20
686.390374
 30
0.0
 10
31.939828
 20
686.390374
 30
0.0
 10
25.841042
 20
686.390374
 30
0.0
 10
25.841042
 20
698.033479
 30
0.0
 10
25.841042
 20
709.676621
 30
0.0
 10
20.296683
 20
709.676621
 30
0.0
 10
14.752366
 20
709.676621
 30
0.0
 10
14.752366
 20
721.319741
 30
0.0
 10
14.752366
 20
732.962884
 30
0.0
 10
31.939828
 20
732.962884
 30
0.0
 10
49.127286
 20
732.962884
 30
0.0
 10
49.127286
 20
727.418524
 30
0.0
 10
49.127286
 20
721.874164
 30
0.0
 10
44.256002
 20
721.874164
 30
0.0
 10
39.384764
 20
721.874164
 30
0.0
 10
38.711690
 20
720.120191
 30
0.0
 10
38.038615
 20
718.366211
 30
0.0
 10
38.038615
 20
714.021401
 30
0.0
 10
38.038615
 20
709.676621
 30
0.0
 10
43.582931
 20
709.676621
 30
0.0
 10
49.127286
 20
709.676621
 30
0.0
 10
49.127286
 20
698.033479
 30
0.0
 10
49.127286
 20
686.390374
 30
0.0
 10
55.226073
 20
686.390374
 30
0.0
 10
61.324859
 20
686.390374
 30
0.0
 10
61.324859
 20
680.846014
 30
0.0
 10
61.324859
 20
675.301654
 30
0.0
 10
66.869178
 20
675.301654
 30
0.0
 10
72.413535
 20
675.301654
 30
0.0
 10
72.413535
 20
686.944804
 30
0.0
 10
72.413535
 20
698.587901
 30
0.0
 10
66.869178
 20
698.587901
 30
0.0
 10
61.324859
 20
698.587901
 30
0.0
 10
61.324859
 20
704.132261
 30
0.0
 10
61.324859
 20
709.676621
 30
0.0
 10
78.512325
 20
709.676621
 30
0.0
 10
95.699782
 20
709.676621
 30
0.0
 10
95.699782
 20
715.775419
 30
0.0
 10
95.699782
 20
721.874164
 30
0.0
 10
78.512325
 20
721.874164
 30
0.0
 10
61.324859
 20
721.874164
 30
0.0
 10
61.324859
 20
727.418524
 30
0.0
 10
61.324859
 20
732.962884
 30
0.0
 10
84.611108
 20
732.962884
 30
0.0
 10
107.897355
 20
732.962884
 30
0.0
 10
107.897355
 20
744.605989
 30
0.0
 10
107.897355
 20
756.249131
 30
0.0
 10
113.441670
 20
756.249131
 30
0.0
 10
118.986030
 20
756.249131
 30
0.0
 10
118.986030
 20
739.061666
 30
0.0
 10
118.986030
 20
721.874164
 30
0.0
 10
130.629180
 20
721.874164
 30
0.0
 10
142.272285
 20
721.874164
 30
0.0
 10
142.272285
 20
727.418524
 30
0.0
 10
142.272285
 20
732.962884
 30
0.0
 10
136.756088
 20
732.962884
 30
0.0
 10
131.239890
 20
732.962884
 30
0.0
 10
130.934370
 20
750.427579
 30
0.0
 10
130.628843
 20
767.892252
 30
0.0
 10
124.807253
 20
768.227407
 30
0.0
 10
118.985700
 20
768.562562
 30
0.0
 10
118.985700
 20
780.147737
 30
0.0
 10
118.985700
 20
791.732912
 30
0.0
 10
113.441340
 20
791.732912
 30
0.0
 10
107.897025
 20
791.732912
 30
0.0
 10
107.897025
 20
797.277259
 30
0.0
 10
107.897025
 20
802.821604
 30
0.0
 10
119.540130
 20
802.821604
 30
0.0
 10
131.183273
 20
802.821604
 30
0.0
 10
131.183273
 20
797.277259
 30
0.0
 10
131.183273
 20
791.732912
 30
0.0
 10
148.370730
 20
791.732912
 30
0.0
 10
165.558195
 20
791.732912
 30
0.0
 10
165.558195
 20
785.694891
 30
0.0
 10
165.558195
 20
779.656863
 30
0.0
 10
160.291072
 20
779.318903
 30
0.0
 10
155.023950
 20
778.980939
 30
0.0
 10
154.686158
 20
773.713811
 30
0.0
 10
154.347938
 20
768.446686
 30
0.0
 10
149.894040
 20
768.446686
 30
0.0
 10
145.440098
 20
768.446686
 30
0.0
 10
143.856022
 20
766.862584
 30
0.0
 10
142.271903
 20
765.278486
 30
0.0
 10
142.271903
 20
749.120704
 30
0.0
 10
142.271903
 20
732.962884
 30
0.0
 10
148.370693
 20
732.962884
 30
0.0
 10
154.469475
 20
732.962884
 30
0.0
 10
154.469475
 20
744.605989
 30
0.0
 10
154.469475
 20
756.249131
 30
0.0
 10
160.013798
 20
756.249131
 30
0.0
 10
165.558150
 20
756.249131
 30
0.0
 10
165.558150
 20
762.347899
 30
0.0
 10
165.558150
 20
768.446686
 30
0.0
 10
171.656933
 20
768.446686
 30
0.0
 10
177.755715
 20
768.446686
 30
0.0
 10
177.755715
 20
780.089896
 30
0.0
 10
177.755715
 20
791.733021
 30
0.0
 10
183.300060
 20
791.733021
 30
0.0
 10
188.844405
 20
791.733021
 30
0.0
 10
188.844405
 20
780.089896
 30
0.0
 10
188.844405
 20
768.446771
 30
0.0
 10
183.300060
 20
768.446771
 30
0.0
 10
177.755715
 20
768.446771
 30
0.0
 10
177.755715
 20
762.347989
 30
0.0
 10
177.755715
 20
756.249214
 30
0.0
 10
183.300060
 20
756.249214
 30
0.0
 10
188.844405
 20
756.249214
 30
0.0
 10
188.844405
 20
750.704854
 30
0.0
 10
188.844405
 20
745.160539
 30
0.0
 10
194.943180
 20
745.160539
 30
0.0
 10
201.041963
 20
745.160539
 30
0.0
 10
201.041963
 20
750.704854
 30
0.0
 10
201.041963
 20
756.249214
 30
0.0
 10
206.586307
 20
756.249214
 30
0.0
 10
212.130652
 20
756.249214
 30
0.0
 10
212.130652
 20
750.704854
 30
0.0
 10
212.130652
 20
745.160539
 30
0.0
 10
206.586307
 20
745.160539
 30
0.0
 10
201.041962
 20
745.160539
 30
0.0
 10
201.041962
 20
739.061756
 30
0.0
 10
201.041962
 20
732.962966
 30
0.0
 10
206.586307
 20
732.962966
 30
0.0
 10
212.130652
 20
732.962966
 30
0.0
 10
212.130652
 20
727.418606
 30
0.0
 10
212.130652
 20
721.874246
 30
0.0
 10
206.586307
 20
721.874246
 30
0.0
 10
201.041962
 20
721.874246
 30
0.0
 10
201.041962
 20
727.418606
 30
0.0
 10
201.041962
 20
732.962966
 30
0.0
 10
196.697182
 20
732.962966
 30
0.0
 10
192.352387
 20
732.962966
 30
0.0
 10
190.598400
 20
732.289894
 30
0.0
 10
188.844405
 20
731.616814
 30
0.0
 10
188.844405
 20
715.102429
 30
0.0
 10
188.844405
 20
698.587991
 30
0.0
 10
194.943180
 20
698.587991
 30
0.0
 10
201.041962
 20
698.587991
 30
0.0
 10
201.041962
 20
692.489239
 30
0.0
 10
201.041962
 20
686.390456
 30
0.0
 10
206.586307
 20
686.390456
 30
0.0
 10
212.130652
 20
686.390456
 30
0.0
 10
212.130652
 20
674.747306
 30
0.0
 10
212.130652
 20
663.104209
 30
0.0
 10
206.586307
 20
663.104209
 30
0.0
 10
201.041962
 20
663.104209
 30
0.0
 10
201.041962
 20
674.747306
 30
0.0
 10
201.041962
 20
686.390456
 30
0.0
 10
194.943180
 20
686.390456
 30
0.0
 10
188.844405
 20
686.390456
 30
0.0
 10
188.844405
 20
680.846096
 30
0.0
 10
188.844405
 20
675.301736
 30
0.0
 10
183.300060
 20
675.301736
 30
0.0
 10
177.755715
 20
675.301736
 30
0.0
 10
177.755715
 20
680.846096
 30
0.0
 10
177.755715
 20
686.390456
 30
0.0
 10
183.300060
 20
686.390456
 30
0.0
 10
188.844405
 20
686.390456
 30
0.0
 10
188.844405
 20
692.489239
 30
0.0
 10
188.844405
 20
698.587991
 30
0.0
 10
183.300060
 20
698.587991
 30
0.0
 10
177.755715
 20
698.587991
 30
0.0
 10
177.755715
 20
715.775509
 30
0.0
 10
177.755715
 20
732.962966
 30
0.0
 10
166.112580
 20
732.962966
 30
0.0
 10
154.469475
 20
732.962966
 30
0.0
 10
154.469475
 20
727.418606
 30
0.0
 10
154.469475
 20
721.874246
 30
0.0
 10
160.013798
 20
721.874246
 30
0.0
 10
165.558150
 20
721.874246
 30
0.0
 10
165.558150
 20
698.587991
 30
0.0
 10
165.558150
 20
675.301736
 30
0.0
 10
160.052603
 20
675.301736
 30
0.0
 10
154.547055
 20
675.301736
 30
0.0
 10
154.231050
 20
686.667649
 30
0.0
 10
153.915053
 20
698.033561
 30
0.0
 10
148.093455
 20
698.368841
 30
0.0
 10
142.271902
 20
698.704121
 30
0.0
 10
142.271902
 20
704.190521
 30
0.0
 10
142.271902
 20
709.676914
 30
0.0
 10
130.628805
 20
709.676914
 30
0.0
 10
118.985655
 20
709.676914
 30
0.0
 10
118.985655
 20
715.775711
 30
0.0
 10
118.985655
 20
721.874456
 30
0.0
 10
114.114375
 20
721.874456
 30
0.0
 10
109.243133
 20
721.874456
 30
0.0
 10
108.570053
 20
720.120484
 30
0.0
 10
107.896980
 20
718.366504
 30
0.0
 10
107.896980
 20
708.477326
 30
0.0
 10
107.896980
 20
698.588194
 30
0.0
 10
96.926910
 20
698.588194
 30
0.0
 10
85.956878
 20
698.588194
 30
0.0
 10
85.283805
 20
696.834221
 30
0.0
 10
84.610733
 20
695.080249
 30
0.0
 10
84.610733
 20
690.735431
 30
0.0
 10
84.610733
 20
686.390666
 30
0.0
 10
96.253838
 20
686.390666
 30
0.0
 10
107.896980
 20
686.390666
 30
0.0
 10
107.896980
 20
674.747524
 30
0.0
 10
107.896980
 20
663.104419
 30
0.0
 10
113.441295
 20
663.104419
 30
0.0
 10
118.985655
 20
663.104419
 30
0.0
 10
118.985655
 20
669.203201
 30
0.0
 10
118.985655
 20
675.301946
 30
0.0
 10
125.084437
 20
675.301946
 30
0.0
 10
131.183227
 20
675.301946
 30
0.0
 10
131.183227
 20
680.846306
 30
0.0
 10
131.183227
 20
686.390666
 30
0.0
 10
136.727542
 20
686.390666
 30
0.0
 10
142.271902
 20
686.390666
 30
0.0
 10
142.271902
 20
674.747524
 30
0.0
 10
142.271902
 20
663.104419
 30
0.0
 10
130.628805
 20
663.104419
 30
0.0
 10
118.985655
 20
663.104419
 30
0.0
 10
118.985655
 20
651.461269
 30
0.0
 10
118.985655
 20
639.818164
 30
0.0
 10
130.628805
 20
639.818164
 30
0.0
 10
142.271903
 20
639.818164
 30
0.0
 10
142.271903
 20
645.916954
 30
0.0
 10
142.271903
 20
652.015699
 30
0.0
 10
148.370693
 20
652.015699
 30
0.0
 10
154.469475
 20
652.015699
 30
0.0
 10
154.469475
 20
657.560059
 30
0.0
 10
154.469475
 20
663.104419
 30
0.0
 10
171.656933
 20
663.104419
 30
0.0
 10
188.844405
 20
663.104419
 30
0.0
 10
188.844405
 20
657.560059
 30
0.0
 10
188.844405
 20
652.015699
 30
0.0
 10
171.656933
 20
652.015699
 30
0.0
 10
154.469475
 20
652.015699
 30
0.0
 10
154.469475
 20
645.916954
 30
0.0
 10
154.469475
 20
639.818164
 30
0.0
 10
160.013798
 20
639.818164
 30
0.0
 10
165.558150
 20
639.818164
 30
0.0
 10
165.558150
 20
634.273811
 30
0.0
 10
165.558150
 20
628.729451
 30
0.0
 10
160.589385
 20
628.729451
 30
0.0
 10
155.620583
 20
628.729451
 30
0.0
 10
154.958445
 20
626.091259
 30
0.0
 10
154.296308
 20
623.453104
 30
0.0
 10
154.660088
 20
620.269706
 30
0.0
 10
155.023860
 20
617.086346
 30
0.0
 10
166.389773
 20
616.770341
 30
0.0
 10
177.755670
 20
616.454344
 30
0.0
 10
177.755670
 20
628.136299
 30
0.0
 10
177.755670
 20
639.818209
 30
0.0
 10
189.398798
 20
639.818209
 30
0.0
 10
201.041918
 20
639.818209
 30
0.0
 10
201.041918
 20
645.916999
 30
0.0
 10
201.041918
 20
652.015744
 30
0.0
 10
206.586263
 20
652.015744
 30
0.0
 10
212.130608
 20
652.015744
 30
0.0
 10
212.130608
 20
645.916999
 30
0.0
 10
212.130608
 20
639.818209
 30
0.0
 10
206.586263
 20
639.818209
 30
0.0
 10
201.041917
 20
639.818209
 30
0.0
 10
201.041917
 20
628.175066
 30
0.0
 10
201.041917
 20
616.531961
 30
0.0
 10
212.685045
 20
616.531961
 30
0.0
 10
224.328173
 20
616.531961
 30
0.0
 10
224.328173
 20
639.818209
 30
0.0
 10
224.328173
 20
663.104456
 30
0.0
 10
229.833728
 20
663.104456
 30
0.0
 10
235.339268
 20
663.104456
 30
0.0
 10
235.655272
 20
651.738544
 30
0.0
 10
235.971277
 20
640.372639
 30
0.0
 10
241.792837
 20
640.037351
 30
0.0
 10
247.614397
 20
639.702079
 30
0.0
 10
247.614397
 20
645.858829
 30
0.0
 10
247.614397
 20
652.015526
 30
0.0
 10
253.158742
 20
652.015526
 30
0.0
 10
258.703088
 20
652.015526
 30
0.0
 10
258.703088
 20
645.916789
 30
0.0
 10
258.703088
 20
639.817999
 30
0.0
 10
253.158742
 20
639.817999
 30
0.0
 10
247.614397
 20
639.817999
 30
0.0
 10
247.614397
 20
628.174856
 30
0.0
 10
247.614397
 20
616.531751
 30
0.0
 10
253.158742
 20
616.531751
 30
0.0
 10
258.703088
 20
616.531751
 30
0.0
 10
258.703088
 20
622.630496
 30
0.0
 10
258.703088
 20
628.729286
 30
0.0
 10
264.801870
 20
628.729286
 30
0.0
 10
270.900645
 20
628.729286
 30
0.0
 10
270.900645
 20
640.372429
 30
0.0
 10
270.900645
 20
652.015526
 30
0.0
 10
276.444990
 20
652.015526
 30
0.0
 10
281.989335
 20
652.015526
 30
0.0
 10
281.989335
 20
640.372429
 30
0.0
 10
281.989335
 20
628.729286
 30
0.0
 10
288.088110
 20
628.729286
 30
0.0
 10
294.186893
 20
628.729286
 30
0.0
 10
294.186893
 20
645.916789
 30
0.0
 10
294.186893
 20
663.104246
 30
0.0
 10
282.543773
 20
663.104246
 30
0.0
 10
270.900645
 20
663.104246
 30
0.0
 10
270.900645
 20
669.203036
 30
0.0
 10
270.900645
 20
675.301781
 30
0.0
 10
266.385960
 20
675.301781
 30
0.0
 10
261.871283
 20
675.301781
 30
0.0
 10
260.287185
 20
673.717706
 30
0.0
 10
258.703088
 20
672.133594
 30
0.0
 10
258.703088
 20
667.618924
 30
0.0
 10
258.703088
 20
663.104246
 30
0.0
 10
253.158743
 20
663.104246
 30
0.0
 10
247.614398
 20
663.104246
 30
0.0
 10
247.614398
 20
674.747351
 30
0.0
 10
247.614398
 20
686.390494
 30
0.0
 10
241.515615
 20
686.390494
 30
0.0
 10
235.416840
 20
686.390494
 30
0.0
 10
235.416840
 20
680.846141
 30
0.0
 10
235.416840
 20
675.301781
 30
0.0
 10
229.872495
 20
675.301781
 30
0.0
 10
224.328150
 20
675.301781
 30
0.0
 10
224.328150
 20
680.846141
 30
0.0
 10
224.328150
 20
686.390494
 30
0.0
 10
229.872495
 20
686.390494
 30
0.0
 10
235.416840
 20
686.390494
 30
0.0
 10
235.416840
 20
692.489284
 30
0.0
 10
235.416840
 20
698.588029
 30
0.0
 10
229.872495
 20
698.588029
 30
0.0
 10
224.328150
 20
698.588029
 30
0.0
 10
224.328150
 20
715.775546
 30
0.0
 10
224.328150
 20
732.963004
 30
0.0
 10
229.872495
 20
732.963004
 30
0.0
 10
235.416840
 20
732.963004
 30
0.0
 10
235.416840
 20
739.061794
 30
0.0
 10
235.416840
 20
745.160584
 30
0.0
 10
229.872495
 20
745.160584
 30
0.0
 10
224.328150
 20
745.160584
 30
0.0
 10
224.328150
 20
750.704899
 30
0.0
 10
224.328150
 20
756.249259
 30
0.0
 10
229.872495
 20
756.249259
 30
0.0
 10
235.416840
 20
756.249259
 30
0.0
 10
235.416840
 20
750.704899
 30
0.0
 10
235.416840
 20
745.160584
 30
0.0
 10
241.515615
 20
745.160584
 30
0.0
 10
247.614398
 20
745.160584
 30
0.0
 10
247.614398
 20
750.704899
 30
0.0
 10
247.614398
 20
756.249259
 30
0.0
 10
253.158743
 20
756.249259
 30
0.0
 10
258.703088
 20
756.249259
 30
0.0
 10
258.703088
 20
762.348034
 30
0.0
 10
258.703088
 20
768.446815
 30
0.0
 10
253.158743
 20
768.446815
 30
0.0
 10
247.614398
 20
768.446815
 30
0.0
 10
247.614398
 20
773.991161
 30
0.0
 10
247.614398
 20
779.535502
 30
0.0
 10
253.158743
 20
779.535502
 30
0.0
 10
258.703088
 20
779.535502
 30
0.0
 10
258.703088
 20
785.634285
 30
0.0
 10
258.703088
 20
791.733064
 30
0.0
 10
253.158743
 20
791.733064
 30
0.0
 10
247.614398
 20
791.733064
 30
0.0
 10
247.614398
 20
797.277410
 30
0.0
 10
247.614398
 20
802.821756
 30
0.0
 10
235.971278
 20
802.821756
 30
0.0
 10
224.328150
 20
802.821756
 30
0.0
 10
224.328150
 20
808.920534
 30
0.0
 10
224.328150
 20
815.019312
 30
0.0
 10
219.813465
 20
815.019312
 30
0.0
 10
215.298780
 20
815.019312
 30
0.0
 10
213.714682
 20
813.435214
 30
0.0
 10
212.130592
 20
811.851116
 30
0.0
 10
212.130592
 20
801.792090
 30
0.0
 10
212.130592
 20
791.733064
 30
0.0
 10
206.586240
 20
791.733064
 30
0.0
 10
201.041902
 20
791.733064
 30
0.0
 10
201.041902
 20
797.277410
 30
0.0
 10
201.041902
 20
802.821756
 30
0.0
 10
189.456727
 20
802.821756
 30
0.0
 10
177.871545
 20
802.821756
 30
0.0
 10
177.536400
 20
808.643315
 30
0.0
 10
177.201240
 20
814.464881
 30
0.0
 10
171.379680
 20
814.800034
 30
0.0
 10
165.558112
 20
815.135189
 30
0.0
 10
165.558112
 20
808.978462
 30
0.0
 10
165.558112
 20
802.821734
 30
0.0
 10
153.915008
 20
802.821734
 30
0.0
 10
142.271865
 20
802.821734
 30
0.0
 10
142.271865
 20
808.920512
 30
0.0
 10
142.271865
 20
815.019290
 30
0.0
 10
136.727505
 20
815.019290
 30
0.0
 10
131.183190
 20
815.019290
 30
0.0
 10
131.183190
 20
820.563637
 30
0.0
 10
131.183190
 20
826.107983
 30
0.0
 10
142.826287
 20
826.107983
 30
0.0
 10
154.469437
 20
826.107983
 30
0.0
 10
154.469437
 20
820.563637
 30
0.0
 10
154.469437
 20
815.019290
 30
0.0
 10
160.013752
 20
815.019290
 30
0.0
 10
165.558112
 20
815.019290
 30
0.0
 10
165.558112
 20
820.563637
 30
0.0
 10
165.558112
 20
826.107983
 30
0.0
 10
194.943143
 20
826.107983
 30
0.0
 10
224.328173
 20
826.107983
 30
0.0
 10
224.328173
 20
820.563637
 30
0.0
 10
224.328173
 20
815.019290
 30
0.0
 10
235.971300
 20
815.019290
 30
0.0
 10
247.614420
 20
815.019290
 30
0.0
 10
247.614420
 20
820.563637
 30
0.0
 10
247.614420
 20
826.107983
 30
0.0
 10
270.900675
 20
826.107983
 30
0.0
 10
294.186923
 20
826.107983
 30
0.0
 10
294.186923
 20
802.821734
 30
0.0
 10
294.186923
 20
779.535482
 30
0.0
 10
311.374388
 20
779.535482
 30
0.0
 10
328.561860
 20
779.535482
 30
0.0
 10
328.561860
 20
785.634261
 30
0.0
 10
328.561860
 20
791.733041
 30
0.0
 10
316.918733
 20
791.733041
 30
0.0
 10
305.275613
 20
791.733041
 30
0.0
 10
305.275613
 20
803.376145
 30
0.0
 10
305.275613
 20
815.019269
 30
0.0
 10
311.374388
 20
815.019269
 30
0.0
 10
317.473170
 20
815.019269
 30
0.0
 10
317.473170
 20
820.563616
 30
0.0
 10
317.473170
 20
826.107962
 30
0.0
 10
323.017515
 20
826.107962
 30
0.0
 10
328.561860
 20
826.107962
 30
0.0
 10
328.561860
 20
820.563616
 30
0.0
 10
328.561860
 20
815.019269
 30
0.0
 10
340.204980
 20
815.019269
 30
0.0
 10
351.848108
 20
815.019269
 30
0.0
 10
351.848108
 20
808.981248
 30
0.0
 10
351.848108
 20
802.943223
 30
0.0
 10
346.580978
 20
802.605260
 30
0.0
 10
341.313848
 20
802.267298
 30
0.0
 10
340.997850
 20
790.901390
 30
0.0
 10
340.681853
 20
779.535482
 30
0.0
 10
346.264995
 20
779.535482
 30
0.0
 10
351.848123
 20
779.535482
 30
0.0
 10
351.848123
 20
773.991137
 30
0.0
 10
351.848123
 20
768.446791
 30
0.0
 10
357.946905
 20
768.446791
 30
0.0
 10
364.045665
 20
768.446791
 30
0.0
 10
364.045665
 20
797.277387
 30
0.0
 10
364.045665
 20
826.107983
 30
0.0
 10
369.590025
 20
826.107983
 30
0.0
 10
375.134385
 20
826.107983
 30
0.0
 10
375.134385
 20
820.563637
 30
0.0
 10
375.134385
 20
815.019290
 30
0.0
 10
381.233175
 20
815.019290
 30
0.0
 10
387.331912
 20
815.019290
 30
0.0
 10
387.331912
 20
820.563637
 30
0.0
 10
387.331912
 20
826.107983
 30
0.0
 10
422.261302
 20
826.107983
 30
0.0
 10
457.190662
 20
826.107983
 30
0.0
 10
457.190662
 20
820.563637
 30
0.0
 10
457.190662
 20
815.019290
 30
0.0
 10
468.833790
 20
815.019290
 30
0.0
 10
480.476925
 20
815.019290
 30
0.0
 10
480.476925
 20
820.563637
 30
0.0
 10
480.476925
 20
826.107983
 30
0.0
 10
486.021255
 20
826.107983
 30
0.0
 10
491.565592
 20
826.107983
 30
0.0
 10
491.565592
 20
808.920512
 30
0.0
 10
491.565592
 20
791.733041
 30
0.0
 10
486.694328
 20
791.733041
 30
0.0
 10
481.823070
 20
791.733041
 30
0.0
 10
481.149998
 20
789.979048
 30
0.0
 10
480.476925
 20
788.225052
 30
0.0
 10
480.476925
 20
783.880265
 30
0.0
 10
480.476925
 20
779.535482
 30
0.0
 10
474.378128
 20
779.535482
 30
0.0
 10
468.279330
 20
779.535482
 30
0.0
 10
468.279330
 20
791.178607
 30
0.0
 10
468.279330
 20
802.821734
 30
0.0
 10
456.636233
 20
802.821734
 30
0.0
 10
444.993105
 20
802.821734
 30
0.0
 10
444.993105
 20
808.920512
 30
0.0
 10
444.993105
 20
815.019290
 30
0.0
 10
428.478705
 20
815.019290
 30
0.0
 10
411.964313
 20
815.019290
 30
0.0
 10
411.291240
 20
813.265298
 30
0.0
 10
410.618168
 20
811.511302
 30
0.0
 10
410.618168
 20
807.166517
 30
0.0
 10
410.618168
 20
802.821734
 30
0.0
 10
404.519408
 20
802.821734
 30
0.0
 10
398.420648
 20
802.821734
 30
0.0
 10
398.420648
 20
808.920512
 30
0.0
 10
398.420648
 20
815.019290
 30
0.0
 10
392.876280
 20
815.019290
 30
0.0
 10
387.331913
 20
815.019290
 30
0.0
 10
387.331913
 20
808.920512
 30
0.0
 10
387.331913
 20
802.821734
 30
0.0
 10
382.987148
 20
802.821734
 30
0.0
 10
378.642375
 20
802.821734
 30
0.0
 10
376.888365
 20
802.148659
 30
0.0
 10
375.134385
 20
801.475589
 30
0.0
 10
375.134385
 20
773.318065
 30
0.0
 10
375.134385
 20
745.160539
 30
0.0
 10
369.590025
 20
745.160539
 30
0.0
 10
364.045665
 20
745.160539
 30
0.0
 10
364.045665
 20
739.061756
 30
0.0
 10
364.045665
 20
732.962966
 30
0.0
 10
369.590025
 20
732.962966
 30
0.0
 10
375.134385
 20
732.962966
 30
0.0
 10
375.134385
 20
727.418606
 30
0.0
 10
375.134385
 20
721.874246
 30
0.0
 10
369.590025
 20
721.874246
 30
0.0
 10
364.045665
 20
721.874246
 30
0.0
 10
364.045665
 20
710.231134
 30
0.0
 10
364.045665
 20
698.587991
 30
0.0
 10
387.331913
 20
698.587991
 30
0.0
 10
410.618168
 20
698.587991
 30
0.0
 10
410.618168
 20
704.132344
 30
0.0
 10
410.618168
 20
709.676704
 30
0.0
 10
416.162543
 20
709.676704
 30
0.0
 10
421.706835
 20
709.676704
 30
0.0
 10
421.706835
 20
704.132344
 30
0.0
 10
421.706835
 20
698.587991
 30
0.0
 10
416.162543
 20
698.587991
 30
0.0
 10
410.618168
 20
698.587991
 30
0.0
 10
410.618168
 20
675.301736
 30
0.0
 10
410.618168
 20
652.015489
 30
0.0
 10
422.261303
 20
652.015489
 30
0.0
 10
433.904430
 20
652.015489
 30
0.0
 10
433.904430
 20
680.846096
 30
0.0
 10
433.904430
 20
709.676704
 30
0.0
 10
439.448768
 20
709.676704
 30
0.0
 10
444.993105
 20
709.676704
 30
0.0
 10
444.993105
 20
715.775509
 30
0.0
 10
444.993105
 20
721.874246
 30
0.0
 10
427.805633
 20
721.874246
 30
0.0
 10
410.618168
 20
721.874246
 30
0.0
 10
410.618168
 20
739.061756
 30
0.0
 10
410.618168
 20
756.249214
 30
0.0
 10
404.519408
 20
756.249214
 30
0.0
 10
398.420648
 20
756.249214
 30
0.0
 10
398.420648
 20
739.061756
 30
0.0
 10
398.420648
 20
721.874246
 30
0.0
 10
392.876280
 20
721.874246
 30
0.0
 10
387.331913
 20
721.874246
 30
0.0
 10
387.331913
 20
739.061756
 30
0.0
 10
387.331913
 20
756.249214
 30
0.0
 10
392.876280
 20
756.249214
 30
0.0
 10
398.420648
 20
756.249214
 30
0.0
 10
398.420648
 20
773.991137
 30
0.0
 10
398.420648
 20
791.733041
 30
0.0
 10
404.519408
 20
791.733041
 30
0.0
 10
410.618168
 20
791.733041
 30
0.0
 10
410.618168
 20
785.634261
 30
0.0
 10
410.618168
 20
779.535482
 30
0.0
 10
416.162543
 20
779.535482
 30
0.0
 10
421.706835
 20
779.535482
 30
0.0
 10
421.706835
 20
791.178607
 30
0.0
 10
421.706835
 20
802.821734
 30
0.0
 10
427.805633
 20
802.821734
 30
0.0
 10
433.904430
 20
802.821734
 30
0.0
 10
433.904430
 20
791.178607
 30
0.0
 10
433.904430
 20
779.535482
 30
0.0
 10
427.783102
 20
779.535482
 30
0.0
 10
421.661887
 20
779.535482
 30
0.0
 10
421.961535
 20
756.526451
 30
0.0
 10
422.261183
 20
733.517396
 30
0.0
 10
433.627088
 20
733.201391
 30
0.0
 10
444.993022
 20
732.885394
 30
0.0
 10
444.993022
 20
739.022944
 30
0.0
 10
444.993022
 20
745.160539
 30
0.0
 10
439.448647
 20
745.160539
 30
0.0
 10
433.904280
 20
745.160539
 30
0.0
 10
433.904280
 20
750.704899
 30
0.0
 10
433.904280
 20
756.249214
 30
0.0
 10
439.448647
 20
756.249214
 30
0.0
 10
444.993022
 20
756.249214
 30
0.0
 10
444.993022
 20
762.348011
 30
0.0
 10
444.993022
 20
768.446791
 30
0.0
 10
456.636120
 20
768.446791
 30
0.0
 10
468.279247
 20
768.446791
 30
0.0
 10
468.279247
 20
756.803689
 30
0.0
 10
468.279247
 20
745.160539
 30
0.0
 10
462.734918
 20
745.160539
 30
0.0
 10
457.190542
 20
745.160539
 30
0.0
 10
457.190542
 20
739.061756
 30
0.0
 10
457.190542
 20
732.962966
 30
0.0
 10
462.734918
 20
732.962966
 30
0.0
 10
468.279247
 20
732.962966
 30
0.0
 10
468.279247
 20
727.418606
 30
0.0
 10
468.279247
 20
721.874246
 30
0.0
 10
474.378007
 20
721.874246
 30
0.0
 10
480.476767
 20
721.874246
 30
0.0
 10
480.476767
 20
704.132344
 30
0.0
 10
480.476767
 20
686.390456
 30
0.0
 10
474.378007
 20
686.390456
 30
0.0
 10
468.279247
 20
686.390456
 30
0.0
 10
468.279247
 20
704.132344
 30
0.0
 10
468.279247
 20
721.874246
 30
0.0
 10
462.734918
 20
721.874246
 30
0.0
 10
457.190542
 20
721.874246
 30
0.0
 10
457.190542
 20
704.132344
 30
0.0
 10
457.190542
 20
686.390456
 30
0.0
 10
452.845778
 20
686.390456
 30
0.0
 10
448.500968
 20
686.390456
 30
0.0
 10
446.746980
 20
685.717384
 30
0.0
 10
444.993022
 20
685.044304
 30
0.0
 10
444.993022
 20
668.529919
 30
0.0
 10
444.993022
 20
652.015489
 30
0.0
 10
439.448647
 20
652.015489
 30
0.0
 10
433.904280
 20
652.015489
 30
0.0
 10
433.904280
 20
645.916744
 30
0.0
 10
433.904280
 20
639.817961
 30
0.0
 10
439.448647
 20
639.817961
 30
0.0
 10
444.993022
 20
639.817961
 30
0.0
 10
444.993022
 20
634.273601
 30
0.0
 10
444.993022
 20
628.729241
 30
0.0
 10
451.091745
 20
628.729241
 30
0.0
 10
457.190542
 20
628.729241
 30
0.0
 10
457.190542
 20
605.443031
 30
0.0
 10
457.190542
 20
582.156784
 30
0.0
 10
445.547445
 20
582.156784
 30
0.0
 10
433.904280
 20
582.156784
 30
0.0
 10
433.904280
 20
599.344249
 30
0.0
 10
433.904280
 20
616.531751
 30
0.0
 10
427.805520
 20
616.531751
 30
0.0
 10
421.706760
 20
616.531751
 30
0.0
 10
421.706760
 20
628.174811
 30
0.0
 10
421.706760
 20
639.817961
 30
0.0
 10
416.162385
 20
639.817961
 30
0.0
 10
410.618092
 20
639.817961
 30
0.0
 10
410.618092
 20
599.344249
 30
0.0
 10
410.618092
 20
558.870536
 30
0.0
 10
406.103355
 20
558.870536
 30
0.0
 10
401.588692
 20
558.870536
 30
0.0
 10
400.004595
 20
557.286461
 30
0.0
 10
398.420490
 20
555.702349
 30
0.0
 10
398.420490
 20
545.643319
 30
0.0
 10
398.420490
 20
535.584289
 30
0.0
 10
404.519295
 20
535.584289
 30
0.0
 10
410.618093
 20
535.584289
 30
0.0
 10
410.618093
 20
523.941184
 30
0.0
 10
410.618093
 20
512.298034
 30
0.0
 10
406.103355
 20
512.298034
 30
0.0
 10
401.588693
 20
512.298034
 30
0.0
 10
399.936998
 20
510.646324
 30
0.0
 10
398.285220
 20
508.994561
 30
0.0
 10
398.630130
 20
504.824771
 30
0.0
 10
398.975078
 20
500.654929
 30
0.0
 10
410.340975
 20
500.338931
 30
0.0
 10
421.706873
 20
500.022934
 30
0.0
 10
421.706873
 20
494.517379
 30
0.0
 10
421.706873
 20
489.011831
 30
0.0
 10
427.805678
 20
489.011831
 30
0.0
 10
433.904475
 20
489.011831
 30
0.0
 10
433.904475
 20
506.199296
 30
0.0
 10
433.904475
 20
523.386791
 30
0.0
 10
427.805678
 20
523.386791
 30
0.0
 10
421.706873
 20
523.386791
 30
0.0
 10
421.706873
 20
535.029896
 30
0.0
 10
421.706873
 20
546.673046
 30
0.0
 10
433.349970
 20
546.673046
 30
0.0
 10
444.993143
 20
546.673046
 30
0.0
 10
444.993143
 20
552.771791
 30
0.0
 10
444.993143
 20
558.870574
 30
0.0
 10
439.448768
 20
558.870574
 30
0.0
 10
433.904475
 20
558.870574
 30
0.0
 10
433.904475
 20
564.414934
 30
0.0
 10
433.904475
 20
569.959294
 30
0.0
 10
439.448768
 20
569.959294
 30
0.0
 10
444.993143
 20
569.959294
 30
0.0
 10
444.993143
 20
564.414934
 30
0.0
 10
444.993143
 20
558.870574
 30
0.0
 10
451.091940
 20
558.870574
 30
0.0
 10
457.190700
 20
558.870574
 30
0.0
 10
457.190700
 20
564.414934
 30
0.0
 10
457.190700
 20
569.959294
 30
0.0
 10
486.021255
 20
569.959294
 30
0.0
 10
514.851893
 20
569.959294
 30
0.0
 10
514.851893
 20
576.058039
 30
0.0
 10
514.851893
 20
582.156821
 30
0.0
 10
509.307525
 20
582.156821
 30
0.0
 10
503.763188
 20
582.156821
 30
0.0
 10
503.763188
 20
587.701189
 30
0.0
 10
503.763188
 20
593.245541
 30
0.0
 10
509.307525
 20
593.245541
 30
0.0
 10
514.851893
 20
593.245541
 30
0.0
 10
514.851893
 20
587.701189
 30
0.0
 10
514.851893
 20
582.156821
 30
0.0
 10
520.950652
 20
582.156821
 30
0.0
 10
527.049458
 20
582.156821
 30
0.0
 10
527.049458
 20
599.344294
 30
0.0
 10
527.049458
 20
616.531789
 30
0.0
 10
520.950652
 20
616.531789
 30
0.0
 10
514.851893
 20
616.531789
 30
0.0
 10
514.851893
 20
622.630496
 30
0.0
 10
514.851893
 20
628.729286
 30
0.0
 10
503.208728
 20
628.729286
 30
0.0
 10
491.565630
 20
628.729286
 30
0.0
 10
491.565630
 20
634.273639
 30
0.0
 10
491.565630
 20
639.817999
 30
0.0
 10
503.208728
 20
639.817999
 30
0.0
 10
514.851893
 20
639.817999
 30
0.0
 10
514.851893
 20
645.916789
 30
0.0
 10
514.851893
 20
652.015526
 30
0.0
 10
520.950652
 20
652.015526
 30
0.0
 10
527.049458
 20
652.015526
 30
0.0
 10
527.049458
 20
657.559894
 30
0.0
 10
527.049458
 20
663.104246
 30
0.0
 10
520.950652
 20
663.104246
 30
0.0
 10
514.851893
 20
663.104246
 30
0.0
 10
514.851893
 20
669.203036
 30
0.0
 10
514.851893
 20
675.301781
 30
0.0
 10
509.980598
 20
675.301781
 30
0.0
 10
505.109333
 20
675.301781
 30
0.0
 10
504.436260
 20
673.547809
 30
0.0
 10
503.763188
 20
671.793829
 30
0.0
 10
503.763188
 20
661.904659
 30
0.0
 10
503.763188
 20
652.015526
 30
0.0
 10
497.664428
 20
652.015526
 30
0.0
 10
491.565630
 20
652.015526
 30
0.0
 10
491.565630
 20
680.846141
 30
0.0
 10
491.565630
 20
709.676749
 30
0.0
 10
497.664428
 20
709.676749
 30
0.0
 10
503.763188
 20
709.676749
 30
0.0
 10
503.763188
 20
698.033599
 30
0.0
 10
503.763188
 20
686.390494
 30
0.0
 10
509.307525
 20
686.390494
 30
0.0
 10
514.851893
 20
686.390494
 30
0.0
 10
514.851893
 20
680.846141
 30
0.0
 10
514.851893
 20
675.301781
 30
0.0
 10
520.989420
 20
675.301781
 30
0.0
 10
527.127023
 20
675.301781
 30
0.0
 10
526.811025
 20
686.667694
 30
0.0
 10
526.495028
 20
698.033599
 30
0.0
 10
520.673460
 20
698.368879
 30
0.0
 10
514.851893
 20
698.704159
 30
0.0
 10
514.851893
 20
704.190559
 30
0.0
 10
514.851893
 20
709.676959
 30
0.0
 10
520.950653
 20
709.676959
 30
0.0
 10
527.049458
 20
709.676959
 30
0.0
 10
527.049458
 20
715.775756
 30
0.0
 10
527.049458
 20
721.874501
 30
0.0
 10
538.692585
 20
721.874501
 30
0.0
 10
550.335720
 20
721.874501
 30
0.0
 10
550.335720
 20
727.418861
 30
0.0
 10
550.335720
 20
732.963221
 30
0.0
 10
555.880050
 20
732.963221
 30
0.0
 10
561.424388
 20
732.963221
 30
0.0
 10
561.424388
 20
727.418861
 30
0.0
 10
561.424388
 20
721.874501
 30
0.0
 10
573.067523
 20
721.874501
 30
0.0
 10
584.710613
 20
721.874501
 30
0.0
 10
584.710613
 20
710.231381
 30
0.0
 10
584.710613
 20
698.588239
 30
0.0
 10
579.839393
 20
698.588239
 30
0.0
 10
574.968090
 20
698.588239
 30
0.0
 10
574.295018
 20
696.834259
 30
0.0
 10
573.621945
 20
695.080286
 30
0.0
 10
573.621945
 20
690.735476
 30
0.0
 10
573.621945
 20
686.390711
 30
0.0
 10
579.166320
 20
686.390711
 30
0.0
 10
584.710613
 20
686.390711
 30
0.0
 10
584.710613
 20
669.203246
 30
0.0
 10
584.710613
 20
652.015744
 30
0.0
 10
579.166320
 20
652.015744
 30
0.0
 10
573.621945
 20
652.015744
 30
0.0
 10
573.621945
 20
645.916999
 30
0.0
 10
573.621945
 20
639.818209
 30
0.0
 10
579.166320
 20
639.818209
 30
0.0
 10
584.710613
 20
639.818209
 30
0.0
 10
584.710613
 20
599.344451
 30
0.0
 10
584.710613
 20
558.870746
 30
0.0
 10
579.166320
 20
558.870746
 30
0.0
 10
573.621945
 20
558.870746
 30
0.0
 10
573.621945
 20
552.771964
 30
0.0
 10
573.621945
 20
546.673256
 30
0.0
 10
579.166320
 20
546.673256
 30
0.0
 10
584.710613
 20
546.673256
 30
0.0
 10
584.710613
 20
529.485746
 30
0.0
 10
584.710613
 20
512.298289
 30
0.0
 10
568.196258
 20
512.298289
 30
0.0
 10
551.681865
 20
512.298289
 30
0.0
 10
551.008793
 20
510.544316
 30
0.0
 10
550.335720
 20
508.790291
 30
0.0
 10
550.335720
 20
498.901166
 30
0.0
 10
550.335720
 20
489.011996
 30
0.0
 10
555.880050
 20
489.011996
 30
0.0
 10
561.424388
 20
489.011996
 30
0.0
 10
561.424388
 20
482.913251
 30
0.0
 10
561.424388
 20
476.814469
 30
0.0
 10
555.880050
 20
476.814469
 30
0.0
 10
550.335720
 20
476.814469
 30
0.0
 10
550.335720
 20
482.913251
 30
0.0
 10
550.335720
 20
489.011996
 30
0.0
 10
544.236923
 20
489.011996
 30
0.0
 10
538.138125
 20
489.011996
 30
0.0
 10
538.138125
 20
500.655184
 30
0.0
 10
538.138125
 20
512.298289
 30
0.0
 10
533.266898
 20
512.298289
 30
0.0
 10
528.395595
 20
512.298289
 30
0.0
 10
527.722523
 20
510.544316
 30
0.0
 10
527.049458
 20
508.790291
 30
0.0
 10
527.049458
 20
504.445526
 30
0.0
 10
527.049458
 20
500.100754
 30
0.0
 10
520.950653
 20
500.100754
 30
0.0
 10
514.851893
 20
500.100754
 30
0.0
 10
514.851893
 20
506.199499
 30
0.0
 10
514.851893
 20
512.298289
 30
0.0
 10
509.980635
 20
512.298289
 30
0.0
 10
505.109333
 20
512.298289
 30
0.0
 10
504.436260
 20
510.544316
 30
0.0
 10
503.763188
 20
508.790291
 30
0.0
 10
503.763188
 20
504.445526
 30
0.0
 10
503.763188
 20
500.100754
 30
0.0
 10
492.148223
 20
500.100754
 30
0.0
 10
480.533295
 20
500.100754
 30
0.0
 10
480.227738
 20
517.565411
 30
0.0
 10
479.922225
 20
535.030114
 30
0.0
 10
468.556328
 20
535.346111
 30
0.0
 10
457.190423
 20
535.662109
 30
0.0
 10
457.190423
 20
517.881371
 30
0.0
 10
457.190423
 20
500.100716
 30
0.0
 10
452.845658
 20
500.100716
 30
0.0
 10
448.500855
 20
500.100716
 30
0.0
 10
446.746860
 20
499.427644
 30
0.0
 10
444.992828
 20
498.754564
 30
0.0
 10
444.992828
 20
493.883284
 30
0.0
 10
444.992828
 20
489.011996
 30
0.0
 10
451.091625
 20
489.011996
 30
0.0
 10
457.190423
 20
489.011996
 30
0.0
 10
457.190423
 20
482.913214
 30
0.0
 10
457.190423
 20
476.814424
 30
0.0
 10
451.091625
 20
476.814424
 30
0.0
 10
444.992828
 20
476.814424
 30
0.0
 10
444.992828
 20
471.270109
 30
0.0
 10
444.992828
 20
465.725749
 30
0.0
 10
451.091625
 20
465.725749
 30
0.0
 10
457.190423
 20
465.725749
 30
0.0
 10
457.190423
 20
459.626966
 30
0.0
 10
457.190423
 20
453.528176
 30
0.0
 10
462.734760
 20
453.528176
 30
0.0
 10
468.279090
 20
453.528176
 30
0.0
 10
468.279090
 20
459.626966
 30
0.0
 10
468.279090
 20
465.725749
 30
0.0
 10
474.377888
 20
465.725749
 30
0.0
 10
480.476648
 20
465.725749
 30
0.0
 10
480.476648
 20
471.270109
 30
0.0
 10
480.476648
 20
476.814424
 30
0.0
 10
474.377888
 20
476.814424
 30
0.0
 10
468.279090
 20
476.814424
 30
0.0
 10
468.279090
 20
482.913214
 30
0.0
 10
468.279090
 20
489.011996
 30
0.0
 10
474.377888
 20
489.011996
 30
0.0
 10
480.476648
 20
489.011996
 30
0.0
 10
480.476648
 20
482.913214
 30
0.0
 10
480.476648
 20
476.814424
 30
0.0
 10
497.664120
 20
476.814424
 30
0.0
 10
514.851585
 20
476.814424
 30
0.0
 10
514.851585
 20
482.913214
 30
0.0
 10
514.851585
 20
489.011996
 30
0.0
 10
520.950383
 20
489.011996
 30
0.0
 10
527.049143
 20
489.011996
 30
0.0
 10
527.049143
 20
459.626966
 30
0.0
 10
527.049143
 20
430.241944
 30
0.0
 10
532.593518
 20
430.241944
 30
0.0
 10
538.137848
 20
430.241944
 30
0.0
 10
538.137848
 20
441.885071
 30
0.0
 10
538.137848
 20
453.528176
 30
0.0
 10
544.236608
 20
453.528176
 30
0.0
 10
550.335405
 20
453.528176
 30
0.0
 10
550.335405
 20
441.885071
 30
0.0
 10
550.335405
 20
430.241944
 30
0.0
 10
544.236608
 20
430.241944
 30
0.0
 10
538.137848
 20
430.241944
 30
0.0
 10
538.137848
 20
424.697606
 30
0.0
 10
538.137848
 20
419.153239
 30
0.0
 10
544.236608
 20
419.153239
 30
0.0
 10
550.335405
 20
419.153239
 30
0.0
 10
550.335405
 20
407.510141
 30
0.0
 10
550.335405
 20
395.867006
 30
0.0
 10
544.236608
 20
395.867006
 30
0.0
 10
538.137848
 20
395.867006
 30
0.0
 10
538.137848
 20
401.472094
 30
0.0
 10
538.137848
 20
407.077219
 30
0.0
 10
532.870710
 20
406.739434
 30
0.0
 10
527.603565
 20
406.401641
 30
0.0
 10
527.265780
 20
401.134504
 30
0.0
 10
526.927995
 20
395.867359
 30
0.0
 10
520.889985
 20
395.867359
 30
0.0
 10
514.851975
 20
395.867359
 30
0.0
 10
514.851975
 20
407.510531
 30
0.0
 10
514.851975
 20
419.153629
 30
0.0
 10
504.792945
 20
419.153629
 30
0.0
 10
494.733915
 20
419.153629
 30
0.0
 10
493.082175
 20
417.501926
 30
0.0
 10
491.430435
 20
415.850194
 30
0.0
 10
491.775345
 20
411.680366
 30
0.0
 10
492.120255
 20
407.510531
 30
0.0
 10
497.941860
 20
407.175251
 30
0.0
 10
503.763428
 20
406.839964
 30
0.0
 10
503.763428
 20
401.353564
 30
0.0
 10
503.763428
 20
395.867164
 30
0.0
 10
492.120255
 20
395.867164
 30
0.0
 10
480.477158
 20
395.867164
 30
0.0
 10
480.477158
 20
419.153434
 30
0.0
 10
480.477158
 20
442.439659
 30
0.0
 10
492.120255
 20
442.439659
 30
0.0
 10
503.763428
 20
442.439659
 30
0.0
 10
503.763428
 20
447.984026
 30
0.0
 10
503.763428
 20
453.528341
 30
0.0
 10
486.021533
 20
453.528341
 30
0.0
 10
468.279600
 20
453.528341
 30
0.0
 10
468.279600
 20
447.984026
 30
0.0
 10
468.279600
 20
442.439659
 30
0.0
 10
462.735270
 20
442.439659
 30
0.0
 10
457.190932
 20
442.439659
 30
0.0
 10
457.190932
 20
430.796561
 30
0.0
 10
457.190932
 20
419.153434
 30
0.0
 10
462.735270
 20
419.153434
 30
0.0
 10
468.279600
 20
419.153434
 30
0.0
 10
468.279600
 20
413.054629
 30
0.0
 10
468.279600
 20
406.955831
 30
0.0
 10
462.735270
 20
406.955831
 30
0.0
 10
457.190932
 20
406.955831
 30
0.0
 10
457.190932
 20
413.054629
 30
0.0
 10
457.190932
 20
419.153434
 30
0.0
 10
451.092135
 20
419.153434
 30
0.0
 10
444.993338
 20
419.153434
 30
0.0
 10
444.993338
 20
407.510299
 30
0.0
 10
444.993338
 20
395.867164
 30
0.0
 10
439.449045
 20
395.867164
 30
0.0
 10
433.904670
 20
395.867164
 30
0.0
 10
433.904670
 20
389.768366
 30
0.0
 10
433.904670
 20
383.669606
 30
0.0
 10
427.805873
 20
383.669606
 30
0.0
 10
421.707113
 20
383.669606
 30
0.0
 10
421.707113
 20
389.768366
 30
0.0
 10
421.707113
 20
395.867164
 30
0.0
 10
416.162775
 20
395.867164
 30
0.0
 10
410.618400
 20
395.867164
 30
0.0
 10
410.618400
 20
378.125276
 30
0.0
 10
410.618400
 20
360.383344
 30
0.0
 10
416.162775
 20
360.383344
 30
0.0
 10
421.707113
 20
360.383344
 30
0.0
 10
421.707113
 20
366.482141
 30
0.0
 10
421.707113
 20
372.580939
 30
0.0
 10
427.805873
 20
372.580939
 30
0.0
 10
433.904670
 20
372.580939
 30
0.0
 10
433.904670
 20
366.482141
 30
0.0
 10
433.904670
 20
360.383344
 30
0.0
 10
439.449045
 20
360.383344
 30
0.0
 10
444.993338
 20
360.383344
 30
0.0
 10
444.993338
 20
372.026479
 30
0.0
 10
444.993338
 20
383.669606
 30
0.0
 10
456.636465
 20
383.669606
 30
0.0
 10
468.279600
 20
383.669606
 30
0.0
 10
468.279600
 20
378.125276
 30
0.0
 10
468.279600
 20
372.580939
 30
0.0
 10
474.378360
 20
372.580939
 30
0.0
 10
480.477157
 20
372.580939
 30
0.0
 10
480.477157
 20
378.125276
 30
0.0
 10
480.477157
 20
383.669606
 30
0.0
 10
520.950893
 20
383.669606
 30
0.0
 10
561.424583
 20
383.669606
 30
0.0
 10
561.424583
 20
378.125276
 30
0.0
 10
561.424583
 20
372.580939
 30
0.0
 10
567.523380
 20
372.580939
 30
0.0
 10
573.622140
 20
372.580939
 30
0.0
 10
573.622140
 20
384.224074
 30
0.0
 10
573.622140
 20
395.867164
 30
0.0
 10
567.523417
 20
395.867164
 30
0.0
 10
561.424620
 20
395.867164
 30
0.0
 10
561.424620
 20
419.153434
 30
0.0
 10
561.424620
 20
442.439659
 30
0.0
 10
567.523417
 20
442.439659
 30
0.0
 10
573.622222
 20
442.439659
 30
0.0
 10
573.622222
 20
447.984026
 30
0.0
 10
573.622222
 20
453.528341
 30
0.0
 10
567.523417
 20
453.528341
 30
0.0
 10
561.424620
 20
453.528341
 30
0.0
 10
561.424620
 20
459.627131
 30
0.0
 10
561.424620
 20
465.725921
 30
0.0
 10
567.523417
 20
465.725921
 30
0.0
 10
573.622222
 20
465.725921
 30
0.0
 10
573.622222
 20
482.913379
 30
0.0
 10
573.622222
 20
500.100881
 30
0.0
 10
579.166515
 20
500.100881
 30
0.0
 10
584.710890
 20
500.100881
 30
0.0
 10
584.710890
 20
482.913379
 30
0.0
 10
584.710890
 20
465.725921
 30
0.0
 10
579.166515
 20
465.725921
 30
0.0
 10
573.622222
 20
465.725921
 30
0.0
 10
573.622222
 20
459.627131
 30
0.0
 10
573.622222
 20
453.528341
 30
0.0
 10
579.166515
 20
453.528341
 30
0.0
 10
584.710890
 20
453.528341
 30
0.0
 10
584.710890
 20
430.302851
 30
0.0
 10
584.710890
 20
407.077376
 30
0.0
 10
579.443745
 20
406.739584
 30
0.0
 10
574.176645
 20
406.401799
 30
0.0
 10
573.838815
 20
401.134661
 30
0.0
 10
573.501030
 20
395.867554
 30
0.0
 10
579.106155
 20
395.867554
 30
0.0
 10
584.711235
 20
395.867554
 30
0.0
 10
584.711235
 20
354.839404
 30
0.0
 10
584.711235
 20
313.811246
 30
0.0
 10
579.166905
 20
313.811246
 30
0.0
 10
573.622567
 20
313.811246
 30
0.0
 10
573.622567
 20
308.266909
 30
0.0
 10
573.622567
 20
302.722534
 30
0.0
 10
579.166905
 20
302.722534
 30
0.0
 10
584.711235
 20
302.722534
 30
0.0
 10
584.711235
 20
296.623774
 30
0.0
 10
584.711235
 20
290.524976
 30
0.0
 10
567.523815
 20
290.524976
 30
0.0
 10
550.336342
 20
290.524976
 30
0.0
 10
550.336342
 20
296.623774
 30
0.0
 10
550.336342
 20
302.722534
 30
0.0
 10
545.821605
 20
302.722534
 30
0.0
 10
541.306950
 20
302.722534
 30
0.0
 10
539.722890
 20
301.138436
 30
0.0
 10
538.138747
 20
299.554376
 30
0.0
 10
538.138747
 20
289.495339
 30
0.0
 10
538.138747
 20
279.436309
 30
0.0
 10
532.633222
 20
279.436309
 30
0.0
 10
527.127652
 20
279.436309
 30
0.0
 10
526.811655
 20
290.802214
 30
0.0
 10
526.495657
 20
302.168111
 30
0.0
 10
516.054082
 20
302.489584
 30
0.0
 10
505.612477
 20
302.811026
 30
0.0
 10
504.705120
 20
301.380889
 30
0.0
 10
503.797807
 20
299.950759
 30
0.0
 10
503.781007
 20
295.238044
 30
0.0
 10
503.764207
 20
290.525366
 30
0.0
 10
499.419397
 20
290.525366
 30
0.0
 10
495.074633
 20
290.525366
 30
0.0
 10
493.320600
 20
289.852301
 30
0.0
 10
491.566650
 20
289.179184
 30
0.0
 10
491.566650
 20
284.307964
 30
0.0
 10
491.566650
 20
279.436661
 30
0.0
 10
497.665447
 20
279.436661
 30
0.0
 10
503.764207
 20
279.436661
 30
0.0
 10
503.764207
 20
273.337901
 30
0.0
 10
503.764207
 20
267.239104
 30
0.0
 10
497.665447
 20
267.239104
 30
0.0
 10
491.566650
 20
267.239104
 30
0.0
 10
491.566650
 20
261.694774
 30
0.0
 10
491.566650
 20
256.150436
 30
0.0
 10
486.022275
 20
256.150436
 30
0.0
 10
480.477982
 20
256.150436
 30
0.0
 10
480.477982
 20
261.694774
 30
0.0
 10
480.477982
 20
267.239104
 30
0.0
 10
486.022275
 20
267.239104
 30
0.0
 10
491.566650
 20
267.239104
 30
0.0
 10
491.566650
 20
273.337901
 30
0.0
 10
491.566650
 20
279.436661
 30
0.0
 10
474.379140
 20
279.436661
 30
0.0
 10
457.191675
 20
279.436661
 30
0.0
 10
457.191675
 20
267.793534
 30
0.0
 10
457.191675
 20
256.150436
 30
0.0
 10
433.905412
 20
256.150436
 30
0.0
 10
410.619187
 20
256.150436
 30
0.0
 10
410.619187
 20
261.694774
 30
0.0
 10
410.619187
 20
267.239104
 30
0.0
 10
406.274415
 20
267.239104
 30
0.0
 10
401.929612
 20
267.239104
 30
0.0
 10
400.175617
 20
266.566031
 30
0.0
 10
398.421585
 20
265.892959
 30
0.0
 10
398.421585
 20
261.021701
 30
0.0
 10
398.421585
 20
256.150436
 30
0.0
 10
392.877292
 20
256.150436
 30
0.0
 10
387.332925
 20
256.150436
 30
0.0
 10
387.332925
 20
273.337901
 30
0.0
 10
387.332925
 20
290.525366
 30
0.0
 10
381.234142
 20
290.525366
 30
0.0
 10
375.135360
 20
290.525366
 30
0.0
 10
375.135360
 20
308.267299
 30
0.0
 10
375.135360
 20
326.009194
 30
0.0
 10
381.234142
 20
326.009194
 30
0.0
 10
387.332925
 20
326.009194
 30
0.0
 10
387.332925
 20
331.553524
 30
0.0
 10
387.332925
 20
337.097861
 30
0.0
 10
381.234142
 20
337.097861
 30
0.0
 10
375.135360
 20
337.097861
 30
0.0
 10
375.135360
 20
343.196659
 30
0.0
 10
375.135360
 20
349.295419
 30
0.0
 10
369.591037
 20
349.295419
 30
0.0
 10
364.046685
 20
349.295419
 30
0.0
 10
364.046685
 20
331.553524
 30
0.0
 10
364.046685
 20
313.811599
 30
0.0
 10
359.701725
 20
313.811599
 30
0.0
 10
355.356937
 20
313.811599
 30
0.0
 10
353.602942
 20
313.138526
 30
0.0
 10
351.848947
 20
312.465454
 30
0.0
 10
351.848947
 20
307.594226
 30
0.0
 10
351.848947
 20
302.722931
 30
0.0
 10
357.947730
 20
302.722931
 30
0.0
 10
364.046512
 20
302.722931
 30
0.0
 10
364.046512
 20
296.624126
 30
0.0
 10
364.046512
 20
290.525366
 30
0.0
 10
357.947730
 20
290.525366
 30
0.0
 10
351.848947
 20
290.525366
 30
0.0
 10
351.848947
 20
296.624126
 30
0.0
 10
351.848947
 20
302.722931
 30
0.0
 10
335.334555
 20
302.722931
 30
0.0
 10
318.820155
 20
302.722931
 30
0.0
 10
318.147082
 20
300.968899
 30
0.0
 10
317.474010
 20
299.214941
 30
0.0
 10
317.474010
 20
294.870176
 30
0.0
 10
317.474010
 20
290.525366
 30
0.0
 10
329.117137
 20
290.525366
 30
0.0
 10
340.760265
 20
290.525366
 30
0.0
 10
340.760265
 20
284.981036
 30
0.0
 10
340.760265
 20
279.436661
 30
0.0
 10
346.246650
 20
279.436661
 30
0.0
 10
351.733050
 20
279.436661
 30
0.0
 10
352.068202
 20
273.615139
 30
0.0
 10
352.403363
 20
267.793534
 30
0.0
 10
358.224923
 20
267.458246
 30
0.0
 10
364.046475
 20
267.122959
 30
0.0
 10
364.046475
 20
261.636566
 30
0.0
 10
364.046475
 20
256.150166
 30
0.0
 10
352.402478
 20
256.150166
 30
0.0
 10
340.759357
 20
256.150166
 30
0.0
 10
340.759357
 20
267.793294
 30
0.0
 10
340.759357
 20
279.436429
 30
0.0
 10
329.116350
 20
279.436429
 30
0.0
 10
317.473223
 20
279.436429
 30
0.0
 10
317.473223
 20
267.793294
 30
0.0
 10
317.473223
 20
256.150166
 30
0.0
 10
305.830102
 20
256.150166
 30
0.0
 10
294.186975
 20
256.150166
 30
0.0
 10
294.186975
 20
261.694534
 30
0.0
 10
294.186975
 20
267.238871
 30
0.0
 10
289.842195
 20
267.238871
 30
0.0
 10
285.497400
 20
267.238871
 30
0.0
 10
283.743412
 20
266.565799
 30
0.0
 10
281.989418
 20
265.892689
 30
0.0
 10
281.989418
 20
261.021461
 30
0.0
 10
281.989418
 20
256.150166
 30
0.0
 10
276.445073
 20
256.150166
 30
0.0
 10
270.900728
 20
256.150166
 30
0.0
 10
270.900728
 20
261.694534
 30
0.0
 10
270.900728
 20
267.238871
 30
0.0
 10
259.257600
 20
267.238871
 30
0.0
 10
247.614480
 20
267.238871
 30
0.0
 10
247.614480
 20
261.694534
 30
0.0
 10
247.614480
 20
256.150166
 30
0.0
 10
235.971352
 20
256.150166
 30
0.0
 10
224.328233
 20
256.150166
 30
0.0
 10
224.328233
 20
261.694534
 30
0.0
 10
224.328233
 20
267.238871
 30
0.0
 10
212.685105
 20
267.238871
 30
0.0
 10
201.041977
 20
267.238871
 30
0.0
 10
201.041977
 20
261.694534
 30
0.0
 10
201.041977
 20
256.150166
 30
0.0
 10
183.300075
 20
256.150166
 30
0.0
 10
165.558150
 20
256.150166
 30
0.0
 10
165.558150
 20
261.694534
 30
0.0
 10
165.558150
 20
267.238871
 30
0.0
 10
160.013798
 20
267.238871
 30
0.0
 10
154.469475
 20
267.238871
 30
0.0
 10
154.469475
 20
273.337631
 30
0.0
 10
154.469475
 20
279.436429
 30
0.0
 10
160.013798
 20
279.436429
 30
0.0
 10
165.558150
 20
279.436429
 30
0.0
 10
165.558150
 20
284.980804
 30
0.0
 10
165.558150
 20
290.525096
 30
0.0
 10
160.013798
 20
290.525096
 30
0.0
 10
154.469475
 20
290.525096
 30
0.0
 10
154.469475
 20
302.168269
 30
0.0
 10
154.469475
 20
313.811359
 30
0.0
 10
160.013798
 20
313.811359
 30
0.0
 10
165.558150
 20
313.811359
 30
0.0
 10
165.558150
 20
302.168269
 30
0.0
 10
165.558150
 20
290.525096
 30
0.0
 10
171.656948
 20
290.525096
 30
0.0
 10
177.755730
 20
290.525096
 30
0.0
 10
177.755730
 20
278.882006
 30
0.0
 10
177.755730
 20
267.238871
 30
0.0
 10
189.398858
 20
267.238871
 30
0.0
 10
201.041978
 20
267.238871
 30
0.0
 10
201.041978
 20
273.337631
 30
0.0
 10
201.041978
 20
279.436429
 30
0.0
 10
212.685105
 20
279.436429
 30
0.0
 10
224.328233
 20
279.436429
 30
0.0
 10
224.328233
 20
273.337631
 30
0.0
 10
224.328233
 20
267.238871
 30
0.0
 10
235.971353
 20
267.238871
 30
0.0
 10
247.614480
 20
267.238871
 30
0.0
 10
247.614480
 20
273.337631
 30
0.0
 10
247.614480
 20
279.436429
 30
0.0
 10
259.257600
 20
279.436429
 30
0.0
 10
270.900728
 20
279.436429
 30
0.0
 10
270.900728
 20
284.980804
 30
0.0
 10
270.900728
 20
290.525096
 30
0.0
 10
276.445073
 20
290.525096
 30
0.0
 10
281.989418
 20
290.525096
 30
0.0
 10
281.989418
 20
284.980804
 30
0.0
 10
281.989418
 20
279.436429
 30
0.0
 10
288.126983
 20
279.436429
 30
0.0
 10
294.264563
 20
279.436429
 30
0.0
 10
293.948565
 20
290.802326
 30
0.0
 10
293.632560
 20
302.168269
 30
0.0
 10
282.266655
 20
302.484266
 30
0.0
 10
270.900750
 20
302.800264
 30
0.0
 10
270.900750
 20
308.305796
 30
0.0
 10
270.900750
 20
313.811359
 30
0.0
 10
264.801968
 20
313.811359
 30
0.0
 10
258.703185
 20
313.811359
 30
0.0
 10
258.703185
 20
302.168269
 30
0.0
 10
258.703185
 20
290.525096
 30
0.0
 10
253.158840
 20
290.525096
 30
0.0
 10
247.614495
 20
290.525096
 30
0.0
 10
247.614495
 20
302.168269
 30
0.0
 10
247.614495
 20
313.811359
 30
0.0
 10
241.515712
 20
313.811359
 30
0.0
 10
235.416937
 20
313.811359
 30
0.0
 10
235.416937
 20
308.267029
 30
0.0
 10
235.416937
 20
302.722691
 30
0.0
 10
229.872592
 20
302.722691
 30
0.0
 10
224.328247
 20
302.722691
 30
0.0
 10
224.328247
 20
308.267029
 30
0.0
 10
224.328247
 20
313.811359
 30
0.0
 10
229.872592
 20
313.811359
 30
0.0
 10
235.416937
 20
313.811359
 30
0.0
 10
235.416937
 20
319.910156
 30
0.0
 10
235.416937
 20
326.008916
 30
0.0
 10
229.872592
 20
326.008916
 30
0.0
 10
224.328247
 20
326.008916
 30
0.0
 10
224.328247
 20
343.196389
 30
0.0
 10
224.328247
 20
360.383854
 30
0.0
 10
229.872592
 20
360.383854
 30
0.0
 10
235.416937
 20
360.383854
 30
0.0
 10
235.416937
 20
383.730866
 30
0.0
 10
235.416937
 20
407.077886
 30
0.0
 10
230.149807
 20
406.740094
 30
0.0
 10
224.882685
 20
406.402309
 30
0.0
 10
224.566680
 20
395.036366
 30
0.0
 10
224.250675
 20
383.670469
 30
0.0
 10
218.190697
 20
383.670469
 30
0.0
 10
212.130705
 20
383.670469
 30
0.0
 10
212.130705
 20
378.126176
 30
0.0
 10
212.130705
 20
372.581801
 30
0.0
 10
207.259433
 20
372.581801
 30
0.0
 10
202.388160
 20
372.581801
 30
0.0
 10
201.715088
 20
370.827806
 30
0.0
 10
201.042023
 20
369.073819
 30
0.0
 10
201.042023
 20
353.085874
 30
0.0
 10
201.042023
 20
337.097981
 30
0.0
 10
194.943233
 20
337.097981
 30
0.0
 10
188.844458
 20
337.097981
 30
0.0
 10
188.844458
 20
331.553644
 30
0.0
 10
188.844458
 20
326.009314
 30
0.0
 10
183.300113
 20
326.009314
 30
0.0
 10
177.755768
 20
326.009314
 30
0.0
 10
177.755768
 20
331.553644
 30
0.0
 10
177.755768
 20
337.097981
 30
0.0
 10
171.656985
 20
337.097981
 30
0.0
 10
165.558195
 20
337.097981
 30
0.0
 10
165.558195
 20
331.553644
 30
0.0
 10
165.558195
 20
326.009314
 30
0.0
 10
155.499165
 20
326.009314
 30
0.0
 10
145.440135
 20
326.009314
 30
0.0
 10
143.856060
 20
324.425171
 30
0.0
 10
142.271948
 20
322.841111
 30
0.0
 10
142.271948
 20
301.138946
 30
0.0
 10
142.271948
 20
279.436819
 30
0.0
 10
136.727588
 20
279.436819
 30
0.0
 10
131.183273
 20
279.436819
 30
0.0
 10
131.183273
 20
267.793646
 30
0.0
 10
131.183273
 20
256.150556
 30
0.0
 10
119.540130
 20
256.150556
 30
0.0
 10
107.897025
 20
256.150556
 30
0.0
  0
LWPOLYLINE
  5
104
100
AcDbEntity
  8
Layer_1
 62
7
100
AcDbPolyline
 90
528
 70
1
 10
444.993143
 20
273.336731
 30
0.0
 10
444.993143
 20
279.435491
 30
0.0
 10
451.091940
 20
279.435491
 30
0.0
 10
457.190700
 20
279.435491
 30
0.0
 10
457.190700
 20
284.941054
 30
0.0
 10
457.190700
 20
290.446624
 30
0.0
 10
468.556597
 20
290.762621
 30
0.0
 10
479.922502
 20
291.078619
 30
0.0
 10
479.922502
 20
296.622956
 30
0.0
 10
479.922502
 20
302.167331
 30
0.0
 10
468.556597
 20
302.483329
 30
0.0
 10
457.190700
 20
302.799326
 30
0.0
 10
457.190700
 20
308.304896
 30
0.0
 10
457.190700
 20
313.810421
 30
0.0
 10
468.891765
 20
313.810421
 30
0.0
 10
480.592830
 20
313.810421
 30
0.0
 10
480.257550
 20
319.632026
 30
0.0
 10
479.922262
 20
325.453594
 30
0.0
 10
469.480695
 20
325.775029
 30
0.0
 10
459.039120
 20
326.096464
 30
0.0
 10
458.131770
 20
324.666334
 30
0.0
 10
457.224457
 20
323.236204
 30
0.0
 10
457.207657
 20
318.523489
 30
0.0
 10
457.190857
 20
313.810811
 30
0.0
 10
451.092060
 20
313.810811
 30
0.0
 10
444.993263
 20
313.810811
 30
0.0
 10
444.993263
 20
319.909609
 30
0.0
 10
444.993263
 20
326.008369
 30
0.0
 10
439.448933
 20
326.008369
 30
0.0
 10
433.904595
 20
326.008369
 30
0.0
 10
433.904595
 20
331.552744
 30
0.0
 10
433.904595
 20
337.097036
 30
0.0
 10
451.092060
 20
337.097036
 30
0.0
 10
468.279525
 20
337.097036
 30
0.0
 10
468.279525
 20
343.195841
 30
0.0
 10
468.279525
 20
349.294639
 30
0.0
 10
474.378285
 20
349.294639
 30
0.0
 10
480.477090
 20
349.294639
 30
0.0
 10
480.477090
 20
354.838969
 30
0.0
 10
480.477090
 20
360.383306
 30
0.0
 10
476.132280
 20
360.383306
 30
0.0
 10
471.787515
 20
360.383306
 30
0.0
 10
470.033482
 20
359.710234
 30
0.0
 10
468.279525
 20
359.037161
 30
0.0
 10
468.279525
 20
354.165896
 30
0.0
 10
468.279525
 20
349.294639
 30
0.0
 10
439.448933
 20
349.294639
 30
0.0
 10
410.618333
 20
349.294639
 30
0.0
 10
410.618333
 20
354.838969
 30
0.0
 10
410.618333
 20
360.383306
 30
0.0
 10
406.273568
 20
360.383306
 30
0.0
 10
401.928758
 20
360.383306
 30
0.0
 10
400.174808
 20
359.710234
 30
0.0
 10
398.420775
 20
359.037161
 30
0.0
 10
398.420775
 20
354.165896
 30
0.0
 10
398.420775
 20
349.294639
 30
0.0
 10
392.876453
 20
349.294639
 30
0.0
 10
387.332100
 20
349.294639
 30
0.0
 10
387.332100
 20
366.482104
 30
0.0
 10
387.332100
 20
383.669569
 30
0.0
 10
392.876453
 20
383.669569
 30
0.0
 10
398.420775
 20
383.669569
 30
0.0
 10
398.420775
 20
389.768329
 30
0.0
 10
398.420775
 20
395.867126
 30
0.0
 10
404.519572
 20
395.867126
 30
0.0
 10
410.618332
 20
395.867126
 30
0.0
 10
410.618332
 20
401.411501
 30
0.0
 10
410.618332
 20
406.955794
 30
0.0
 10
406.273568
 20
406.955794
 30
0.0
 10
401.928757
 20
406.955794
 30
0.0
 10
400.174807
 20
406.282721
 30
0.0
 10
398.420775
 20
405.609694
 30
0.0
 10
398.420775
 20
400.738429
 30
0.0
 10
398.420775
 20
395.867126
 30
0.0
 10
392.876452
 20
395.867126
 30
0.0
 10
387.332100
 20
395.867126
 30
0.0
 10
387.332100
 20
401.411501
 30
0.0
 10
387.332100
 20
406.955794
 30
0.0
 10
381.233310
 20
406.955794
 30
0.0
 10
375.134520
 20
406.955794
 30
0.0
 10
375.134520
 20
418.598966
 30
0.0
 10
375.134520
 20
430.242056
 30
0.0
 10
386.777670
 20
430.242056
 30
0.0
 10
398.420775
 20
430.242056
 30
0.0
 10
398.420775
 20
436.340861
 30
0.0
 10
398.420775
 20
442.439621
 30
0.0
 10
392.876452
 20
442.439621
 30
0.0
 10
387.332100
 20
442.439621
 30
0.0
 10
387.332100
 20
454.082771
 30
0.0
 10
387.332100
 20
465.725876
 30
0.0
 10
392.876452
 20
465.725876
 30
0.0
 10
398.420775
 20
465.725876
 30
0.0
 10
398.420775
 20
477.369019
 30
0.0
 10
398.420775
 20
489.012124
 30
0.0
 10
381.906382
 20
489.012124
 30
0.0
 10
365.391997
 20
489.012124
 30
0.0
 10
364.718917
 20
487.258144
 30
0.0
 10
364.045845
 20
485.504126
 30
0.0
 10
364.045845
 20
469.516219
 30
0.0
 10
364.045845
 20
453.528304
 30
0.0
 10
359.701177
 20
453.528304
 30
0.0
 10
355.356382
 20
453.528304
 30
0.0
 10
353.602395
 20
452.855269
 30
0.0
 10
351.848400
 20
452.182196
 30
0.0
 10
351.848400
 20
447.310909
 30
0.0
 10
351.848400
 20
442.439621
 30
0.0
 10
346.342837
 20
442.439621
 30
0.0
 10
340.837297
 20
442.439621
 30
0.0
 10
340.521300
 20
453.805534
 30
0.0
 10
340.205295
 20
465.171446
 30
0.0
 10
336.035460
 20
465.516371
 30
0.0
 10
331.865625
 20
465.861289
 30
0.0
 10
330.183165
 20
464.178806
 30
0.0
 10
328.500682
 20
462.496331
 30
0.0
 10
328.808640
 20
446.646469
 30
0.0
 10
329.116597
 20
430.796644
 30
0.0
 10
340.482502
 20
430.480646
 30
0.0
 10
351.848407
 20
430.164641
 30
0.0
 10
351.848407
 20
436.302251
 30
0.0
 10
351.848407
 20
442.439771
 30
0.0
 10
357.947190
 20
442.439771
 30
0.0
 10
364.045965
 20
442.439771
 30
0.0
 10
364.045965
 20
430.796681
 30
0.0
 10
364.045965
 20
419.153546
 30
0.0
 10
359.531280
 20
419.153546
 30
0.0
 10
355.016602
 20
419.153546
 30
0.0
 10
353.432505
 20
417.569486
 30
0.0
 10
351.848408
 20
415.985344
 30
0.0
 10
351.848408
 20
394.283179
 30
0.0
 10
351.848408
 20
372.581059
 30
0.0
 10
357.947190
 20
372.581059
 30
0.0
 10
364.045965
 20
372.581059
 30
0.0
 10
364.045965
 20
366.482261
 30
0.0
 10
364.045965
 20
360.383464
 30
0.0
 10
359.701185
 20
360.383464
 30
0.0
 10
355.356390
 20
360.383464
 30
0.0
 10
353.602403
 20
359.710391
 30
0.0
 10
351.848408
 20
359.037319
 30
0.0
 10
351.848408
 20
354.166091
 30
0.0
 10
351.848408
 20
349.294796
 30
0.0
 10
346.304062
 20
349.294796
 30
0.0
 10
340.759717
 20
349.294796
 30
0.0
 10
340.759717
 20
366.482261
 30
0.0
 10
340.759717
 20
383.669726
 30
0.0
 10
334.660935
 20
383.669726
 30
0.0
 10
328.562160
 20
383.669726
 30
0.0
 10
328.562160
 20
389.768524
 30
0.0
 10
328.562160
 20
395.867284
 30
0.0
 10
334.699725
 20
395.867284
 30
0.0
 10
340.837305
 20
395.867284
 30
0.0
 10
340.521307
 20
407.233226
 30
0.0
 10
340.205302
 20
418.599124
 30
0.0
 10
336.035467
 20
418.944034
 30
0.0
 10
331.865633
 20
419.288936
 30
0.0
 10
330.213908
 20
417.637241
 30
0.0
 10
328.562183
 20
415.985539
 30
0.0
 10
328.562183
 20
405.926509
 30
0.0
 10
328.562183
 20
395.867479
 30
0.0
 10
323.017830
 20
395.867479
 30
0.0
 10
317.473493
 20
395.867479
 30
0.0
 10
317.473493
 20
436.341169
 30
0.0
 10
317.473493
 20
476.814889
 30
0.0
 10
323.017830
 20
476.814889
 30
0.0
 10
328.562183
 20
476.814889
 30
0.0
 10
328.562183
 20
482.913671
 30
0.0
 10
328.562183
 20
489.012461
 30
0.0
 10
334.660958
 20
489.012461
 30
0.0
 10
340.759740
 20
489.012461
 30
0.0
 10
340.759740
 20
482.913671
 30
0.0
 10
340.759740
 20
476.814889
 30
0.0
 10
346.304085
 20
476.814889
 30
0.0
 10
351.848430
 20
476.814889
 30
0.0
 10
351.848430
 20
482.913671
 30
0.0
 10
351.848430
 20
489.012461
 30
0.0
 10
346.304085
 20
489.012461
 30
0.0
 10
340.759740
 20
489.012461
 30
0.0
 10
340.759740
 20
506.199926
 30
0.0
 10
340.759740
 20
523.387429
 30
0.0
 10
346.304085
 20
523.387429
 30
0.0
 10
351.848430
 20
523.387429
 30
0.0
 10
351.848430
 20
529.486174
 30
0.0
 10
351.848430
 20
535.584956
 30
0.0
 10
357.947205
 20
535.584956
 30
0.0
 10
364.046003
 20
535.584956
 30
0.0
 10
364.046003
 20
523.941851
 30
0.0
 10
364.046003
 20
512.298709
 30
0.0
 10
369.590325
 20
512.298709
 30
0.0
 10
375.134685
 20
512.298709
 30
0.0
 10
375.134685
 20
523.941851
 30
0.0
 10
375.134685
 20
535.584956
 30
0.0
 10
381.233468
 20
535.584956
 30
0.0
 10
387.332258
 20
535.584956
 30
0.0
 10
387.332258
 20
529.486174
 30
0.0
 10
387.332258
 20
523.387429
 30
0.0
 10
392.876573
 20
523.387429
 30
0.0
 10
398.420933
 20
523.387429
 30
0.0
 10
398.420933
 20
529.486174
 30
0.0
 10
398.420933
 20
535.584956
 30
0.0
 10
392.876573
 20
535.584956
 30
0.0
 10
387.332258
 20
535.584956
 30
0.0
 10
387.332258
 20
552.772421
 30
0.0
 10
387.332258
 20
569.959924
 30
0.0
 10
392.876573
 20
569.959924
 30
0.0
 10
398.420933
 20
569.959924
 30
0.0
 10
398.420933
 20
576.058669
 30
0.0
 10
398.420933
 20
582.157451
 30
0.0
 10
392.876573
 20
582.157451
 30
0.0
 10
387.332258
 20
582.157451
 30
0.0
 10
387.332258
 20
599.344916
 30
0.0
 10
387.332258
 20
616.532419
 30
0.0
 10
392.876573
 20
616.532419
 30
0.0
 10
398.420933
 20
616.532419
 30
0.0
 10
398.420933
 20
622.631164
 30
0.0
 10
398.420933
 20
628.729954
 30
0.0
 10
392.915385
 20
628.729954
 30
0.0
 10
387.409830
 20
628.729954
 30
0.0
 10
387.093825
 20
640.095866
 30
0.0
 10
386.777828
 20
651.461771
 30
0.0
 10
380.956275
 20
651.797051
 30
0.0
 10
375.134685
 20
652.132339
 30
0.0
 10
375.134685
 20
663.717521
 30
0.0
 10
375.134685
 20
675.302659
 30
0.0
 10
370.263443
 20
675.302659
 30
0.0
 10
365.392155
 20
675.302659
 30
0.0
 10
364.719083
 20
673.548686
 30
0.0
 10
364.046003
 20
671.794706
 30
0.0
 10
364.046003
 20
655.806791
 30
0.0
 10
364.046003
 20
639.818876
 30
0.0
 10
359.701230
 20
639.818876
 30
0.0
 10
355.356435
 20
639.818876
 30
0.0
 10
353.602448
 20
639.145804
 30
0.0
 10
351.848453
 20
638.472731
 30
0.0
 10
351.848453
 20
633.601444
 30
0.0
 10
351.848453
 20
628.730156
 30
0.0
 10
357.947228
 20
628.730156
 30
0.0
 10
364.046003
 20
628.730156
 30
0.0
 10
364.046003
 20
617.087059
 30
0.0
 10
364.046003
 20
605.443916
 30
0.0
 10
359.531325
 20
605.443916
 30
0.0
 10
355.016648
 20
605.443916
 30
0.0
 10
353.432550
 20
603.859841
 30
0.0
 10
351.848453
 20
602.275729
 30
0.0
 10
351.848453
 20
592.216699
 30
0.0
 10
351.848453
 20
582.157669
 30
0.0
 10
346.977180
 20
582.157669
 30
0.0
 10
342.105908
 20
582.157669
 30
0.0
 10
341.432828
 20
580.403689
 30
0.0
 10
340.759763
 20
578.649671
 30
0.0
 10
340.759763
 20
574.304899
 30
0.0
 10
340.759763
 20
569.960134
 30
0.0
 10
334.660980
 20
569.960134
 30
0.0
 10
328.562198
 20
569.960134
 30
0.0
 10
328.562198
 20
587.702021
 30
0.0
 10
328.562198
 20
605.443916
 30
0.0
 10
334.660980
 20
605.443916
 30
0.0
 10
340.759763
 20
605.443916
 30
0.0
 10
340.759763
 20
622.631374
 30
0.0
 10
340.759763
 20
639.818876
 30
0.0
 10
334.660980
 20
639.818876
 30
0.0
 10
328.562198
 20
639.818876
 30
0.0
 10
328.562198
 20
657.560771
 30
0.0
 10
328.562198
 20
675.302659
 30
0.0
 10
334.660980
 20
675.302659
 30
0.0
 10
340.759763
 20
675.302659
 30
0.0
 10
340.759763
 20
680.847019
 30
0.0
 10
340.759763
 20
686.391379
 30
0.0
 10
324.771690
 20
686.391379
 30
0.0
 10
308.783768
 20
686.391379
 30
0.0
 10
307.029788
 20
685.718299
 30
0.0
 10
305.275785
 20
685.045226
 30
0.0
 10
305.275785
 20
680.173946
 30
0.0
 10
305.275785
 20
675.302659
 30
0.0
 10
311.374560
 20
675.302659
 30
0.0
 10
317.473343
 20
675.302659
 30
0.0
 10
317.473343
 20
657.560771
 30
0.0
 10
317.473343
 20
639.818876
 30
0.0
 10
323.017688
 20
639.818876
 30
0.0
 10
328.562033
 20
639.818876
 30
0.0
 10
328.562033
 20
634.274524
 30
0.0
 10
328.562033
 20
628.730156
 30
0.0
 10
318.503003
 20
628.730156
 30
0.0
 10
308.443980
 20
628.730156
 30
0.0
 10
306.859883
 20
627.146089
 30
0.0
 10
305.275785
 20
625.561976
 30
0.0
 10
305.275785
 20
603.859841
 30
0.0
 10
305.275785
 20
582.157669
 30
0.0
 10
311.374560
 20
582.157669
 30
0.0
 10
317.473343
 20
582.157669
 30
0.0
 10
317.473343
 20
576.058879
 30
0.0
 10
317.473343
 20
569.960134
 30
0.0
 10
323.017688
 20
569.960134
 30
0.0
 10
328.562033
 20
569.960134
 30
0.0
 10
328.562033
 20
552.772631
 30
0.0
 10
328.562033
 20
535.585166
 30
0.0
 10
334.660815
 20
535.585166
 30
0.0
 10
340.759598
 20
535.585166
 30
0.0
 10
340.759598
 20
529.486376
 30
0.0
 10
340.759598
 20
523.387639
 30
0.0
 10
336.414810
 20
523.387639
 30
0.0
 10
332.070015
 20
523.387639
 30
0.0
 10
330.316028
 20
522.714559
 30
0.0
 10
328.562033
 20
522.041486
 30
0.0
 10
328.562033
 20
505.527056
 30
0.0
 10
328.562033
 20
489.012671
 30
0.0
 10
316.918905
 20
489.012671
 30
0.0
 10
305.275785
 20
489.012671
 30
0.0
 10
305.275785
 20
494.557031
 30
0.0
 10
305.275785
 20
500.101384
 30
0.0
 10
311.432513
 20
500.101384
 30
0.0
 10
317.589240
 20
500.101384
 30
0.0
 10
317.254088
 20
505.922936
 30
0.0
 10
316.918935
 20
511.744489
 30
0.0
 10
301.069088
 20
512.052529
 30
0.0
 10
285.219240
 20
512.360569
 30
0.0
 10
283.604393
 20
510.745729
 30
0.0
 10
281.989560
 20
509.130896
 30
0.0
 10
281.989560
 20
504.616226
 30
0.0
 10
281.989560
 20
500.101556
 30
0.0
 10
270.346440
 20
500.101556
 30
0.0
 10
258.703313
 20
500.101556
 30
0.0
 10
258.703313
 20
506.200301
 30
0.0
 10
258.703313
 20
512.299084
 30
0.0
 10
264.802095
 20
512.299084
 30
0.0
 10
270.900878
 20
512.299084
 30
0.0
 10
270.900878
 20
517.843444
 30
0.0
 10
270.900878
 20
523.387804
 30
0.0
 10
264.802095
 20
523.387804
 30
0.0
 10
258.703313
 20
523.387804
 30
0.0
 10
258.703313
 20
529.486549
 30
0.0
 10
258.703313
 20
535.585331
 30
0.0
 10
264.802095
 20
535.585331
 30
0.0
 10
270.900878
 20
535.585331
 30
0.0
 10
270.900878
 20
552.772796
 30
0.0
 10
270.900878
 20
569.960306
 30
0.0
 10
276.445215
 20
569.960306
 30
0.0
 10
281.989560
 20
569.960306
 30
0.0
 10
281.989560
 20
587.702194
 30
0.0
 10
281.989560
 20
605.444081
 30
0.0
 10
277.118288
 20
605.444081
 30
0.0
 10
272.247015
 20
605.444081
 30
0.0
 10
271.573943
 20
603.690109
 30
0.0
 10
270.900878
 20
601.936129
 30
0.0
 10
270.900878
 20
585.948169
 30
0.0
 10
270.900878
 20
569.960306
 30
0.0
 10
264.802095
 20
569.960306
 30
0.0
 10
258.703313
 20
569.960306
 30
0.0
 10
258.703313
 20
576.059044
 30
0.0
 10
258.703313
 20
582.157834
 30
0.0
 10
253.832040
 20
582.157834
 30
0.0
 10
248.960768
 20
582.157834
 30
0.0
 10
248.287695
 20
580.403854
 30
0.0
 10
247.614623
 20
578.649836
 30
0.0
 10
247.614623
 20
574.305071
 30
0.0
 10
247.614623
 20
569.960306
 30
0.0
 10
253.158968
 20
569.960306
 30
0.0
 10
258.703313
 20
569.960306
 30
0.0
 10
258.703313
 20
564.415939
 30
0.0
 10
258.703313
 20
558.871586
 30
0.0
 10
253.832040
 20
558.871586
 30
0.0
 10
248.960768
 20
558.871586
 30
0.0
 10
248.287695
 20
557.117606
 30
0.0
 10
247.614623
 20
555.363589
 30
0.0
 10
247.614623
 20
539.375674
 30
0.0
 10
247.614623
 20
523.387804
 30
0.0
 10
243.269843
 20
523.387804
 30
0.0
 10
238.925048
 20
523.387804
 30
0.0
 10
237.171060
 20
522.714731
 30
0.0
 10
235.417065
 20
522.041651
 30
0.0
 10
235.417065
 20
517.170371
 30
0.0
 10
235.417065
 20
512.299084
 30
0.0
 10
241.515840
 20
512.299084
 30
0.0
 10
247.614623
 20
512.299084
 30
0.0
 10
247.614623
 20
506.200301
 30
0.0
 10
247.614623
 20
500.101556
 30
0.0
 10
253.158968
 20
500.101556
 30
0.0
 10
258.703313
 20
500.101556
 30
0.0
 10
258.703313
 20
494.557196
 30
0.0
 10
258.703313
 20
489.012836
 30
0.0
 10
270.346440
 20
489.012836
 30
0.0
 10
281.989560
 20
489.012836
 30
0.0
 10
281.989560
 20
494.557196
 30
0.0
 10
281.989560
 20
500.101556
 30
0.0
 10
288.088343
 20
500.101556
 30
0.0
 10
294.187118
 20
500.101556
 30
0.0
 10
294.187118
 20
488.458414
 30
0.0
 10
294.187118
 20
476.815264
 30
0.0
 10
299.731463
 20
476.815264
 30
0.0
 10
305.275808
 20
476.815264
 30
0.0
 10
305.275808
 20
471.270941
 30
0.0
 10
305.275808
 20
465.726589
 30
0.0
 10
300.404535
 20
465.726589
 30
0.0
 10
295.533270
 20
465.726589
 30
0.0
 10
294.860190
 20
463.972609
 30
0.0
 10
294.187118
 20
462.218591
 30
0.0
 10
294.187118
 20
457.873826
 30
0.0
 10
294.187118
 20
453.529016
 30
0.0
 10
282.601943
 20
453.529016
 30
0.0
 10
271.016768
 20
453.529016
 30
0.0
 10
270.681615
 20
459.350606
 30
0.0
 10
270.346463
 20
465.172159
 30
0.0
 10
264.524903
 20
465.507439
 30
0.0
 10
258.703335
 20
465.842719
 30
0.0
 10
258.703335
 20
459.685976
 30
0.0
 10
258.703335
 20
453.529226
 30
0.0
 10
253.158990
 20
453.529226
 30
0.0
 10
247.614645
 20
453.529226
 30
0.0
 10
247.614645
 20
441.886129
 30
0.0
 10
247.614645
 20
430.242956
 30
0.0
 10
235.971525
 20
430.242956
 30
0.0
 10
224.328397
 20
430.242956
 30
0.0
 10
224.328397
 20
424.698664
 30
0.0
 10
224.328397
 20
419.154289
 30
0.0
 10
229.872742
 20
419.154289
 30
0.0
 10
235.417088
 20
419.154289
 30
0.0
 10
235.417088
 20
413.055529
 30
0.0
 10
235.417088
 20
406.956731
 30
0.0
 10
247.060207
 20
406.956731
 30
0.0
 10
258.703335
 20
406.956731
 30
0.0
 10
258.703335
 20
401.412401
 30
0.0
 10
258.703335
 20
395.868064
 30
0.0
 10
253.832063
 20
395.868064
 30
0.0
 10
248.960790
 20
395.868064
 30
0.0
 10
248.287718
 20
394.114076
 30
0.0
 10
247.614645
 20
392.360044
 30
0.0
 10
247.614645
 20
388.015271
 30
0.0
 10
247.614645
 20
383.670469
 30
0.0
 10
253.158990
 20
383.670469
 30
0.0
 10
258.703335
 20
383.670469
 30
0.0
 10
258.703335
 20
389.769266
 30
0.0
 10
258.703335
 20
395.868064
 30
0.0
 10
270.346463
 20
395.868064
 30
0.0
 10
281.989583
 20
395.868064
 30
0.0
 10
281.989583
 20
407.511199
 30
0.0
 10
281.989583
 20
419.154289
 30
0.0
 10
288.088365
 20
419.154289
 30
0.0
 10
294.187148
 20
419.154289
 30
0.0
 10
294.187148
 20
401.412401
 30
0.0
 10
294.187148
 20
383.670469
 30
0.0
 10
289.842368
 20
383.670469
 30
0.0
 10
285.497573
 20
383.670469
 30
0.0
 10
283.743585
 20
382.997396
 30
0.0
 10
281.989583
 20
382.324361
 30
0.0
 10
281.989583
 20
371.354306
 30
0.0
 10
281.989583
 20
360.384244
 30
0.0
 10
293.632710
 20
360.384244
 30
0.0
 10
305.275838
 20
360.384244
 30
0.0
 10
305.275838
 20
366.483004
 30
0.0
 10
305.275838
 20
372.581801
 30
0.0
 10
299.731493
 20
372.581801
 30
0.0
 10
294.187148
 20
372.581801
 30
0.0
 10
294.187148
 20
378.126176
 30
0.0
 10
294.187148
 20
383.670469
 30
0.0
 10
299.731493
 20
383.670469
 30
0.0
 10
305.275838
 20
383.670469
 30
0.0
 10
305.275838
 20
389.769266
 30
0.0
 10
305.275838
 20
395.868064
 30
0.0
 10
311.374613
 20
395.868064
 30
0.0
 10
317.473395
 20
395.868064
 30
0.0
 10
317.473395
 20
389.769266
 30
0.0
 10
317.473395
 20
383.670469
 30
0.0
 10
323.017740
 20
383.670469
 30
0.0
 10
328.562085
 20
383.670469
 30
0.0
 10
328.562085
 20
366.483004
 30
0.0
 10
328.562085
 20
349.295539
 30
0.0
 10
334.660860
 20
349.295539
 30
0.0
 10
340.759643
 20
349.295539
 30
0.0
 10
340.759643
 20
343.196779
 30
0.0
 10
340.759643
 20
337.097981
 30
0.0
 10
336.414863
 20
337.097981
 30
0.0
 10
332.070068
 20
337.097981
 30
0.0
 10
330.316080
 20
336.424909
 30
0.0
 10
328.562085
 20
335.751836
 30
0.0
 10
328.562085
 20
330.880571
 30
0.0
 10
328.562085
 20
326.009314
 30
0.0
 10
334.660860
 20
326.009314
 30
0.0
 10
340.759643
 20
326.009314
 30
0.0
 10
340.759643
 20
331.553644
 30
0.0
 10
340.759643
 20
337.097981
 30
0.0
 10
346.303988
 20
337.097981
 30
0.0
 10
351.848333
 20
337.097981
 30
0.0
 10
351.848333
 20
343.196779
 30
0.0
 10
351.848333
 20
349.295539
 30
0.0
 10
357.947115
 20
349.295539
 30
0.0
 10
364.045883
 20
349.295539
 30
0.0
 10
364.045883
 20
354.839906
 30
0.0
 10
364.045883
 20
360.384244
 30
0.0
 10
369.590243
 20
360.384244
 30
0.0
 10
375.134595
 20
360.384244
 30
0.0
 10
375.134595
 20
354.839906
 30
0.0
 10
375.134595
 20
349.295539
 30
0.0
 10
381.233340
 20
349.295539
 30
0.0
 10
387.332130
 20
349.295539
 30
0.0
 10
387.332130
 20
343.196779
 30
0.0
 10
387.332130
 20
337.097981
 30
0.0
 10
392.876490
 20
337.097981
 30
0.0
 10
398.420850
 20
337.097981
 30
0.0
 10
398.420850
 20
343.196779
 30
0.0
 10
398.420850
 20
349.295539
 30
0.0
 10
404.519610
 20
349.295539
 30
0.0
 10
410.618370
 20
349.295539
 30
0.0
 10
410.618370
 20
331.553644
 30
0.0
 10
410.618370
 20
313.811711
 30
0.0
 10
406.273605
 20
313.811711
 30
0.0
 10
401.928795
 20
313.811711
 30
0.0
 10
400.174808
 20
313.138639
 30
0.0
 10
398.420850
 20
312.465566
 30
0.0
 10
398.420850
 20
307.594346
 30
0.0
 10
398.420850
 20
302.723044
 30
0.0
 10
393.549563
 20
302.723044
 30
0.0
 10
388.678283
 20
302.723044
 30
0.0
 10
388.005203
 20
300.969056
 30
0.0
 10
387.332130
 20
299.215061
 30
0.0
 10
387.332130
 20
294.870296
 30
0.0
 10
387.332130
 20
290.525486
 30
0.0
 10
392.876490
 20
290.525486
 30
0.0
 10
398.420850
 20
290.525486
 30
0.0
 10
398.420850
 20
296.624284
 30
0.0
 10
398.420850
 20
302.723044
 30
0.0
 10
404.519610
 20
302.723044
 30
0.0
 10
410.618370
 20
302.723044
 30
0.0
 10
410.618370
 20
291.079916
 30
0.0
 10
410.618370
 20
279.436819
 30
0.0
 10
422.261543
 20
279.436819
 30
0.0
 10
433.904633
 20
279.436819
 30
0.0
 10
433.904633
 20
273.338021
 30
0.0
 10
433.904633
 20
267.239224
 30
0.0
 10
439.448970
 20
267.239224
 30
0.0
 10
444.993300
 20
267.239224
 30
0.0
  0
LWPOLYLINE
  5
105
100
AcDbEntity
  8
Layer_1
 62
7
100
AcDbPolyline
 90
8
 70
1
 10
410.618205
 20
308.266129
 30
0.0
 10
410.618205
 20
313.810421
 30
0.0
 10
427.805678
 20
313.810421
 30
0.0
 10
444.993143
 20
313.810421
 30
0.0
 10
444.993143
 20
308.266129
 30
0.0
 10
444.993143
 20
302.721754
 30
0.0
 10
427.805678
 20
302.721754
 30
0.0
 10
410.618205
 20
302.721754
 30
0.0
  0
LWPOLYLINE
  5
106
100
AcDbEntity
  8
Layer_1
 62
7
100
AcDbPolyline
 90
16
 70
1
 10
258.703148
 20
413.054201
 30
0.0
 10
258.703148
 20
419.152999
 30
0.0
 10
253.158803
 20
419.152999
 30
0.0
 10
247.614457
 20
419.152999
 30
0.0
 10
247.614457
 20
424.697374
 30
0.0
 10
247.614457
 20
430.241666
 30
0.0
 10
253.158803
 20
430.241666
 30
0.0
 10
258.703148
 20
430.241666
 30
0.0
 10
258.703148
 20
424.697374
 30
0.0
 10
258.703148
 20
419.152999
 30
0.0
 10
264.801930
 20
419.152999
 30
0.0
 10
270.900705
 20
419.152999
 30
0.0
 10
270.900705
 20
413.054201
 30
0.0
 10
270.900705
 20
406.955441
 30
0.0
 10
264.801930
 20
406.955441
 30
0.0
 10
258.703148
 20
406.955441
 30
0.0
  0
LWPOLYLINE
  5
107
100
AcDbEntity
  8
Layer_1
 62
7
100
AcDbPolyline
 90
8
 70
1
 10
294.186960
 20
424.697374
 30
0.0
 10
294.186960
 20
430.241666
 30
0.0
 10
299.731305
 20
430.241666
 30
0.0
 10
305.275650
 20
430.241666
 30
0.0
 10
305.275650
 20
424.697374
 30
0.0
 10
305.275650
 20
419.152999
 30
0.0
 10
299.731305
 20
419.152999
 30
0.0
 10
294.186960
 20
419.152999
 30
0.0
  0
LWPOLYLINE
  5
108
100
AcDbEntity
  8
Layer_1
 62
7
100
AcDbPolyline
 90
8
 70
1
 10
258.703148
 20
447.983606
 30
0.0
 10
258.703148
 20
453.527929
 30
0.0
 10
264.801930
 20
453.527929
 30
0.0
 10
270.900705
 20
453.527929
 30
0.0
 10
270.900705
 20
447.983606
 30
0.0
 10
270.900705
 20
442.439269
 30
0.0
 10
264.801930
 20
442.439269
 30
0.0
 10
258.703148
 20
442.439269
 30
0.0
  0
LWPOLYLINE
  5
109
100
AcDbEntity
  8
Layer_1
 62
7
100
AcDbPolyline
 90
8
 70
1
 10
375.134385
 20
471.269854
 30
0.0
 10
375.134385
 20
476.814176
 30
0.0
 10
381.233175
 20
476.814176
 30
0.0
 10
387.331957
 20
476.814176
 30
0.0
 10
387.331957
 20
471.269854
 30
0.0
 10
387.331957
 20
465.725501
 30
0.0
 10
381.233175
 20
465.725501
 30
0.0
 10
375.134385
 20
465.725501
 30
0.0
  0
LWPOLYLINE
  5
10a
100
AcDbEntity
  8
Layer_1
 62
7
100
AcDbPolyline
 90
8
 70
1
 10
247.614457
 20
517.842356
 30
0.0
 10
247.614457
 20
523.386716
 30
0.0
 10
253.158803
 20
523.386716
 30
0.0
 10
258.703148
 20
523.386716
 30
0.0
 10
258.703148
 20
517.842356
 30
0.0
 10
258.703148
 20
512.297996
 30
0.0
 10
253.158803
 20
512.297996
 30
0.0
 10
247.614457
 20
512.297996
 30
0.0
  0
LWPOLYLINE
  5
10b
100
AcDbEntity
  8
Layer_1
 62
7
100
AcDbPolyline
 90
24
 70
1
 10
340.759455
 20
547.227394
 30
0.0
 10
340.759455
 20
558.870491
 30
0.0
 10
346.303800
 20
558.870491
 30
0.0
 10
351.848145
 20
558.870491
 30
0.0
 10
351.848145
 20
570.513641
 30
0.0
 10
351.848145
 20
582.156739
 30
0.0
 10
357.946920
 20
582.156739
 30
0.0
 10
364.045710
 20
582.156739
 30
0.0
 10
364.045710
 20
587.701099
 30
0.0
 10
364.045710
 20
593.245459
 30
0.0
 10
369.590070
 20
593.245459
 30
0.0
 10
375.134385
 20
593.245459
 30
0.0
 10
375.134385
 20
587.701099
 30
0.0
 10
375.134385
 20
582.156739
 30
0.0
 10
369.590070
 20
582.156739
 30
0.0
 10
364.045710
 20
582.156739
 30
0.0
 10
364.045710
 20
570.513641
 30
0.0
 10
364.045710
 20
558.870491
 30
0.0
 10
357.946920
 20
558.870491
 30
0.0
 10
351.848145
 20
558.870491
 30
0.0
 10
351.848145
 20
547.227394
 30
0.0
 10
351.848145
 20
535.584244
 30
0.0
 10
346.303800
 20
535.584244
 30
0.0
 10
340.759455
 20
535.584244
 30
0.0
  0
LWPOLYLINE
  5
10c
100
AcDbEntity
  8
Layer_1
 62
7
100
AcDbPolyline
 90
16
 70
1
 10
375.134385
 20
622.630451
 30
0.0
 10
375.134385
 20
628.729241
 30
0.0
 10
369.590070
 20
628.729241
 30
0.0
 10
364.045710
 20
628.729241
 30
0.0
 10
364.045710
 20
634.273601
 30
0.0
 10
364.045710
 20
639.817961
 30
0.0
 10
369.590070
 20
639.817961
 30
0.0
 10
375.134385
 20
639.817961
 30
0.0
 10
375.134385
 20
634.273601
 30
0.0
 10
375.134385
 20
628.729241
 30
0.0
 10
381.233175
 20
628.729241
 30
0.0
 10
387.331957
 20
628.729241
 30
0.0
 10
387.331957
 20
622.630451
 30
0.0
 10
387.331957
 20
616.531706
 30
0.0
 10
381.233175
 20
616.531706
 30
0.0
 10
375.134385
 20
616.531706
 30
0.0
  0
LWPOLYLINE
  5
10d
100
AcDbEntity
  8
Layer_1
 62
7
100
AcDbPolyline
 90
8
 70
1
 10
131.183227
 20
284.979859
 30
0.0
 10
131.183227
 20
290.524196
 30
0.0
 10
125.084437
 20
290.524196
 30
0.0
 10
118.985655
 20
290.524196
 30
0.0
 10
118.985655
 20
284.979859
 30
0.0
 10
118.985655
 20
279.435491
 30
0.0
 10
125.084437
 20
279.435491
 30
0.0
 10
131.183227
 20
279.435491
 30
0.0
  0
LWPOLYLINE
  5
10e
100
AcDbEntity
  8
Layer_1
 62
7
100
AcDbPolyline
 90
10
 70
1
 10
317.473208
 20
284.979859
 30
0.0
 10
317.473208
 20
290.524196
 30
0.0
 10
313.128427
 20
290.524196
 30
0.0
 10
308.783632
 20
290.524196
 30
0.0
 10
307.029645
 20
289.851124
 30
0.0
 10
305.275650
 20
289.178014
 30
0.0
 10
305.275650
 20
284.306794
 30
0.0
 10
305.275650
 20
279.435491
 30
0.0
 10
311.374425
 20
279.435491
 30
0.0
 10
317.473208
 20
279.435491
 30
0.0
  0
LWPOLYLINE
  5
10f
100
AcDbEntity
  8
Layer_1
 62
7
100
AcDbPolyline
 90
10
 70
1
 10
131.183227
 20
308.266129
 30
0.0
 10
131.183227
 20
313.810421
 30
0.0
 10
126.838417
 20
313.810421
 30
0.0
 10
122.493652
 20
313.810421
 30
0.0
 10
120.739672
 20
313.137349
 30
0.0
 10
118.985655
 20
312.464276
 30
0.0
 10
118.985655
 20
307.593056
 30
0.0
 10
118.985655
 20
302.721754
 30
0.0
 10
125.084437
 20
302.721754
 30
0.0
 10
131.183227
 20
302.721754
 30
0.0
  0
LWPOLYLINE
  5
110
100
AcDbEntity
  8
Layer_1
 62
7
100
AcDbPolyline
 90
34
 70
1
 10
561.424387
 20
308.266129
 30
0.0
 10
561.424387
 20
313.810421
 30
0.0
 10
567.581077
 20
313.810421
 30
0.0
 10
573.737813
 20
313.810421
 30
0.0
 10
573.402570
 20
319.632026
 30
0.0
 10
573.067282
 20
325.453594
 30
0.0
 10
567.245715
 20
325.788836
 30
0.0
 10
561.424155
 20
326.124124
 30
0.0
 10
561.424155
 20
337.709321
 30
0.0
 10
561.424155
 20
349.294519
 30
0.0
 10
567.522952
 20
349.294519
 30
0.0
 10
573.621750
 20
349.294519
 30
0.0
 10
573.621750
 20
354.838856
 30
0.0
 10
573.621750
 20
360.383186
 30
0.0
 10
567.522952
 20
360.383186
 30
0.0
 10
561.424155
 20
360.383186
 30
0.0
 10
561.424155
 20
366.481984
 30
0.0
 10
561.424155
 20
372.580744
 30
0.0
 10
539.722028
 20
372.580744
 30
0.0
 10
518.019863
 20
372.580744
 30
0.0
 10
516.435803
 20
370.996646
 30
0.0
 10
514.851660
 20
369.412579
 30
0.0
 10
514.851660
 20
364.897886
 30
0.0
 10
514.851660
 20
360.383186
 30
0.0
 10
526.494757
 20
360.383186
 30
0.0
 10
538.137930
 20
360.383186
 30
0.0
 10
538.137930
 20
343.195721
 30
0.0
 10
538.137930
 20
326.008256
 30
0.0
 10
544.236683
 20
326.008256
 30
0.0
 10
550.335487
 20
326.008256
 30
0.0
 10
550.335487
 20
314.365121
 30
0.0
 10
550.335487
 20
302.721986
 30
0.0
 10
555.879817
 20
302.721986
 30
0.0
 10
561.424155
 20
302.721986
 30
0.0
  0
LWPOLYLINE
  5
111
100
AcDbEntity
  8
Layer_1
 62
7
100
AcDbPolyline
 90
36
 70
1
 10
258.703148
 20
319.909219
 30
0.0
 10
258.703148
 20
326.008016
 30
0.0
 10
253.158803
 20
326.008016
 30
0.0
 10
247.614457
 20
326.008016
 30
0.0
 10
247.614457
 20
331.552354
 30
0.0
 10
247.614457
 20
337.096684
 30
0.0
 10
253.158803
 20
337.096684
 30
0.0
 10
258.703148
 20
337.096684
 30
0.0
 10
258.703148
 20
343.195489
 30
0.0
 10
258.703148
 20
349.294249
 30
0.0
 10
264.801930
 20
349.294249
 30
0.0
 10
270.900705
 20
349.294249
 30
0.0
 10
270.900705
 20
354.838616
 30
0.0
 10
270.900705
 20
360.382916
 30
0.0
 10
264.801930
 20
360.382916
 30
0.0
 10
258.703148
 20
360.382916
 30
0.0
 10
258.703148
 20
366.481714
 30
0.0
 10
258.703148
 20
372.580511
 30
0.0
 10
253.831883
 20
372.580511
 30
0.0
 10
248.960610
 20
372.580511
 30
0.0
 10
248.287530
 20
370.826516
 30
0.0
 10
247.614458
 20
369.072529
 30
0.0
 10
247.614458
 20
353.084584
 30
0.0
 10
247.614458
 20
337.096684
 30
0.0
 10
243.269678
 20
337.096684
 30
0.0
 10
238.924882
 20
337.096684
 30
0.0
 10
237.170895
 20
336.423619
 30
0.0
 10
235.416900
 20
335.750546
 30
0.0
 10
235.416900
 20
330.879281
 30
0.0
 10
235.416900
 20
326.008016
 30
0.0
 10
241.515683
 20
326.008016
 30
0.0
 10
247.614458
 20
326.008016
 30
0.0
 10
247.614458
 20
319.909219
 30
0.0
 10
247.614458
 20
313.810421
 30
0.0
 10
253.158803
 20
313.810421
 30
0.0
 10
258.703148
 20
313.810421
 30
0.0
  0
LWPOLYLINE
  5
112
100
AcDbEntity
  8
Layer_1
 62
7
100
AcDbPolyline
 90
12
 70
1
 10
317.224140
 20
331.275124
 30
0.0
 10
316.918792
 20
348.739819
 30
0.0
 10
301.068938
 20
349.047874
 30
0.0
 10
285.219097
 20
349.355899
 30
0.0
 10
283.604250
 20
347.741089
 30
0.0
 10
281.989418
 20
346.126241
 30
0.0
 10
281.989418
 20
330.707666
 30
0.0
 10
281.989418
 20
315.289099
 30
0.0
 10
282.728670
 20
314.549839
 30
0.0
 10
283.467908
 20
313.810616
 30
0.0
 10
300.498728
 20
313.810616
 30
0.0
 10
317.529548
 20
313.810616
 30
0.0
  0
LWPOLYLINE
  5
113
100
AcDbEntity
  8
Layer_1
 62
7
100
AcDbPolyline
 90
8
 70
1
 10
294.186960
 20
331.552586
 30
0.0
 10
294.186960
 20
337.096886
 30
0.0
 10
299.731305
 20
337.096886
 30
0.0
 10
305.275650
 20
337.096886
 30
0.0
 10
305.275650
 20
331.552586
 30
0.0
 10
305.275650
 20
326.008211
 30
0.0
 10
299.731305
 20
326.008211
 30
0.0
 10
294.186960
 20
326.008211
 30
0.0
  0
LWPOLYLINE
  5
114
100
AcDbEntity
  8
Layer_1
 62
7
100
AcDbPolyline
 90
12
 70
1
 10
526.800390
 20
331.275124
 30
0.0
 10
526.494870
 20
348.739819
 30
0.0
 10
510.644985
 20
349.047874
 30
0.0
 10
494.795167
 20
349.355899
 30
0.0
 10
493.180282
 20
347.741089
 30
0.0
 10
491.565472
 20
346.126241
 30
0.0
 10
491.565472
 20
330.707666
 30
0.0
 10
491.565472
 20
315.289099
 30
0.0
 10
492.304695
 20
314.549839
 30
0.0
 10
493.043955
 20
313.810616
 30
0.0
 10
510.074752
 20
313.810616
 30
0.0
 10
527.105625
 20
313.810616
 30
0.0
  0
LWPOLYLINE
  5
115
100
AcDbEntity
  8
Layer_1
 62
7
100
AcDbPolyline
 90
8
 70
1
 10
503.763188
 20
331.552586
 30
0.0
 10
503.763188
 20
337.096886
 30
0.0
 10
509.307525
 20
337.096886
 30
0.0
 10
514.851893
 20
337.096886
 30
0.0
 10
514.851893
 20
331.552586
 30
0.0
 10
514.851893
 20
326.008211
 30
0.0
 10
509.307525
 20
326.008211
 30
0.0
 10
503.763188
 20
326.008211
 30
0.0
  0
LWPOLYLINE
  5
116
100
AcDbEntity
  8
Layer_1
 62
7
100
AcDbPolyline
 90
28
 70
1
 10
165.558150
 20
348.740051
 30
0.0
 10
165.558150
 20
360.383149
 30
0.0
 10
177.201278
 20
360.383149
 30
0.0
 10
188.844405
 20
360.383149
 30
0.0
 10
188.844405
 20
366.481909
 30
0.0
 10
188.844405
 20
372.580706
 30
0.0
 10
172.330005
 20
372.580706
 30
0.0
 10
155.815628
 20
372.580706
 30
0.0
 10
155.142555
 20
370.826749
 30
0.0
 10
154.469475
 20
369.072724
 30
0.0
 10
154.469475
 20
364.727951
 30
0.0
 10
154.469475
 20
360.383149
 30
0.0
 10
150.124665
 20
360.383149
 30
0.0
 10
145.779900
 20
360.383149
 30
0.0
 10
144.025920
 20
359.710076
 30
0.0
 10
142.271902
 20
359.037004
 30
0.0
 10
142.271902
 20
354.165739
 30
0.0
 10
142.271902
 20
349.294481
 30
0.0
 10
132.212873
 20
349.294481
 30
0.0
 10
122.153842
 20
349.294481
 30
0.0
 10
120.569768
 20
347.710339
 30
0.0
 10
118.985655
 20
346.126279
 30
0.0
 10
118.985655
 20
342.350839
 30
0.0
 10
118.985655
 20
338.575406
 30
0.0
 10
119.724908
 20
337.836146
 30
0.0
 10
120.464160
 20
337.096886
 30
0.0
 10
143.011155
 20
337.096886
 30
0.0
 10
165.558150
 20
337.096886
 30
0.0
  0
LWPOLYLINE
  5
117
100
AcDbEntity
  8
Layer_1
 62
7
100
AcDbPolyline
 90
10
 70
1
 10
188.844405
 20
343.195684
 30
0.0
 10
188.844405
 20
349.294481
 30
0.0
 10
183.973132
 20
349.294481
 30
0.0
 10
179.101860
 20
349.294481
 30
0.0
 10
178.428787
 20
347.540449
 30
0.0
 10
177.755715
 20
345.786454
 30
0.0
 10
177.755715
 20
341.441689
 30
0.0
 10
177.755715
 20
337.096886
 30
0.0
 10
183.300060
 20
337.096886
 30
0.0
 10
188.844405
 20
337.096886
 30
0.0
  0
LWPOLYLINE
  5
118
100
AcDbEntity
  8
Layer_1
 62
7
100
AcDbPolyline
 90
26
 70
1
 10
118.985655
 20
366.481909
 30
0.0
 10
118.985655
 20
372.580706
 30
0.0
 10
125.123212
 20
372.580706
 30
0.0
 10
131.260800
 20
372.580706
 30
0.0
 10
130.944802
 20
383.946604
 30
0.0
 10
130.628805
 20
395.312546
 30
0.0
 10
126.458962
 20
395.657449
 30
0.0
 10
122.289127
 20
396.002359
 30
0.0
 10
120.637372
 20
394.350664
 30
0.0
 10
118.985655
 20
392.698924
 30
0.0
 10
118.985655
 20
382.639894
 30
0.0
 10
118.985655
 20
372.580864
 30
0.0
 10
113.441295
 20
372.580864
 30
0.0
 10
107.896980
 20
372.580864
 30
0.0
 10
107.896980
 20
378.125239
 30
0.0
 10
107.896980
 20
383.669569
 30
0.0
 10
101.798190
 20
383.669569
 30
0.0
 10
95.699408
 20
383.669569
 30
0.0
 10
95.699408
 20
378.125239
 30
0.0
 10
95.699408
 20
372.580864
 30
0.0
 10
101.798190
 20
372.580864
 30
0.0
 10
107.896980
 20
372.580864
 30
0.0
 10
107.896980
 20
366.482104
 30
0.0
 10
107.896980
 20
360.383306
 30
0.0
 10
113.441295
 20
360.383306
 30
0.0
 10
118.985655
 20
360.383306
 30
0.0
  0
LWPOLYLINE
  5
119
100
AcDbEntity
  8
Layer_1
 62
7
100
AcDbPolyline
 90
10
 70
1
 10
165.558150
 20
389.768171
 30
0.0
 10
165.558150
 20
395.866969
 30
0.0
 10
160.686870
 20
395.866969
 30
0.0
 10
155.815628
 20
395.866969
 30
0.0
 10
155.142555
 20
394.112981
 30
0.0
 10
154.469475
 20
392.358986
 30
0.0
 10
154.469475
 20
388.014176
 30
0.0
 10
154.469475
 20
383.669374
 30
0.0
 10
160.013798
 20
383.669374
 30
0.0
 10
165.558150
 20
383.669374
 30
0.0
  0
LWPOLYLINE
  5
11a
100
AcDbEntity
  8
Layer_1
 62
7
100
AcDbPolyline
 90
24
 70
1
 10
188.844405
 20
395.312546
 30
0.0
 10
188.844405
 20
406.955636
 30
0.0
 10
200.487525
 20
406.955636
 30
0.0
 10
212.130653
 20
406.955636
 30
0.0
 10
212.130653
 20
413.054434
 30
0.0
 10
212.130653
 20
419.153194
 30
0.0
 10
200.487525
 20
419.153194
 30
0.0
 10
188.844405
 20
419.153194
 30
0.0
 10
188.844405
 20
424.697569
 30
0.0
 10
188.844405
 20
430.241906
 30
0.0
 10
183.300060
 20
430.241906
 30
0.0
 10
177.755715
 20
430.241906
 30
0.0
 10
177.755715
 20
424.697569
 30
0.0
 10
177.755715
 20
419.153194
 30
0.0
 10
183.300060
 20
419.153194
 30
0.0
 10
188.844405
 20
419.153194
 30
0.0
 10
188.844405
 20
413.115191
 30
0.0
 10
188.844405
 20
407.077181
 30
0.0
 10
183.577275
 20
406.739389
 30
0.0
 10
178.310145
 20
406.401604
 30
0.0
 10
177.994147
 20
395.035661
 30
0.0
 10
177.678143
 20
383.669764
 30
0.0
 10
183.261285
 20
383.669764
 30
0.0
 10
188.844420
 20
383.669764
 30
0.0
  0
LWPOLYLINE
  5
11b
100
AcDbEntity
  8
Layer_1
 62
7
100
AcDbPolyline
 90
10
 70
1
 10
212.130652
 20
389.768171
 30
0.0
 10
212.130652
 20
395.866969
 30
0.0
 10
207.259380
 20
395.866969
 30
0.0
 10
202.388108
 20
395.866969
 30
0.0
 10
201.715035
 20
394.112981
 30
0.0
 10
201.041963
 20
392.358986
 30
0.0
 10
201.041963
 20
388.014176
 30
0.0
 10
201.041963
 20
383.669374
 30
0.0
 10
206.586308
 20
383.669374
 30
0.0
 10
212.130653
 20
383.669374
 30
0.0
  0
LWPOLYLINE
  5
11c
100
AcDbEntity
  8
Layer_1
 62
7
100
AcDbPolyline
 90
52
 70
1
 10
433.904475
 20
407.510104
 30
0.0
 10
433.904475
 20
419.153194
 30
0.0
 10
439.448768
 20
419.153194
 30
0.0
 10
444.993143
 20
419.153194
 30
0.0
 10
444.993143
 20
424.697569
 30
0.0
 10
444.993143
 20
430.241906
 30
0.0
 10
439.448768
 20
430.241906
 30
0.0
 10
433.904475
 20
430.241906
 30
0.0
 10
433.904475
 20
441.885034
 30
0.0
 10
433.904475
 20
453.528131
 30
0.0
 10
427.805678
 20
453.528131
 30
0.0
 10
421.706873
 20
453.528131
 30
0.0
 10
421.706873
 20
459.626921
 30
0.0
 10
421.706873
 20
465.725704
 30
0.0
 10
427.805678
 20
465.725704
 30
0.0
 10
433.904475
 20
465.725704
 30
0.0
 10
433.904475
 20
471.270071
 30
0.0
 10
433.904475
 20
476.814379
 30
0.0
 10
439.448768
 20
476.814379
 30
0.0
 10
444.993143
 20
476.814379
 30
0.0
 10
444.993143
 20
482.913169
 30
0.0
 10
444.993143
 20
489.011959
 30
0.0
 10
439.448768
 20
489.011959
 30
0.0
 10
433.904475
 20
489.011959
 30
0.0
 10
433.904475
 20
482.913169
 30
0.0
 10
433.904475
 20
476.814379
 30
0.0
 10
427.805678
 20
476.814379
 30
0.0
 10
421.706873
 20
476.814379
 30
0.0
 10
421.706873
 20
482.913169
 30
0.0
 10
421.706873
 20
489.011959
 30
0.0
 10
416.835653
 20
489.011959
 30
0.0
 10
411.964350
 20
489.011959
 30
0.0
 10
411.291277
 20
487.257979
 30
0.0
 10
410.618205
 20
485.503961
 30
0.0
 10
410.618205
 20
469.516046
 30
0.0
 10
410.618205
 20
453.528131
 30
0.0
 10
416.162580
 20
453.528131
 30
0.0
 10
421.706873
 20
453.528131
 30
0.0
 10
421.706873
 20
447.983816
 30
0.0
 10
421.706873
 20
442.439464
 30
0.0
 10
416.835653
 20
442.439464
 30
0.0
 10
411.964350
 20
442.439464
 30
0.0
 10
411.291277
 20
440.685469
 30
0.0
 10
410.618205
 20
438.931474
 30
0.0
 10
410.618205
 20
429.042334
 30
0.0
 10
410.618205
 20
419.153194
 30
0.0
 10
416.162580
 20
419.153194
 30
0.0
 10
421.706873
 20
419.153194
 30
0.0
 10
421.706873
 20
407.510104
 30
0.0
 10
421.706873
 20
395.866969
 30
0.0
 10
427.805678
 20
395.866969
 30
0.0
 10
433.904475
 20
395.866969
 30
0.0
  0
LWPOLYLINE
  5
11d
100
AcDbEntity
  8
Layer_1
 62
7
100
AcDbPolyline
 90
8
 70
1
 10
421.706873
 20
424.697569
 30
0.0
 10
421.706873
 20
430.241906
 30
0.0
 10
427.805678
 20
430.241906
 30
0.0
 10
433.904475
 20
430.241906
 30
0.0
 10
433.904475
 20
424.697569
 30
0.0
 10
433.904475
 20
419.153194
 30
0.0
 10
427.805678
 20
419.153194
 30
0.0
 10
421.706873
 20
419.153194
 30
0.0
  0
LWPOLYLINE
  5
11e
100
AcDbEntity
  8
Layer_1
 62
7
100
AcDbPolyline
 90
10
 70
1
 10
37.483811
 20
413.054434
 30
0.0
 10
37.483811
 20
418.598771
 30
0.0
 10
33.313931
 20
418.943719
 30
0.0
 10
29.144096
 20
419.288621
 30
0.0
 10
27.492380
 20
417.636889
 30
0.0
 10
25.840664
 20
415.985186
 30
0.0
 10
25.840664
 20
411.412556
 30
0.0
 10
25.840664
 20
406.839926
 30
0.0
 10
31.662216
 20
407.175214
 30
0.0
 10
37.483811
 20
407.510494
 30
0.0
  0
LWPOLYLINE
  5
11f
100
AcDbEntity
  8
Layer_1
 62
7
100
AcDbPolyline
 90
10
 70
1
 10
527.049458
 20
424.697569
 30
0.0
 10
527.049458
 20
430.241906
 30
0.0
 10
522.704647
 20
430.241906
 30
0.0
 10
518.359883
 20
430.241906
 30
0.0
 10
516.605850
 20
429.568871
 30
0.0
 10
514.851893
 20
428.895761
 30
0.0
 10
514.851893
 20
424.024496
 30
0.0
 10
514.851893
 20
419.153194
 30
0.0
 10
520.950652
 20
419.153194
 30
0.0
 10
527.049458
 20
419.153194
 30
0.0
  0
LWPOLYLINE
  5
120
100
AcDbEntity
  8
Layer_1
 62
7
100
AcDbPolyline
 90
10
 70
1
 10
49.126910
 20
447.983816
 30
0.0
 10
49.126910
 20
465.725704
 30
0.0
 10
44.255625
 20
465.725704
 30
0.0
 10
39.384387
 20
465.725704
 30
0.0
 10
38.711312
 20
463.971731
 30
0.0
 10
38.038238
 20
462.217714
 30
0.0
 10
38.038238
 20
446.229799
 30
0.0
 10
38.038238
 20
430.241906
 30
0.0
 10
43.582555
 20
430.241906
 30
0.0
 10
49.126910
 20
430.241906
 30
0.0
  0
LWPOLYLINE
  5
121
100
AcDbEntity
  8
Layer_1
 62
7
100
AcDbPolyline
 90
72
 70
1
 10
72.413155
 20
436.340666
 30
0.0
 10
72.413155
 20
442.439464
 30
0.0
 10
78.511942
 20
442.439464
 30
0.0
 10
84.610732
 20
442.439464
 30
0.0
 10
84.610732
 20
436.340666
 30
0.0
 10
84.610732
 20
430.241906
 30
0.0
 10
90.155047
 20
430.241906
 30
0.0
 10
95.699408
 20
430.241906
 30
0.0
 10
95.699408
 20
436.340666
 30
0.0
 10
95.699408
 20
442.439464
 30
0.0
 10
90.155047
 20
442.439464
 30
0.0
 10
84.610732
 20
442.439464
 30
0.0
 10
84.610732
 20
447.983816
 30
0.0
 10
84.610732
 20
453.528131
 30
0.0
 10
96.311797
 20
453.528131
 30
0.0
 10
108.012862
 20
453.528131
 30
0.0
 10
107.677582
 20
459.349729
 30
0.0
 10
107.342303
 20
465.171281
 30
0.0
 10
95.976390
 20
465.487286
 30
0.0
 10
84.610478
 20
465.803284
 30
0.0
 10
84.610478
 20
471.308831
 30
0.0
 10
84.610478
 20
476.814379
 30
0.0
 10
101.797943
 20
476.814379
 30
0.0
 10
118.985408
 20
476.814379
 30
0.0
 10
118.985408
 20
482.913169
 30
0.0
 10
118.985408
 20
489.011959
 30
0.0
 10
113.441047
 20
489.011959
 30
0.0
 10
107.896725
 20
489.011959
 30
0.0
 10
107.896725
 20
494.556311
 30
0.0
 10
107.896725
 20
500.100671
 30
0.0
 10
101.797943
 20
500.100671
 30
0.0
 10
95.699152
 20
500.100671
 30
0.0
 10
95.699152
 20
506.199416
 30
0.0
 10
95.699152
 20
512.298206
 30
0.0
 10
90.827872
 20
512.298206
 30
0.0
 10
85.956630
 20
512.298206
 30
0.0
 10
85.283558
 20
510.544226
 30
0.0
 10
84.610478
 20
508.790216
 30
0.0
 10
84.610478
 20
504.484249
 30
0.0
 10
84.610478
 20
500.178251
 30
0.0
 10
73.244571
 20
499.862246
 30
0.0
 10
61.878659
 20
499.546249
 30
0.0
 10
61.540864
 20
494.279119
 30
0.0
 10
61.203068
 20
489.011996
 30
0.0
 10
50.293770
 20
489.011996
 30
0.0
 10
39.384513
 20
489.011996
 30
0.0
 10
38.711438
 20
487.258024
 30
0.0
 10
38.038364
 20
485.504006
 30
0.0
 10
38.038364
 20
481.159234
 30
0.0
 10
38.038364
 20
476.814424
 30
0.0
 10
49.681461
 20
476.814424
 30
0.0
 10
61.324610
 20
476.814424
 30
0.0
 10
61.324610
 20
482.913214
 30
0.0
 10
61.324610
 20
489.011996
 30
0.0
 10
72.967710
 20
489.011996
 30
0.0
 10
84.610860
 20
489.011996
 30
0.0
 10
84.610860
 20
482.913214
 30
0.0
 10
84.610860
 20
476.814424
 30
0.0
 10
80.266042
 20
476.814424
 30
0.0
 10
75.921278
 20
476.814424
 30
0.0
 10
74.167258
 20
476.141396
 30
0.0
 10
72.413284
 20
475.468316
 30
0.0
 10
72.413284
 20
470.597029
 30
0.0
 10
72.413284
 20
465.725749
 30
0.0
 10
67.541999
 20
465.725749
 30
0.0
 10
62.670757
 20
465.725749
 30
0.0
 10
61.997681
 20
463.971776
 30
0.0
 10
61.324609
 20
462.217751
 30
0.0
 10
61.324609
 20
446.229844
 30
0.0
 10
61.324609
 20
430.241944
 30
0.0
 10
66.868924
 20
430.241944
 30
0.0
 10
72.413284
 20
430.241944
 30
0.0
  0
LWPOLYLINE
  5
122
100
AcDbEntity
  8
Layer_1
 62
7
100
AcDbPolyline
 90
8
 70
1
 10
84.610733
 20
494.556311
 30
0.0
 10
84.610733
 20
500.100671
 30
0.0
 10
90.155048
 20
500.100671
 30
0.0
 10
95.699408
 20
500.100671
 30
0.0
 10
95.699408
 20
494.556311
 30
0.0
 10
95.699408
 20
489.011959
 30
0.0
 10
90.155048
 20
489.011959
 30
0.0
 10
84.610733
 20
489.011959
 30
0.0
  0
LWPOLYLINE
  5
123
100
AcDbEntity
  8
Layer_1
 62
7
100
AcDbPolyline
 90
10
 70
1
 10
457.190700
 20
447.983816
 30
0.0
 10
457.190700
 20
453.528131
 30
0.0
 10
452.845890
 20
453.528131
 30
0.0
 10
448.501125
 20
453.528131
 30
0.0
 10
446.747093
 20
452.855104
 30
0.0
 10
444.993142
 20
452.182024
 30
0.0
 10
444.993142
 20
447.310744
 30
0.0
 10
444.993142
 20
442.439464
 30
0.0
 10
451.091940
 20
442.439464
 30
0.0
 10
457.190700
 20
442.439464
 30
0.0
  0
LWPOLYLINE
  5
124
100
AcDbEntity
  8
Layer_1
 62
7
100
AcDbPolyline
 90
8
 70
1
 10
49.126910
 20
506.199416
 30
0.0
 10
49.126910
 20
512.298206
 30
0.0
 10
43.582555
 20
512.298206
 30
0.0
 10
38.038238
 20
512.298206
 30
0.0
 10
38.038238
 20
506.199416
 30
0.0
 10
38.038238
 20
500.100671
 30
0.0
 10
43.582555
 20
500.100671
 30
0.0
 10
49.126910
 20
500.100671
 30
0.0
  0
LWPOLYLINE
  5
125
100
AcDbEntity
  8
Layer_1
 62
7
100
AcDbPolyline
 90
10
 70
1
 10
201.041963
 20
517.842566
 30
0.0
 10
201.041963
 20
523.386926
 30
0.0
 10
196.697182
 20
523.386926
 30
0.0
 10
192.352387
 20
523.386926
 30
0.0
 10
190.598400
 20
522.713846
 30
0.0
 10
188.844405
 20
522.040774
 30
0.0
 10
188.844405
 20
517.169494
 30
0.0
 10
188.844405
 20
512.298206
 30
0.0
 10
194.943180
 20
512.298206
 30
0.0
 10
201.041962
 20
512.298206
 30
0.0
  0
LWPOLYLINE
  5
126
100
AcDbEntity
  8
Layer_1
 62
7
100
AcDbPolyline
 90
12
 70
1
 10
107.647905
 20
541.406006
 30
0.0
 10
107.953432
 20
558.870701
 30
0.0
 10
91.767495
 20
558.870701
 30
0.0
 10
75.581512
 20
558.870701
 30
0.0
 10
73.997440
 20
557.286634
 30
0.0
 10
72.413328
 20
555.702521
 30
0.0
 10
72.413328
 20
540.283946
 30
0.0
 10
72.413328
 20
524.865379
 30
0.0
 10
73.180319
 20
524.098429
 30
0.0
 10
73.947275
 20
523.331434
 30
0.0
 10
90.644978
 20
523.636541
 30
0.0
 10
107.342722
 20
523.941641
 30
0.0
  0
LWPOLYLINE
  5
127
100
AcDbEntity
  8
Layer_1
 62
7
100
AcDbPolyline
 90
8
 70
1
 10
84.610733
 20
541.128979
 30
0.0
 10
84.610733
 20
546.673339
 30
0.0
 10
90.155048
 20
546.673339
 30
0.0
 10
95.699408
 20
546.673339
 30
0.0
 10
95.699408
 20
541.128979
 30
0.0
 10
95.699408
 20
535.584626
 30
0.0
 10
90.155048
 20
535.584626
 30
0.0
 10
84.610733
 20
535.584626
 30
0.0
  0
LWPOLYLINE
  5
128
100
AcDbEntity
  8
Layer_1
 62
7
100
AcDbPolyline
 90
36
 70
1
 10
142.271903
 20
535.030196
 30
0.0
 10
142.271903
 20
546.673339
 30
0.0
 10
148.370693
 20
546.673339
 30
0.0
 10
154.469475
 20
546.673339
 30
0.0
 10
154.469475
 20
552.772084
 30
0.0
 10
154.469475
 20
558.870874
 30
0.0
 10
149.954768
 20
558.870874
 30
0.0
 10
145.440098
 20
558.870874
 30
0.0
 10
143.856022
 20
557.286799
 30
0.0
 10
142.271903
 20
555.702686
 30
0.0
 10
142.271903
 20
551.188009
 30
0.0
 10
142.271903
 20
546.673339
 30
0.0
 10
136.785510
 20
546.673339
 30
0.0
 10
131.299110
 20
546.673339
 30
0.0
 10
130.963830
 20
552.494891
 30
0.0
 10
130.628550
 20
558.316444
 30
0.0
 10
126.458715
 20
558.661361
 30
0.0
 10
122.288880
 20
559.006279
 30
0.0
 10
120.569520
 20
557.286926
 30
0.0
 10
118.850160
 20
555.567566
 30
0.0
 10
119.195078
 20
551.397731
 30
0.0
 10
119.539995
 20
547.227889
 30
0.0
 10
125.361555
 20
546.892609
 30
0.0
 10
131.183145
 20
546.557329
 30
0.0
 10
131.183145
 20
541.070936
 30
0.0
 10
131.183145
 20
535.584536
 30
0.0
 10
126.668430
 20
535.584536
 30
0.0
 10
122.153760
 20
535.584536
 30
0.0
 10
120.569685
 20
534.000461
 30
0.0
 10
118.985573
 20
532.416349
 30
0.0
 10
118.985573
 20
528.640931
 30
0.0
 10
118.985573
 20
524.865469
 30
0.0
 10
119.724825
 20
524.126261
 30
0.0
 10
120.464070
 20
523.387009
 30
0.0
 10
131.367922
 20
523.387009
 30
0.0
 10
142.271820
 20
523.387009
 30
0.0
  0
LWPOLYLINE
  5
129
100
AcDbEntity
  8
Layer_1
 62
7
100
AcDbPolyline
 90
12
 70
1
 10
316.918770
 20
541.128979
 30
0.0
 10
316.918770
 20
558.316444
 30
0.0
 10
301.068922
 20
558.624484
 30
0.0
 10
285.219083
 20
558.932524
 30
0.0
 10
283.604235
 20
557.317684
 30
0.0
 10
281.989402
 20
555.702851
 30
0.0
 10
281.989402
 20
540.284284
 30
0.0
 10
281.989402
 20
524.865716
 30
0.0
 10
282.756382
 20
524.098766
 30
0.0
 10
283.523363
 20
523.331764
 30
0.0
 10
300.221070
 20
523.636879
 30
0.0
 10
316.918770
 20
523.941979
 30
0.0
  0
LWPOLYLINE
  5
12a
100
AcDbEntity
  8
Layer_1
 62
7
100
AcDbPolyline
 90
8
 70
1
 10
294.186960
 20
541.128979
 30
0.0
 10
294.186960
 20
546.673339
 30
0.0
 10
299.731305
 20
546.673339
 30
0.0
 10
305.275650
 20
546.673339
 30
0.0
 10
305.275650
 20
541.128979
 30
0.0
 10
305.275650
 20
535.584626
 30
0.0
 10
299.731305
 20
535.584626
 30
0.0
 10
294.186960
 20
535.584626
 30
0.0
  0
LWPOLYLINE
  5
12b
100
AcDbEntity
  8
Layer_1
 62
7
100
AcDbPolyline
 90
26
 70
1
 10
444.993143
 20
529.485836
 30
0.0
 10
444.993143
 20
535.584626
 30
0.0
 10
451.091940
 20
535.584626
 30
0.0
 10
457.190700
 20
535.584626
 30
0.0
 10
457.190700
 20
541.128979
 30
0.0
 10
457.190700
 20
546.673339
 30
0.0
 10
468.833790
 20
546.673339
 30
0.0
 10
480.476963
 20
546.673339
 30
0.0
 10
480.476963
 20
552.772084
 30
0.0
 10
480.476963
 20
558.870874
 30
0.0
 10
468.833790
 20
558.870874
 30
0.0
 10
457.190700
 20
558.870874
 30
0.0
 10
457.190700
 20
552.772084
 30
0.0
 10
457.190700
 20
546.673339
 30
0.0
 10
451.091940
 20
546.673339
 30
0.0
 10
444.993143
 20
546.673339
 30
0.0
 10
444.993143
 20
541.128979
 30
0.0
 10
444.993143
 20
535.584626
 30
0.0
 10
440.121840
 20
535.584626
 30
0.0
 10
435.250620
 20
535.584626
 30
0.0
 10
434.577548
 20
533.830646
 30
0.0
 10
433.904475
 20
532.076629
 30
0.0
 10
433.904475
 20
527.731856
 30
0.0
 10
433.904475
 20
523.387091
 30
0.0
 10
439.448768
 20
523.387091
 30
0.0
 10
444.993143
 20
523.387091
 30
0.0
  0
LWPOLYLINE
  5
12c
100
AcDbEntity
  8
Layer_1
 62
7
100
AcDbPolyline
 90
12
 70
1
 10
526.800390
 20
540.851749
 30
0.0
 10
526.494870
 20
558.316444
 30
0.0
 10
510.644985
 20
558.624484
 30
0.0
 10
494.795167
 20
558.932524
 30
0.0
 10
493.180282
 20
557.317684
 30
0.0
 10
491.565472
 20
555.702851
 30
0.0
 10
491.565472
 20
540.284284
 30
0.0
 10
491.565472
 20
524.865716
 30
0.0
 10
492.304695
 20
524.126509
 30
0.0
 10
493.043955
 20
523.387256
 30
0.0
 10
510.074752
 20
523.387256
 30
0.0
 10
527.105625
 20
523.387256
 30
0.0
  0
LWPOLYLINE
  5
12d
100
AcDbEntity
  8
Layer_1
 62
7
100
AcDbPolyline
 90
8
 70
1
 10
503.763188
 20
541.128776
 30
0.0
 10
503.763188
 20
546.673129
 30
0.0
 10
509.307525
 20
546.673129
 30
0.0
 10
514.851893
 20
546.673129
 30
0.0
 10
514.851893
 20
541.128776
 30
0.0
 10
514.851893
 20
535.584409
 30
0.0
 10
509.307525
 20
535.584409
 30
0.0
 10
503.763188
 20
535.584409
 30
0.0
  0
LWPOLYLINE
  5
12e
100
AcDbEntity
  8
Layer_1
 62
7
100
AcDbPolyline
 90
104
 70
1
 10
573.383520
 20
535.307216
 30
0.0
 10
573.699517
 20
546.673129
 30
0.0
 10
567.561915
 20
546.673129
 30
0.0
 10
561.424387
 20
546.673129
 30
0.0
 10
561.424387
 20
552.771874
 30
0.0
 10
561.424387
 20
558.870664
 30
0.0
 10
567.523147
 20
558.870664
 30
0.0
 10
573.621945
 20
558.870664
 30
0.0
 10
573.621945
 20
576.058121
 30
0.0
 10
573.621945
 20
593.245631
 30
0.0
 10
567.523147
 20
593.245631
 30
0.0
 10
561.424387
 20
593.245631
 30
0.0
 10
561.424387
 20
599.344376
 30
0.0
 10
561.424387
 20
605.443159
 30
0.0
 10
555.880012
 20
605.443159
 30
0.0
 10
550.335720
 20
605.443159
 30
0.0
 10
550.335720
 20
610.987519
 30
0.0
 10
550.335720
 20
616.531879
 30
0.0
 10
555.880012
 20
616.531879
 30
0.0
 10
561.424387
 20
616.531879
 30
0.0
 10
561.424387
 20
622.630624
 30
0.0
 10
561.424387
 20
628.729406
 30
0.0
 10
567.523147
 20
628.729406
 30
0.0
 10
573.621945
 20
628.729406
 30
0.0
 10
573.621945
 20
634.273766
 30
0.0
 10
573.621945
 20
639.818126
 30
0.0
 10
567.523147
 20
639.818126
 30
0.0
 10
561.424387
 20
639.818126
 30
0.0
 10
561.424387
 20
645.916916
 30
0.0
 10
561.424387
 20
652.015661
 30
0.0
 10
567.561915
 20
652.015661
 30
0.0
 10
573.699517
 20
652.015661
 30
0.0
 10
573.383520
 20
663.381566
 30
0.0
 10
573.067522
 20
674.747479
 30
0.0
 10
567.245955
 20
675.082759
 30
0.0
 10
561.424425
 20
675.418039
 30
0.0
 10
561.424425
 20
698.646326
 30
0.0
 10
561.424425
 20
721.874621
 30
0.0
 10
555.880050
 20
721.874621
 30
0.0
 10
550.335757
 20
721.874621
 30
0.0
 10
550.335757
 20
715.775884
 30
0.0
 10
550.335757
 20
709.677086
 30
0.0
 10
545.990910
 20
709.677086
 30
0.0
 10
541.646145
 20
709.677086
 30
0.0
 10
539.892150
 20
709.004006
 30
0.0
 10
538.138162
 20
708.330934
 30
0.0
 10
538.138162
 20
703.459646
 30
0.0
 10
538.138162
 20
698.588366
 30
0.0
 10
544.236960
 20
698.588366
 30
0.0
 10
550.335757
 20
698.588366
 30
0.0
 10
550.335757
 20
686.945261
 30
0.0
 10
550.335757
 20
675.302111
 30
0.0
 10
538.692585
 20
675.302111
 30
0.0
 10
527.049495
 20
675.302111
 30
0.0
 10
527.049495
 20
669.203374
 30
0.0
 10
527.049495
 20
663.104584
 30
0.0
 10
538.692585
 20
663.104584
 30
0.0
 10
550.335757
 20
663.104584
 30
0.0
 10
550.335757
 20
651.461441
 30
0.0
 10
550.335757
 20
639.818336
 30
0.0
 10
544.236960
 20
639.818336
 30
0.0
 10
538.138162
 20
639.818336
 30
0.0
 10
538.138162
 20
645.917119
 30
0.0
 10
538.138162
 20
652.015864
 30
0.0
 10
532.593825
 20
652.015864
 30
0.0
 10
527.049495
 20
652.015864
 30
0.0
 10
527.049495
 20
645.917119
 30
0.0
 10
527.049495
 20
639.818336
 30
0.0
 10
532.593825
 20
639.818336
 30
0.0
 10
538.138162
 20
639.818336
 30
0.0
 10
538.138162
 20
634.273976
 30
0.0
 10
538.138162
 20
628.729616
 30
0.0
 10
533.266897
 20
628.729616
 30
0.0
 10
528.395640
 20
628.729616
 30
0.0
 10
527.722567
 20
626.975636
 30
0.0
 10
527.049495
 20
625.221664
 30
0.0
 10
527.049495
 20
620.876854
 30
0.0
 10
527.049495
 20
616.532089
 30
0.0
 10
532.593825
 20
616.532089
 30
0.0
 10
538.138163
 20
616.532089
 30
0.0
 10
538.138163
 20
610.987729
 30
0.0
 10
538.138163
 20
605.443369
 30
0.0
 10
544.236960
 20
605.443369
 30
0.0
 10
550.335757
 20
605.443369
 30
0.0
 10
550.335757
 20
587.701481
 30
0.0
 10
550.335757
 20
569.959594
 30
0.0
 10
544.236960
 20
569.959594
 30
0.0
 10
538.138163
 20
569.959594
 30
0.0
 10
538.138163
 20
576.058331
 30
0.0
 10
538.138163
 20
582.157121
 30
0.0
 10
532.593825
 20
582.157121
 30
0.0
 10
527.049495
 20
582.157121
 30
0.0
 10
527.049495
 20
576.058331
 30
0.0
 10
527.049495
 20
569.959594
 30
0.0
 10
532.593825
 20
569.959594
 30
0.0
 10
538.138163
 20
569.959594
 30
0.0
 10
538.138163
 20
552.772084
 30
0.0
 10
538.138163
 20
535.584626
 30
0.0
 10
544.236960
 20
535.584626
 30
0.0
 10
550.335757
 20
535.584626
 30
0.0
 10
550.335757
 20
529.447069
 30
0.0
 10
550.335757
 20
523.309474
 30
0.0
 10
561.701617
 20
523.625479
 30
0.0
 10
573.067522
 20
523.941476
 30
0.0
  0
LWPOLYLINE
  5
12f
100
AcDbEntity
  8
Layer_1
 62
7
100
AcDbPolyline
 90
8
 70
1
 10
550.335720
 20
541.128776
 30
0.0
 10
550.335720
 20
546.673129
 30
0.0
 10
555.880013
 20
546.673129
 30
0.0
 10
561.424388
 20
546.673129
 30
0.0
 10
561.424388
 20
541.128776
 30
0.0
 10
561.424388
 20
535.584409
 30
0.0
 10
555.880013
 20
535.584409
 30
0.0
 10
550.335720
 20
535.584409
 30
0.0
  0
LWPOLYLINE
  5
130
100
AcDbEntity
  8
Layer_1
 62
7
100
AcDbPolyline
 90
8
 70
1
 10
550.335720
 20
564.415024
 30
0.0
 10
550.335720
 20
569.959376
 30
0.0
 10
555.880013
 20
569.959376
 30
0.0
 10
561.424388
 20
569.959376
 30
0.0
 10
561.424388
 20
564.415024
 30
0.0
 10
561.424388
 20
558.870664
 30
0.0
 10
555.880013
 20
558.870664
 30
0.0
 10
550.335720
 20
558.870664
 30
0.0
  0
LWPOLYLINE
  5
131
100
AcDbEntity
  8
Layer_1
 62
7
100
AcDbPolyline
 90
8
 70
1
 10
538.138125
 20
622.630451
 30
0.0
 10
538.138125
 20
628.729241
 30
0.0
 10
544.236922
 20
628.729241
 30
0.0
 10
550.335720
 20
628.729241
 30
0.0
 10
550.335720
 20
622.630451
 30
0.0
 10
550.335720
 20
616.531706
 30
0.0
 10
544.236922
 20
616.531706
 30
0.0
 10
538.138125
 20
616.531706
 30
0.0
  0
LWPOLYLINE
  5
132
100
AcDbEntity
  8
Layer_1
 62
7
100
AcDbPolyline
 90
8
 70
1
 10
550.335720
 20
669.202991
 30
0.0
 10
550.335720
 20
675.301736
 30
0.0
 10
555.880013
 20
675.301736
 30
0.0
 10
561.424388
 20
675.301736
 30
0.0
 10
561.424388
 20
669.202991
 30
0.0
 10
561.424388
 20
663.104209
 30
0.0
 10
555.880013
 20
663.104209
 30
0.0
 10
550.335720
 20
663.104209
 30
0.0
  0
LWPOLYLINE
  5
133
100
AcDbEntity
  8
Layer_1
 62
7
100
AcDbPolyline
 90
34
 70
1
 10
235.416900
 20
552.771709
 30
0.0
 10
235.416900
 20
558.870491
 30
0.0
 10
229.872555
 20
558.870491
 30
0.0
 10
224.328210
 20
558.870491
 30
0.0
 10
224.328210
 20
564.414851
 30
0.0
 10
224.328210
 20
569.959211
 30
0.0
 10
229.872555
 20
569.959211
 30
0.0
 10
235.416900
 20
569.959211
 30
0.0
 10
235.416900
 20
581.663081
 30
0.0
 10
235.416900
 20
593.366959
 30
0.0
 10
230.149770
 20
593.029166
 30
0.0
 10
224.882640
 20
592.691366
 30
0.0
 10
224.566643
 20
581.325499
 30
0.0
 10
224.250645
 20
569.959594
 30
0.0
 10
218.190660
 20
569.959594
 30
0.0
 10
212.130668
 20
569.959594
 30
0.0
 10
212.130668
 20
576.058331
 30
0.0
 10
212.130668
 20
582.157121
 30
0.0
 10
207.259395
 20
582.157121
 30
0.0
 10
202.388123
 20
582.157121
 30
0.0
 10
201.715050
 20
580.403141
 30
0.0
 10
201.041978
 20
578.649124
 30
0.0
 10
201.041978
 20
574.304359
 30
0.0
 10
201.041978
 20
569.959594
 30
0.0
 10
206.586323
 20
569.959594
 30
0.0
 10
212.130668
 20
569.959594
 30
0.0
 10
212.130668
 20
564.415226
 30
0.0
 10
212.130668
 20
558.870874
 30
0.0
 10
218.229443
 20
558.870874
 30
0.0
 10
224.328233
 20
558.870874
 30
0.0
 10
224.328233
 20
552.772084
 30
0.0
 10
224.328233
 20
546.673339
 30
0.0
 10
229.872570
 20
546.673339
 30
0.0
 10
235.416915
 20
546.673339
 30
0.0
  0
LWPOLYLINE
  5
134
100
AcDbEntity
  8
Layer_1
 62
7
100
AcDbPolyline
 90
10
 70
1
 10
107.342550
 20
576.057956
 30
0.0
 10
107.342550
 20
581.602316
 30
0.0
 10
96.900923
 20
581.923766
 30
0.0
 10
86.459340
 20
582.245216
 30
0.0
 10
85.552028
 20
580.815079
 30
0.0
 10
84.644678
 20
579.384896
 30
0.0
 10
84.627877
 20
574.633436
 30
0.0
 10
84.611077
 20
569.881931
 30
0.0
 10
95.976990
 20
570.197929
 30
0.0
 10
107.342903
 20
570.513934
 30
0.0
  0
LWPOLYLINE
  5
135
100
AcDbEntity
  8
Layer_1
 62
7
100
AcDbPolyline
 90
20
 70
1
 10
142.271903
 20
587.701099
 30
0.0
 10
142.271903
 20
593.245459
 30
0.0
 10
148.428652
 20
593.245459
 30
0.0
 10
154.585358
 20
593.245459
 30
0.0
 10
154.250078
 20
599.067011
 30
0.0
 10
153.914805
 20
604.888564
 30
0.0
 10
149.744963
 20
605.233481
 30
0.0
 10
145.575128
 20
605.578406
 30
0.0
 10
143.923373
 20
603.926644
 30
0.0
 10
142.271655
 20
602.274934
 30
0.0
 10
142.271655
 20
597.760256
 30
0.0
 10
142.271655
 20
593.245586
 30
0.0
 10
132.382523
 20
593.245586
 30
0.0
 10
122.493398
 20
593.245586
 30
0.0
 10
120.739425
 20
592.572514
 30
0.0
 10
118.985408
 20
591.899441
 30
0.0
 10
118.985408
 20
587.028154
 30
0.0
 10
118.985408
 20
582.156866
 30
0.0
 10
130.628550
 20
582.156866
 30
0.0
 10
142.271655
 20
582.156866
 30
0.0
  0
LWPOLYLINE
  5
136
100
AcDbEntity
  8
Layer_1
 62
7
100
AcDbPolyline
 90
10
 70
1
 10
95.699408
 20
599.344204
 30
0.0
 10
95.699408
 20
605.442994
 30
0.0
 10
90.828120
 20
605.442994
 30
0.0
 10
85.956877
 20
605.442994
 30
0.0
 10
85.283805
 20
603.689014
 30
0.0
 10
84.610732
 20
601.935041
 30
0.0
 10
84.610732
 20
597.590231
 30
0.0
 10
84.610732
 20
593.245459
 30
0.0
 10
90.155047
 20
593.245459
 30
0.0
 10
95.699408
 20
593.245459
 30
0.0
  0
LWPOLYLINE
  5
137
100
AcDbEntity
  8
Layer_1
 62
7
100
AcDbPolyline
 90
16
 70
1
 10
212.130652
 20
599.344204
 30
0.0
 10
212.130652
 20
605.442994
 30
0.0
 10
206.586307
 20
605.442994
 30
0.0
 10
201.041962
 20
605.442994
 30
0.0
 10
201.041962
 20
610.987346
 30
0.0
 10
201.041962
 20
616.531706
 30
0.0
 10
189.398842
 20
616.531706
 30
0.0
 10
177.755715
 20
616.531706
 30
0.0
 10
177.755715
 20
610.987346
 30
0.0
 10
177.755715
 20
605.442994
 30
0.0
 10
189.398842
 20
605.442994
 30
0.0
 10
201.041962
 20
605.442994
 30
0.0
 10
201.041962
 20
599.344204
 30
0.0
 10
201.041962
 20
593.245459
 30
0.0
 10
206.586307
 20
593.245459
 30
0.0
 10
212.130652
 20
593.245459
 30
0.0
  0
LWPOLYLINE
  5
138
100
AcDbEntity
  8
Layer_1
 62
7
100
AcDbPolyline
 90
16
 70
1
 10
258.703148
 20
599.344204
 30
0.0
 10
258.703148
 20
605.442994
 30
0.0
 10
253.158803
 20
605.442994
 30
0.0
 10
247.614457
 20
605.442994
 30
0.0
 10
247.614457
 20
610.987346
 30
0.0
 10
247.614457
 20
616.531706
 30
0.0
 10
235.971338
 20
616.531706
 30
0.0
 10
224.328210
 20
616.531706
 30
0.0
 10
224.328210
 20
610.987346
 30
0.0
 10
224.328210
 20
605.442994
 30
0.0
 10
235.971338
 20
605.442994
 30
0.0
 10
247.614457
 20
605.442994
 30
0.0
 10
247.614457
 20
599.344204
 30
0.0
 10
247.614457
 20
593.245459
 30
0.0
 10
253.158803
 20
593.245459
 30
0.0
 10
258.703148
 20
593.245459
 30
0.0
  0
LWPOLYLINE
  5
139
100
AcDbEntity
  8
Layer_1
 62
7
100
AcDbPolyline
 90
26
 70
1
 10
131.183227
 20
610.987346
 30
0.0
 10
131.183227
 20
616.531706
 30
0.0
 10
136.727542
 20
616.531706
 30
0.0
 10
142.271902
 20
616.531706
 30
0.0
 10
142.271902
 20
622.630451
 30
0.0
 10
142.271902
 20
628.729241
 30
0.0
 10
137.400622
 20
628.729241
 30
0.0
 10
132.529380
 20
628.729241
 30
0.0
 10
131.856300
 20
626.975261
 30
0.0
 10
131.183228
 20
625.221289
 30
0.0
 10
131.183228
 20
620.876479
 30
0.0
 10
131.183228
 20
616.531706
 30
0.0
 10
125.084438
 20
616.531706
 30
0.0
 10
118.985655
 20
616.531706
 30
0.0
 10
118.985655
 20
628.235584
 30
0.0
 10
118.985655
 20
639.939454
 30
0.0
 10
113.718533
 20
639.601661
 30
0.0
 10
108.451410
 20
639.263869
 30
0.0
 10
108.451410
 20
628.175149
 30
0.0
 10
108.451410
 20
617.086474
 30
0.0
 10
113.718533
 20
616.748674
 30
0.0
 10
118.985655
 20
616.410881
 30
0.0
 10
118.985655
 20
610.927294
 30
0.0
 10
118.985655
 20
605.443706
 30
0.0
 10
125.084438
 20
605.443706
 30
0.0
 10
131.183228
 20
605.443706
 30
0.0
  0
LWPOLYLINE
  5
13a
100
AcDbEntity
  8
Layer_1
 62
7
100
AcDbPolyline
 90
42
 70
1
 10
72.413155
 20
622.630451
 30
0.0
 10
72.413155
 20
628.729241
 30
0.0
 10
78.453982
 20
628.729241
 30
0.0
 10
84.494812
 20
628.729241
 30
0.0
 10
84.830085
 20
622.907689
 30
0.0
 10
85.165372
 20
617.086136
 30
0.0
 10
90.432487
 20
616.748344
 30
0.0
 10
95.699617
 20
616.410551
 30
0.0
 10
95.699617
 20
622.570099
 30
0.0
 10
95.699617
 20
628.729616
 30
0.0
 10
90.155257
 20
628.729616
 30
0.0
 10
84.610942
 20
628.729616
 30
0.0
 10
84.610942
 20
634.273976
 30
0.0
 10
84.610942
 20
639.818336
 30
0.0
 10
90.155257
 20
639.818336
 30
0.0
 10
95.699617
 20
639.818336
 30
0.0
 10
95.699617
 20
645.917119
 30
0.0
 10
95.699617
 20
652.015864
 30
0.0
 10
84.056512
 20
652.015864
 30
0.0
 10
72.413367
 20
652.015864
 30
0.0
 10
72.413367
 20
657.560224
 30
0.0
 10
72.413367
 20
663.104584
 30
0.0
 10
84.056512
 20
663.104584
 30
0.0
 10
95.699618
 20
663.104584
 30
0.0
 10
95.699618
 20
669.203374
 30
0.0
 10
95.699618
 20
675.302111
 30
0.0
 10
84.056512
 20
675.302111
 30
0.0
 10
72.413367
 20
675.302111
 30
0.0
 10
72.413367
 20
669.203374
 30
0.0
 10
72.413367
 20
663.104584
 30
0.0
 10
62.156310
 20
663.087784
 30
0.0
 10
51.899297
 20
663.070984
 30
0.0
 10
50.469161
 20
662.163671
 30
0.0
 10
49.039023
 20
661.256321
 30
0.0
 10
49.360475
 20
650.814739
 30
0.0
 10
49.681923
 20
640.373111
 30
0.0
 10
55.503477
 20
640.037831
 30
0.0
 10
61.325071
 20
639.702551
 30
0.0
 10
61.325071
 20
628.117361
 30
0.0
 10
61.325071
 20
616.532224
 30
0.0
 10
66.869385
 20
616.532224
 30
0.0
 10
72.413743
 20
616.532224
 30
0.0
  0
LWPOLYLINE
  5
13b
100
AcDbEntity
  8
Layer_1
 62
7
100
AcDbPolyline
 90
10
 70
1
 10
281.989402
 20
622.630451
 30
0.0
 10
281.989402
 20
628.729241
 30
0.0
 10
276.445050
 20
628.729241
 30
0.0
 10
270.900705
 20
628.729241
 30
0.0
 10
270.900705
 20
623.369704
 30
0.0
 10
270.900705
 20
618.010166
 30
0.0
 10
271.639957
 20
617.270959
 30
0.0
 10
272.379195
 20
616.531706
 30
0.0
 10
277.184303
 20
616.531706
 30
0.0
 10
281.989402
 20
616.531706
 30
0.0
  0
LWPOLYLINE
  5
13c
100
AcDbEntity
  8
Layer_1
 62
7
100
AcDbPolyline
 90
10
 70
1
 10
444.993143
 20
622.630451
 30
0.0
 10
444.993143
 20
628.729241
 30
0.0
 10
440.121840
 20
628.729241
 30
0.0
 10
435.250620
 20
628.729241
 30
0.0
 10
434.577548
 20
626.975261
 30
0.0
 10
433.904475
 20
625.221289
 30
0.0
 10
433.904475
 20
620.876479
 30
0.0
 10
433.904475
 20
616.531706
 30
0.0
 10
439.448768
 20
616.531706
 30
0.0
 10
444.993143
 20
616.531706
 30
0.0
  0
LWPOLYLINE
  5
13d
100
AcDbEntity
  8
Layer_1
 62
7
100
AcDbPolyline
 90
12
 70
1
 10
410.618205
 20
645.916744
 30
0.0
 10
410.618205
 20
652.015489
 30
0.0
 10
406.103550
 20
652.015489
 30
0.0
 10
401.588813
 20
652.015489
 30
0.0
 10
400.004753
 20
650.431414
 30
0.0
 10
398.420648
 20
648.847301
 30
0.0
 10
398.420648
 20
645.071884
 30
0.0
 10
398.420648
 20
641.296414
 30
0.0
 10
399.159870
 20
640.557206
 30
0.0
 10
399.899130
 20
639.817961
 30
0.0
 10
405.258668
 20
639.817961
 30
0.0
 10
410.618205
 20
639.817961
 30
0.0
  0
LWPOLYLINE
  5
13e
100
AcDbEntity
  8
Layer_1
 62
7
100
AcDbPolyline
 90
54
 70
1
 10
281.989402
 20
692.431279
 30
0.0
 10
281.989402
 20
709.560776
 30
0.0
 10
287.810963
 20
709.896064
 30
0.0
 10
293.632523
 20
710.231344
 30
0.0
 10
293.632523
 20
715.775711
 30
0.0
 10
293.632523
 20
721.320034
 30
0.0
 10
282.266618
 20
721.636031
 30
0.0
 10
270.900705
 20
721.952029
 30
0.0
 10
270.900705
 20
727.457584
 30
0.0
 10
270.900705
 20
732.963139
 30
0.0
 10
264.801930
 20
732.963139
 30
0.0
 10
258.703148
 20
732.963139
 30
0.0
 10
258.703148
 20
739.061921
 30
0.0
 10
258.703148
 20
745.160704
 30
0.0
 10
264.801930
 20
745.160704
 30
0.0
 10
270.900705
 20
745.160704
 30
0.0
 10
270.900705
 20
750.705026
 30
0.0
 10
270.900705
 20
756.249379
 30
0.0
 10
264.801930
 20
756.249379
 30
0.0
 10
258.703148
 20
756.249379
 30
0.0
 10
258.703148
 20
750.705026
 30
0.0
 10
258.703148
 20
745.160704
 30
0.0
 10
253.158803
 20
745.160704
 30
0.0
 10
247.614457
 20
745.160704
 30
0.0
 10
247.614457
 20
727.418771
 30
0.0
 10
247.614457
 20
709.676869
 30
0.0
 10
243.269677
 20
709.676869
 30
0.0
 10
238.924882
 20
709.676869
 30
0.0
 10
237.170895
 20
709.003796
 30
0.0
 10
235.416900
 20
708.330724
 30
0.0
 10
235.416900
 20
703.459436
 30
0.0
 10
235.416900
 20
698.588156
 30
0.0
 10
241.515682
 20
698.588156
 30
0.0
 10
247.614457
 20
698.588156
 30
0.0
 10
247.614457
 20
692.489411
 30
0.0
 10
247.614457
 20
686.390621
 30
0.0
 10
253.158803
 20
686.390621
 30
0.0
 10
258.703148
 20
686.390621
 30
0.0
 10
258.703148
 20
692.489411
 30
0.0
 10
258.703148
 20
698.588156
 30
0.0
 10
253.158803
 20
698.588156
 30
0.0
 10
247.614457
 20
698.588156
 30
0.0
 10
247.614457
 20
704.132516
 30
0.0
 10
247.614457
 20
709.676869
 30
0.0
 10
253.158803
 20
709.676869
 30
0.0
 10
258.703148
 20
709.676869
 30
0.0
 10
258.703148
 20
715.775666
 30
0.0
 10
258.703148
 20
721.874419
 30
0.0
 10
264.801930
 20
721.874419
 30
0.0
 10
270.900705
 20
721.874419
 30
0.0
 10
270.900705
 20
698.588156
 30
0.0
 10
270.900705
 20
675.301909
 30
0.0
 10
276.445050
 20
675.301909
 30
0.0
 10
281.989403
 20
675.301909
 30
0.0
  0
LWPOLYLINE
  5
13f
100
AcDbEntity
  8
Layer_1
 62
7
100
AcDbPolyline
 90
34
 70
1
 10
363.826440
 20
692.766566
 30
0.0
 10
364.161713
 20
698.588111
 30
0.0
 10
358.004985
 20
698.588111
 30
0.0
 10
351.848257
 20
698.588111
 30
0.0
 10
351.848257
 20
704.132471
 30
0.0
 10
351.848257
 20
709.676831
 30
0.0
 10
340.205130
 20
709.676831
 30
0.0
 10
328.562010
 20
709.676831
 30
0.0
 10
328.562010
 20
715.775629
 30
0.0
 10
328.562010
 20
721.874374
 30
0.0
 10
334.660785
 20
721.874374
 30
0.0
 10
340.759567
 20
721.874374
 30
0.0
 10
340.759567
 20
727.418734
 30
0.0
 10
340.759567
 20
732.963094
 30
0.0
 10
336.414787
 20
732.963094
 30
0.0
 10
332.069992
 20
732.963094
 30
0.0
 10
330.316005
 20
732.290021
 30
0.0
 10
328.562010
 20
731.616941
 30
0.0
 10
328.562010
 20
726.745661
 30
0.0
 10
328.562010
 20
721.874374
 30
0.0
 10
323.690737
 20
721.874374
 30
0.0
 10
318.819465
 20
721.874374
 30
0.0
 10
318.146392
 20
720.120401
 30
0.0
 10
317.473320
 20
718.366421
 30
0.0
 10
317.473320
 20
708.477244
 30
0.0
 10
317.473320
 20
698.588111
 30
0.0
 10
334.660785
 20
698.588111
 30
0.0
 10
351.848257
 20
698.588111
 30
0.0
 10
351.848257
 20
693.228619
 30
0.0
 10
351.848257
 20
687.869044
 30
0.0
 10
352.638622
 20
687.078701
 30
0.0
 10
353.428995
 20
686.288321
 30
0.0
 10
358.460190
 20
686.616896
 30
0.0
 10
363.491362
 20
686.945051
 30
0.0
  0
LWPOLYLINE
  5
140
100
AcDbEntity
  8
Layer_1
 62
7
100
AcDbPolyline
 90
8
 70
1
 10
154.469475
 20
715.775629
 30
0.0
 10
154.469475
 20
721.874374
 30
0.0
 10
148.370693
 20
721.874374
 30
0.0
 10
142.271903
 20
721.874374
 30
0.0
 10
142.271903
 20
715.775629
 30
0.0
 10
142.271903
 20
709.676831
 30
0.0
 10
148.370693
 20
709.676831
 30
0.0
 10
154.469475
 20
709.676831
 30
0.0
  0
LWPOLYLINE
  5
141
100
AcDbEntity
  8
Layer_1
 62
7
100
AcDbPolyline
 90
10
 70
1
 10
364.045710
 20
727.418734
 30
0.0
 10
364.045710
 20
732.963094
 30
0.0
 10
359.700922
 20
732.963094
 30
0.0
 10
355.356127
 20
732.963094
 30
0.0
 10
353.602140
 20
732.290021
 30
0.0
 10
351.848145
 20
731.616941
 30
0.0
 10
351.848145
 20
726.745661
 30
0.0
 10
351.848145
 20
721.874374
 30
0.0
 10
357.946920
 20
721.874374
 30
0.0
 10
364.045710
 20
721.874374
 30
0.0
  0
LWPOLYLINE
  5
142
100
AcDbEntity
  8
Layer_1
 62
7
100
AcDbPolyline
 90
8
 70
1
 10
457.190700
 20
727.418734
 30
0.0
 10
457.190700
 20
732.963094
 30
0.0
 10
451.091940
 20
732.963094
 30
0.0
 10
444.993143
 20
732.963094
 30
0.0
 10
444.993143
 20
727.418734
 30
0.0
 10
444.993143
 20
721.874374
 30
0.0
 10
451.091940
 20
721.874374
 30
0.0
 10
457.190700
 20
721.874374
 30
0.0
  0
LWPOLYLINE
  5
143
100
AcDbEntity
  8
Layer_1
 62
7
100
AcDbPolyline
 90
10
 70
1
 10
317.224140
 20
750.427789
 30
0.0
 10
316.918792
 20
767.892459
 30
0.0
 10
301.068938
 20
768.200415
 30
0.0
 10
285.219097
 20
768.508371
 30
0.0
 10
283.604250
 20
766.893531
 30
0.0
 10
281.989418
 20
765.278689
 30
0.0
 10
281.989418
 20
749.120869
 30
0.0
 10
281.989418
 20
732.963094
 30
0.0
 10
299.759475
 20
732.963094
 30
0.0
 10
317.529547
 20
732.963094
 30
0.0
  0
LWPOLYLINE
  5
144
100
AcDbEntity
  8
Layer_1
 62
7
100
AcDbPolyline
 90
8
 70
1
 10
294.186960
 20
750.704816
 30
0.0
 10
294.186960
 20
756.249131
 30
0.0
 10
299.731305
 20
756.249131
 30
0.0
 10
305.275650
 20
756.249131
 30
0.0
 10
305.275650
 20
750.704816
 30
0.0
 10
305.275650
 20
745.160456
 30
0.0
 10
299.731305
 20
745.160456
 30
0.0
 10
294.186960
 20
745.160456
 30
0.0
  0
LWPOLYLINE
  5
145
100
AcDbEntity
  8
Layer_1
 62
7
100
AcDbPolyline
 90
8
 70
1
 10
177.755715
 20
750.704816
 30
0.0
 10
177.755715
 20
756.249131
 30
0.0
 10
171.656933
 20
756.249131
 30
0.0
 10
165.558150
 20
756.249131
 30
0.0
 10
165.558150
 20
750.704816
 30
0.0
 10
165.558150
 20
745.160456
 30
0.0
 10
171.656933
 20
745.160456
 30
0.0
 10
177.755715
 20
745.160456
 30
0.0
  0
LWPOLYLINE
  5
146
100
AcDbEntity
  8
Layer_1
 62
7
100
AcDbPolyline
 90
10
 70
1
 10
340.521023
 20
756.526369
 30
0.0
 10
340.205025
 20
767.892272
 30
0.0
 10
336.035190
 20
768.237109
 30
0.0
 10
331.865355
 20
768.581945
 30
0.0
 10
330.213630
 20
766.930220
 30
0.0
 10
328.561905
 20
765.278494
 30
0.0
 10
328.561905
 20
755.219486
 30
0.0
 10
328.561905
 20
745.160456
 30
0.0
 10
334.699470
 20
745.160456
 30
0.0
 10
340.837050
 20
745.160456
 30
0.0
  0
LWPOLYLINE
  5
147
100
AcDbEntity
  8
Layer_1
 62
7
100
AcDbPolyline
 90
10
 70
1
 10
364.045710
 20
750.704816
 30
0.0
 10
364.045710
 20
756.249131
 30
0.0
 10
359.700922
 20
756.249131
 30
0.0
 10
355.356127
 20
756.249131
 30
0.0
 10
353.602140
 20
755.576096
 30
0.0
 10
351.848145
 20
754.903024
 30
0.0
 10
351.848145
 20
750.031736
 30
0.0
 10
351.848145
 20
745.160456
 30
0.0
 10
357.946920
 20
745.160456
 30
0.0
 10
364.045710
 20
745.160456
 30
0.0
  0
LWPOLYLINE
  5
148
100
AcDbEntity
  8
Layer_1
 62
7
100
AcDbPolyline
 90
8
 70
1
 10
457.190700
 20
750.704816
 30
0.0
 10
457.190700
 20
756.249131
 30
0.0
 10
451.091940
 20
756.249131
 30
0.0
 10
444.993143
 20
756.249131
 30
0.0
 10
444.993143
 20
750.704816
 30
0.0
 10
444.993143
 20
745.160456
 30
0.0
 10
451.091940
 20
745.160456
 30
0.0
 10
457.190700
 20
745.160456
 30
0.0
  0
LWPOLYLINE
  5
149
100
AcDbEntity
  8
Layer_1
 62
7
100
AcDbPolyline
 90
8
 70
1
 10
270.900705
 20
773.991223
 30
0.0
 10
270.900705
 20
779.535565
 30
0.0
 10
264.801930
 20
779.535565
 30
0.0
 10
258.703148
 20
779.535565
 30
0.0
 10
258.703148
 20
773.991223
 30
0.0
 10
258.703148
 20
768.446877
 30
0.0
 10
264.801930
 20
768.446877
 30
0.0
 10
270.900705
 20
768.446877
 30
0.0
  0
LWPOLYLINE
  5
14a
100
AcDbEntity
  8
Layer_1
 62
7
100
AcDbPolyline
 90
8
 70
1
 10
258.703148
 20
808.920596
 30
0.0
 10
258.703148
 20
815.019374
 30
0.0
 10
253.158803
 20
815.019374
 30
0.0
 10
247.614457
 20
815.019374
 30
0.0
 10
247.614457
 20
808.920596
 30
0.0
 10
247.614457
 20
802.821818
 30
0.0
 10
253.158803
 20
802.821818
 30
0.0
 10
258.703148
 20
802.821818
 30
0.0
  0
LWPOLYLINE
  5
14b
100
AcDbEntity
  8
Layer_1
 62
7
100
AcDbPolyline
 90
8
 70
1
 10
514.851893
 20
261.693754
 30
0.0
 10
514.851893
 20
267.238046
 30
0.0
 10
526.494990
 20
267.238046
 30
0.0
 10
538.138125
 20
267.238046
 30
0.0
 10
538.138125
 20
261.693754
 30
0.0
 10
538.138125
 20
256.149379
 30
0.0
 10
526.494990
 20
256.149379
 30
0.0
 10
514.851893
 20
256.149379
 30
0.0
  0
LWPOLYLINE
  5
14c
100
AcDbEntity
  8
Layer_1
 62
7
100
AcDbPolyline
 90
12
 70
1
 10
561.424387
 20
267.792476
 30
0.0
 10
561.424387
 20
279.435649
 30
0.0
 10
567.523147
 20
279.435649
 30
0.0
 10
573.621945
 20
279.435649
 30
0.0
 10
573.621945
 20
273.336844
 30
0.0
 10
573.621945
 20
267.238046
 30
0.0
 10
579.166282
 20
267.238046
 30
0.0
 10
584.710612
 20
267.238046
 30
0.0
 10
584.710612
 20
261.693754
 30
0.0
 10
584.710612
 20
256.149379
 30
0.0
 10
573.067477
 20
256.149379
 30
0.0
 10
561.424387
 20
256.149379
 30
0.0
  0
LWPOLYLINE
  5
14d
100
AcDbEntity
  8
Layer_1
 62
7
100
AcDbPolyline
 90
8
 70
1
 10
201.041963
 20
302.167444
 30
0.0
 10
201.041963
 20
313.810541
 30
0.0
 10
206.586307
 20
313.810541
 30
0.0
 10
212.130652
 20
313.810541
 30
0.0
 10
212.130652
 20
302.167444
 30
0.0
 10
212.130652
 20
290.524316
 30
0.0
 10
206.586307
 20
290.524316
 30
0.0
 10
201.041962
 20
290.524316
 30
0.0
  0
LWPOLYLINE
  5
14e
100
AcDbEntity
  8
Layer_1
 62
7
100
AcDbPolyline
 90
8
 70
1
 10
177.755715
 20
308.266241
 30
0.0
 10
177.755715
 20
313.810541
 30
0.0
 10
183.300060
 20
313.810541
 30
0.0
 10
188.844405
 20
313.810541
 30
0.0
 10
188.844405
 20
308.266241
 30
0.0
 10
188.844405
 20
302.721836
 30
0.0
 10
183.300060
 20
302.721836
 30
0.0
 10
177.755715
 20
302.721836
 30
0.0
  0
LWPOLYLINE
  5
14f
100
AcDbEntity
  8
Layer_1
 62
7
100
AcDbPolyline
 90
8
 70
1
 10
154.469475
 20
494.556229
 30
0.0
 10
154.469475
 20
500.100589
 30
0.0
 10
160.013798
 20
500.100589
 30
0.0
 10
165.558150
 20
500.100589
 30
0.0
 10
165.558150
 20
494.556229
 30
0.0
 10
165.558150
 20
489.011876
 30
0.0
 10
160.013798
 20
489.011876
 30
0.0
 10
154.469475
 20
489.011876
 30
0.0
  0
LWPOLYLINE
  5
150
100
AcDbEntity
  8
Layer_1
 62
7
100
AcDbPolyline
 90
8
 70
1
 10
14.751989
 20
564.414979
 30
0.0
 10
14.751989
 20
569.959339
 30
0.0
 10
20.296306
 20
569.959339
 30
0.0
 10
25.840664
 20
569.959339
 30
0.0
 10
25.840664
 20
564.414979
 30
0.0
 10
25.840664
 20
558.870619
 30
0.0
 10
20.296306
 20
558.870619
 30
0.0
 10
14.751989
 20
558.870619
 30
0.0
  0
LWPOLYLINE
  5
151
100
AcDbEntity
  8
Layer_1
 62
7
100
AcDbPolyline
 90
8
 70
1
 10
468.279367
 20
587.701226
 30
0.0
 10
468.279367
 20
593.245586
 30
0.0
 10
479.922502
 20
593.245586
 30
0.0
 10
491.565630
 20
593.245586
 30
0.0
 10
491.565630
 20
587.701226
 30
0.0
 10
491.565630
 20
582.156866
 30
0.0
 10
479.922502
 20
582.156866
 30
0.0
 10
468.279367
 20
582.156866
 30
0.0
  0
LWPOLYLINE
  5
152
100
AcDbEntity
  8
Layer_1
 62
7
100
AcDbPolyline
 90
8
 70
1
 10
468.279367
 20
610.987474
 30
0.0
 10
468.279367
 20
616.531834
 30
0.0
 10
479.922502
 20
616.531834
 30
0.0
 10
491.565630
 20
616.531834
 30
0.0
 10
491.565630
 20
610.987474
 30
0.0
 10
491.565630
 20
605.443114
 30
0.0
 10
479.922502
 20
605.443114
 30
0.0
 10
468.279367
 20
605.443114
 30
0.0
  0
LWPOLYLINE
  5
153
100
AcDbEntity
  8
Layer_1
 62
7
100
AcDbPolyline
 90
8
 70
1
 10
468.279367
 20
634.273721
 30
0.0
 10
468.279367
 20
639.818081
 30
0.0
 10
474.378165
 20
639.818081
 30
0.0
 10
480.476962
 20
639.818081
 30
0.0
 10
480.476962
 20
634.273721
 30
0.0
 10
480.476962
 20
628.729369
 30
0.0
 10
474.378165
 20
628.729369
 30
0.0
 10
468.279367
 20
628.729369
 30
0.0
  0
LWPOLYLINE
  5
154
100
AcDbEntity
  8
Layer_1
 62
7
100
AcDbPolyline
 90
16
 70
1
 10
457.190700
 20
657.559969
 30
0.0
 10
457.190700
 20
663.104336
 30
0.0
 10
462.735030
 20
663.104336
 30
0.0
 10
468.279367
 20
663.104336
 30
0.0
 10
468.279367
 20
669.203119
 30
0.0
 10
468.279367
 20
675.301864
 30
0.0
 10
474.378165
 20
675.301864
 30
0.0
 10
480.476962
 20
675.301864
 30
0.0
 10
480.476962
 20
669.203119
 30
0.0
 10
480.476962
 20
663.104336
 30
0.0
 10
474.378165
 20
663.104336
 30
0.0
 10
468.279367
 20
663.104336
 30
0.0
 10
468.279367
 20
657.559969
 30
0.0
 10
468.279367
 20
652.015616
 30
0.0
 10
462.735030
 20
652.015616
 30
0.0
 10
457.190700
 20
652.015616
 30
0.0
  0
LWPOLYLINE
  5
155
100
AcDbEntity
  8
Layer_1
 62
7
100
AcDbPolyline
 90
16
 70
1
 10
491.565630
 20
727.418734
 30
0.0
 10
491.565630
 20
732.963094
 30
0.0
 10
486.021255
 20
732.963094
 30
0.0
 10
480.476963
 20
732.963094
 30
0.0
 10
480.476963
 20
744.606191
 30
0.0
 10
480.476963
 20
756.249296
 30
0.0
 10
486.021255
 20
756.249296
 30
0.0
 10
491.565630
 20
756.249296
 30
0.0
 10
491.565630
 20
744.606191
 30
0.0
 10
491.565630
 20
732.963094
 30
0.0
 10
503.208728
 20
732.963094
 30
0.0
 10
514.851893
 20
732.963094
 30
0.0
 10
514.851893
 20
727.418734
 30
0.0
 10
514.851893
 20
721.874374
 30
0.0
 10
503.208728
 20
721.874374
 30
0.0
 10
491.565630
 20
721.874374
 30
0.0
  0
LWPOLYLINE
  5
156
100
AcDbEntity
  8
Layer_1
 62
7
100
AcDbPolyline
 90
8
 70
1
 10
14.751989
 20
785.634242
 30
0.0
 10
14.751989
 20
826.107962
 30
0.0
 10
55.225697
 20
826.107962
 30
0.0
 10
95.699408
 20
826.107962
 30
0.0
 10
95.699408
 20
785.634242
 30
0.0
 10
95.699408
 20
745.160539
 30
0.0
 10
55.225697
 20
745.160539
 30
0.0
 10
14.751989
 20
745.160539
 30
0.0
  0
LWPOLYLINE
  5
157
100
AcDbEntity
  8
Layer_1
 62
7
100
AcDbPolyline
 90
8
 70
1
 10
84.610733
 20
785.634242
 30
0.0
 10
84.610733
 20
815.019269
 30
0.0
 10
55.225697
 20
815.019269
 30
0.0
 10
25.840664
 20
815.019269
 30
0.0
 10
25.840664
 20
785.634242
 30
0.0
 10
25.840664
 20
756.249214
 30
0.0
 10
55.225697
 20
756.249214
 30
0.0
 10
84.610733
 20
756.249214
 30
0.0
  0
LWPOLYLINE
  5
158
100
AcDbEntity
  8
Layer_1
 62
7
100
AcDbPolyline
 90
8
 70
1
 10
38.038238
 20
785.634242
 30
0.0
 10
38.038238
 20
802.821713
 30
0.0
 10
55.225697
 20
802.821713
 30
0.0
 10
72.413155
 20
802.821713
 30
0.0
 10
72.413155
 20
785.634242
 30
0.0
 10
72.413155
 20
768.446771
 30
0.0
 10
55.225697
 20
768.446771
 30
0.0
 10
38.038238
 20
768.446771
 30
0.0
  0
LWPOLYLINE
  5
159
100
AcDbEntity
  8
Layer_1
 62
7
100
AcDbPolyline
 90
8
 70
1
 10
503.763188
 20
785.634242
 30
0.0
 10
503.763188
 20
826.107962
 30
0.0
 10
544.236922
 20
826.107962
 30
0.0
 10
584.710613
 20
826.107962
 30
0.0
 10
584.710613
 20
785.634242
 30
0.0
 10
584.710613
 20
745.160539
 30
0.0
 10
544.236922
 20
745.160539
 30
0.0
 10
503.763188
 20
745.160539
 30
0.0
  0
LWPOLYLINE
  5
15a
100
AcDbEntity
  8
Layer_1
 62
7
100
AcDbPolyline
 90
8
 70
1
 10
573.621945
 20
785.634242
 30
0.0
 10
573.621945
 20
815.019269
 30
0.0
 10
544.236922
 20
815.019269
 30
0.0
 10
514.851893
 20
815.019269
 30
0.0
 10
514.851893
 20
785.634242
 30
0.0
 10
514.851893
 20
756.249214
 30
0.0
 10
544.236922
 20
756.249214
 30
0.0
 10
573.621945
 20
756.249214
 30
0.0
  0
LWPOLYLINE
  5
15b
100
AcDbEntity
  8
Layer_1
 62
7
100
AcDbPolyline
 90
8
 70
1
 10
527.049458
 20
785.634242
 30
0.0
 10
527.049458
 20
802.821713
 30
0.0
 10
544.236922
 20
802.821713
 30
0.0
 10
561.424387
 20
802.821713
 30
0.0
 10
561.424387
 20
785.634242
 30
0.0
 10
561.424387
 20
768.446771
 30
0.0
 10
544.236922
 20
768.446771
 30
0.0
 10
527.049458
 20
768.446771
 30
0.0
  0
LWPOLYLINE
  5
15c
100
AcDbEntity
  8
Layer_1
 62
7
100
AcDbPolyline
 90
8
 70
1
 10
201.041963
 20
773.991117
 30
0.0
 10
201.041963
 20
779.535459
 30
0.0
 10
206.586307
 20
779.535459
 30
0.0
 10
212.130652
 20
779.535459
 30
0.0
 10
212.130652
 20
773.991117
 30
0.0
 10
212.130652
 20
768.446771
 30
0.0
 10
206.586307
 20
768.446771
 30
0.0
 10
201.041962
 20
768.446771
 30
0.0
  0
LWPOLYLINE
  5
15d
100
AcDbEntity
  8
Layer_1
 62
7
100
AcDbPolyline
 90
8
 70
1
 10
224.328210
 20
780.089896
 30
0.0
 10
224.328210
 20
791.733021
 30
0.0
 10
229.872555
 20
791.733021
 30
0.0
 10
235.416900
 20
791.733021
 30
0.0
 10
235.416900
 20
780.089896
 30
0.0
 10
235.416900
 20
768.446771
 30
0.0
 10
229.872555
 20
768.446771
 30
0.0
 10
224.328210
 20
768.446771
 30
0.0
  0
ENDSEC
  0
SECTION
  2
OBJECTS
  0
DICTIONARY
  5
C
330
0
100
AcDbDictionary
  3
ACAD_GROUP
350
D
  3
ACAD_MLINESTYLE
350
17
  0
DICTIONARY
  5
D
330
C
100
AcDbDictionary
  0
DICTIONARY
  5
1A
330
C
100
AcDbDictionary
  0
DICTIONARY
  5
17
330
C
100
AcDbDictionary
  3
STANDARD
350
18
  0
DICTIONARY
  5
19
330
C
100
AcDbDictionary
  0
ENDSEC
  0
EOF
